Droid Devanagari-BoldItalic.ufo
<glyph name="dollar" format="1">
  <advance width="1145"/>
  <unicode hex="0024"/>
  <outline>
    <contour>
      <point x="524" y="1556" type="line"/>
      <point x="639" y="1556" type="line"/>
      <point x="639" y="1401" type="line"/>
      <point x="760" y="1397"/>
      <point x="848" y="1373"/>
      <point x="905" y="1337" type="curve" smooth="yes"/>
      <point x="962" y="1300"/>
      <point x="989" y="1251"/>
      <point x="989" y="1196" type="curve" smooth="yes"/>
      <point x="989" y="1109"/>
      <point x="915" y="1047"/>
      <point x="764" y="1047" type="curve"/>
      <point x="764" y="1087"/>
      <point x="755" y="1136"/>
      <point x="735" y="1180" type="curve" smooth="yes"/>
      <point x="715" y="1223"/>
      <point x="684" y="1260"/>
      <point x="639" y="1280" type="curve"/>
      <point x="639" y="881" type="line"/>
      <point x="643" y="879"/>
      <point x="651" y="876"/>
      <point x="662" y="872" type="curve"/>
      <point x="690" y="860" type="line" smooth="yes"/>
      <point x="815" y="811"/>
      <point x="904" y="760"/>
      <point x="961" y="699" type="curve" smooth="yes"/>
      <point x="1017" y="638"/>
      <point x="1042" y="568"/>
      <point x="1042" y="481" type="curve" smooth="yes"/>
      <point x="1042" y="377"/>
      <point x="1004" y="287"/>
      <point x="936" y="219" type="curve" smooth="yes"/>
      <point x="867" y="151"/>
      <point x="766" y="107"/>
      <point x="639" y="92" type="curve"/>
      <point x="639" y="-162" type="line"/>
      <point x="524" y="-162" type="line"/>
      <point x="524" y="88" type="line"/>
      <point x="368" y="92"/>
      <point x="262" y="131"/>
      <point x="195" y="186" type="curve" smooth="yes"/>
      <point x="127" y="241"/>
      <point x="100" y="311"/>
      <point x="100" y="375" type="curve" smooth="yes"/>
      <point x="100" y="435"/>
      <point x="124" y="476"/>
      <point x="160" y="502" type="curve" smooth="yes"/>
      <point x="196" y="528"/>
      <point x="244" y="539"/>
      <point x="293" y="539" type="curve"/>
      <point x="293" y="436"/>
      <point x="316" y="356"/>
      <point x="357" y="300" type="curve" smooth="yes"/>
      <point x="397" y="243"/>
      <point x="455" y="208"/>
      <point x="524" y="197" type="curve"/>
      <point x="524" y="639" type="line"/>
      <point x="489" y="653" type="line" smooth="yes"/>
      <point x="358" y="706"/>
      <point x="274" y="760"/>
      <point x="220" y="822" type="curve" smooth="yes"/>
      <point x="166" y="884"/>
      <point x="145" y="954"/>
      <point x="145" y="1042" type="curve" smooth="yes"/>
      <point x="145" y="1141"/>
      <point x="184" y="1224"/>
      <point x="251" y="1285" type="curve" smooth="yes"/>
      <point x="318" y="1346"/>
      <point x="412" y="1387"/>
      <point x="524" y="1399" type="curve"/>
    </contour>
    <contour>
      <point x="385" y="1092"/>
      <point x="392" y="1059"/>
      <point x="413" y="1028" type="curve" smooth="yes"/>
      <point x="434" y="996"/>
      <point x="469" y="967"/>
      <point x="524" y="936" type="curve"/>
      <point x="524" y="1290" type="line"/>
      <point x="444" y="1275"/>
      <point x="385" y="1221"/>
      <point x="385" y="1128" type="curve" smooth="yes"/>
    </contour>
    <contour>
      <point x="799" y="476"/>
      <point x="746" y="532"/>
      <point x="639" y="588" type="curve"/>
      <point x="639" y="201" type="line"/>
      <point x="742" y="224"/>
      <point x="799" y="297"/>
      <point x="799" y="389" type="curve" smooth="yes"/>
    </contour>
  </outline>
</glyph>
<glyph name="comma" format="1">
  <advance width="602"/>
  <unicode hex="002C"/>
  <outline>
    <contour>
      <point x="459" y="-1"/>
      <point x="434" y="-84"/>
      <point x="375" y="-153" type="curve" smooth="yes"/>
      <point x="316" y="-222"/>
      <point x="225" y="-279"/>
      <point x="92" y="-315" type="curve"/>
      <point x="92" y="-209" type="line"/>
      <point x="152" y="-188"/>
      <point x="197" y="-167"/>
      <point x="227" y="-142" type="curve" smooth="yes"/>
      <point x="257" y="-118"/>
      <point x="272" y="-89"/>
      <point x="272" y="-49" type="curve" smooth="yes"/>
      <point x="272" y="-24"/>
      <point x="256" y="-9"/>
      <point x="234" y="6" type="curve" smooth="yes"/>
      <point x="198" y="29" type="line"/>
      <point x="172" y="44"/>
      <point x="149" y="67"/>
      <point x="134" y="103" type="curve" smooth="yes"/>
      <point x="127" y="120"/>
      <point x="123" y="143"/>
      <point x="123" y="170" type="curve" smooth="yes"/>
      <point x="123" y="262"/>
      <point x="186" y="311"/>
      <point x="270" y="311" type="curve" smooth="yes"/>
      <point x="386" y="311"/>
      <point x="459" y="226"/>
      <point x="459" y="86" type="curve" smooth="yes"/>
    </contour>
  </outline>
</glyph>
<glyph name="one" format="1">
  <advance width="1145"/>
  <unicode hex="0031"/>
  <outline>
    <contour>
      <point x="199" y="0" type="line"/>
      <point x="199" y="109" type="line"/>
      <point x="367" y="109" type="line" smooth="yes"/>
      <point x="402" y="109"/>
      <point x="427" y="117"/>
      <point x="444" y="137" type="curve" smooth="yes"/>
      <point x="461" y="157"/>
      <point x="469" y="190"/>
      <point x="469" y="242" type="curve" smooth="yes"/>
      <point x="469" y="1268" type="line"/>
      <point x="417" y="1204"/>
      <point x="372" y="1151"/>
      <point x="329" y="1114" type="curve" smooth="yes"/>
      <point x="286" y="1077"/>
      <point x="246" y="1055"/>
      <point x="205" y="1055" type="curve" smooth="yes"/>
      <point x="172" y="1055"/>
      <point x="142" y="1069"/>
      <point x="121" y="1096" type="curve" smooth="yes"/>
      <point x="100" y="1123"/>
      <point x="86" y="1161"/>
      <point x="86" y="1206" type="curve"/>
      <point x="127" y="1217"/>
      <point x="172" y="1231"/>
      <point x="224" y="1256" type="curve" smooth="yes"/>
      <point x="275" y="1280"/>
      <point x="333" y="1315"/>
      <point x="401" y="1364" type="curve" smooth="yes"/>
      <point x="545" y="1470" type="line"/>
      <point x="774" y="1470" type="line"/>
      <point x="774" y="242" type="line" smooth="yes"/>
      <point x="774" y="199"/>
      <point x="779" y="166"/>
      <point x="795" y="143" type="curve" smooth="yes"/>
      <point x="810" y="120"/>
      <point x="836" y="109"/>
      <point x="879" y="109" type="curve" smooth="yes"/>
      <point x="1044" y="109" type="line"/>
      <point x="1044" y="0" type="line"/>
    </contour>
  </outline>
</glyph>
<glyph name="backslash" format="1">
  <advance width="590"/>
  <unicode hex="005C"/>
  <outline>
    <contour>
      <point x="590" y="-248" type="line"/>
      <point x="442" y="-248" type="line"/>
      <point x="0" y="1556" type="line"/>
      <point x="145" y="1556" type="line"/>
    </contour>
  </outline>
</glyph>
<glyph name="bracketright" format="1">
  <advance width="848"/>
  <unicode hex="005D"/>
  <outline>
    <contour>
      <point x="76" y="1448" type="line"/>
      <point x="76" y="1556" type="line"/>
      <point x="643" y="1556" type="line"/>
      <point x="643" y="-262" type="line"/>
      <point x="76" y="-262" type="line"/>
      <point x="76" y="-154" type="line"/>
      <point x="164" y="-154" type="line" smooth="yes"/>
      <point x="211" y="-154"/>
      <point x="253" y="-149"/>
      <point x="283" y="-128" type="curve" smooth="yes"/>
      <point x="313" y="-108"/>
      <point x="332" y="-70"/>
      <point x="332" y="-6" type="curve" smooth="yes"/>
      <point x="332" y="1300" type="line" smooth="yes"/>
      <point x="332" y="1365"/>
      <point x="313" y="1402"/>
      <point x="283" y="1423" type="curve" smooth="yes"/>
      <point x="253" y="1443"/>
      <point x="211" y="1448"/>
      <point x="164" y="1448" type="curve" smooth="yes"/>
    </contour>
  </outline>
</glyph>
<glyph name="grave" format="1">
  <advance width="1182"/>
  <unicode hex="0060"/>
  <outline>
    <contour>
      <point x="852" y="1241" type="line"/>
      <point x="713" y="1241" type="line"/>
      <point x="649" y="1278"/>
      <point x="566" y="1337"/>
      <point x="494" y="1396" type="curve" smooth="yes"/>
      <point x="421" y="1455"/>
      <point x="357" y="1512"/>
      <point x="332" y="1548" type="curve"/>
      <point x="332" y="1569" type="line"/>
      <point x="653" y="1569" type="line"/>
      <point x="674" y="1524"/>
      <point x="710" y="1468"/>
      <point x="747" y="1414" type="curve" smooth="yes"/>
      <point x="783" y="1360"/>
      <point x="823" y="1307"/>
      <point x="852" y="1268" type="curve"/>
    </contour>
  </outline>
</glyph>
<glyph name="braceleft" format="1">
  <advance width="905"/>
  <unicode hex="007B"/>
  <outline>
    <contour>
      <point x="844" y="-147" type="line"/>
      <point x="844" y="-256" type="line"/>
      <point x="649" y="-256" type="line" smooth="yes"/>
      <point x="534" y="-256"/>
      <point x="447" y="-227"/>
      <point x="388" y="-174" type="curve" smooth="yes"/>
      <point x="329" y="-122"/>
      <point x="299" y="-46"/>
      <point x="299" y="47" type="curve" smooth="yes"/>
      <point x="299" y="397" type="line" smooth="yes"/>
      <point x="299" y="476"/>
      <point x="273" y="522"/>
      <point x="230" y="550" type="curve" smooth="yes"/>
      <point x="187" y="578"/>
      <point x="128" y="587"/>
      <point x="61" y="590" type="curve"/>
      <point x="61" y="715" type="line"/>
      <point x="128" y="718"/>
      <point x="187" y="726"/>
      <point x="230" y="754" type="curve" smooth="yes"/>
      <point x="273" y="782"/>
      <point x="299" y="829"/>
      <point x="299" y="905" type="curve" smooth="yes"/>
      <point x="299" y="1257" type="line" smooth="yes"/>
      <point x="299" y="1449"/>
      <point x="418" y="1556"/>
      <point x="649" y="1556" type="curve" smooth="yes"/>
      <point x="844" y="1556" type="line"/>
      <point x="844" y="1448" type="line"/>
      <point x="764" y="1448" type="line" smooth="yes"/>
      <point x="705" y="1448"/>
      <point x="670" y="1430"/>
      <point x="648" y="1397" type="curve" smooth="yes"/>
      <point x="626" y="1364"/>
      <point x="618" y="1313"/>
      <point x="618" y="1249" type="curve" smooth="yes"/>
      <point x="618" y="901" type="line" smooth="yes"/>
      <point x="618" y="777"/>
      <point x="552" y="698"/>
      <point x="393" y="662" type="curve"/>
      <point x="393" y="645" type="line"/>
      <point x="550" y="606"/>
      <point x="618" y="527"/>
      <point x="618" y="403" type="curve" smooth="yes"/>
      <point x="618" y="53" type="line" smooth="yes"/>
      <point x="618" y="-11"/>
      <point x="626" y="-61"/>
      <point x="648" y="-95" type="curve" smooth="yes"/>
      <point x="670" y="-129"/>
      <point x="705" y="-147"/>
      <point x="764" y="-147" type="curve" smooth="yes"/>
    </contour>
  </outline>
</glyph>
<glyph name="multiply" format="1">
  <advance width="1145"/>
  <unicode hex="00D7"/>
  <outline>
    <contour>
      <point x="977" y="430" type="line"/>
      <point x="874" y="328" type="line"/>
      <point x="571" y="631" type="line"/>
      <point x="270" y="328" type="line"/>
      <point x="166" y="432" type="line"/>
      <point x="467" y="735" type="line"/>
      <point x="166" y="1036" type="line"/>
      <point x="270" y="1139" type="line"/>
      <point x="571" y="838" type="line"/>
      <point x="872" y="1141" type="line"/>
      <point x="977" y="1036" type="line"/>
      <point x="674" y="733" type="line"/>
    </contour>
  </outline>
</glyph>
<glyph name="candrabinduinverteddeva" format="1">
  <advance width="0"/>
  <unicode hex="0900"/>
  <outline>
    <contour>
      <point x="199" y="1519"/>
      <point x="221" y="1528"/>
      <point x="234" y="1587" type="curve" smooth="yes"/>
      <point x="264" y="1731"/>
      <point x="181" y="1966"/>
      <point x="-92" y="1966" type="curve" smooth="yes"/>
      <point x="-275" y="1966"/>
      <point x="-419" y="1851"/>
      <point x="-449" y="1706" type="curve" smooth="yes"/>
      <point x="-470" y="1606"/>
      <point x="-431" y="1542"/>
      <point x="-347" y="1501" type="curve"/>
      <point x="-294" y="1688"/>
      <point x="-178" y="1783"/>
      <point x="-38" y="1783" type="curve" smooth="yes"/>
      <point x="82" y="1783"/>
      <point x="138" y="1703"/>
      <point x="163" y="1515" type="curve"/>
    </contour>
    <contour>
      <point x="-53" y="1446"/>
      <point x="1" y="1492"/>
      <point x="13" y="1550" type="curve" smooth="yes"/>
      <point x="29" y="1624"/>
      <point x="-22" y="1687"/>
      <point x="-98" y="1687" type="curve" smooth="yes"/>
      <point x="-155" y="1687"/>
      <point x="-210" y="1640"/>
      <point x="-222" y="1582" type="curve" smooth="yes"/>
      <point x="-238" y="1508"/>
      <point x="-186" y="1446"/>
      <point x="-109" y="1446" type="curve" smooth="yes"/>
    </contour>
  </outline>
</glyph>
<glyph name="candrabindudeva" format="1">
  <advance width="0"/>
  <unicode hex="0901"/>
  <outline>
    <contour>
      <point x="-126" y="1966"/>
      <point x="-181" y="1920"/>
      <point x="-193" y="1862" type="curve" smooth="yes"/>
      <point x="-209" y="1788"/>
      <point x="-157" y="1725"/>
      <point x="-80" y="1725" type="curve" smooth="yes"/>
      <point x="-24" y="1725"/>
      <point x="30" y="1772"/>
      <point x="42" y="1830" type="curve" smooth="yes"/>
      <point x="58" y="1904"/>
      <point x="7" y="1966"/>
      <point x="-69" y="1966" type="curve" smooth="yes"/>
    </contour>
    <contour>
      <point x="-390" y="1893"/>
      <point x="-412" y="1884"/>
      <point x="-424" y="1825" type="curve" smooth="yes"/>
      <point x="-454" y="1681"/>
      <point x="-371" y="1446"/>
      <point x="-98" y="1446" type="curve" smooth="yes"/>
      <point x="85" y="1446"/>
      <point x="228" y="1561"/>
      <point x="259" y="1706" type="curve" smooth="yes"/>
      <point x="280" y="1806"/>
      <point x="240" y="1870"/>
      <point x="157" y="1911" type="curve"/>
      <point x="104" y="1724"/>
      <point x="-12" y="1629"/>
      <point x="-152" y="1629" type="curve" smooth="yes"/>
      <point x="-272" y="1629"/>
      <point x="-329" y="1709"/>
      <point x="-353" y="1897" type="curve"/>
    </contour>
  </outline>
</glyph>
<glyph name="anusvaradeva" format="1">
  <advance width="0"/>
  <unicode hex="0902"/>
  <outline>
    <contour>
      <point x="-138" y="1690"/>
      <point x="-215" y="1621"/>
      <point x="-215" y="1543" type="curve" smooth="yes"/>
      <point x="-215" y="1485"/>
      <point x="-173" y="1438"/>
      <point x="-112" y="1438" type="curve" smooth="yes"/>
      <point x="-34" y="1438"/>
      <point x="42" y="1507"/>
      <point x="42" y="1585" type="curve" smooth="yes"/>
      <point x="42" y="1643"/>
      <point x="1" y="1690"/>
      <point x="-59" y="1690" type="curve" smooth="yes"/>
    </contour>
    <contour>
      <point x="-107" y="666" type="move" name="_class0"/>
    </contour>
  </outline>
</glyph>
<glyph name="visargadeva" format="1">
  <advance width="655.584"/>
  <unicode hex="0903"/>
  <outline>
    <contour>
      <point x="313" y="1039"/>
      <point x="225" y="960"/>
      <point x="225" y="870" type="curve" smooth="yes"/>
      <point x="225" y="803"/>
      <point x="273" y="750"/>
      <point x="342" y="750" type="curve" smooth="yes"/>
      <point x="431" y="750"/>
      <point x="521" y="828"/>
      <point x="521" y="918" type="curve" smooth="yes"/>
      <point x="521" y="986"/>
      <point x="472" y="1039"/>
      <point x="403" y="1039" type="curve" smooth="yes"/>
    </contour>
    <contour>
      <point x="176" y="392"/>
      <point x="90" y="315"/>
      <point x="90" y="224" type="curve" smooth="yes"/>
      <point x="90" y="157"/>
      <point x="137" y="104"/>
      <point x="207" y="104" type="curve" smooth="yes"/>
      <point x="296" y="104"/>
      <point x="385" y="182"/>
      <point x="385" y="272" type="curve" smooth="yes"/>
      <point x="385" y="339"/>
      <point x="336" y="392"/>
      <point x="267" y="392" type="curve" smooth="yes"/>
    </contour>
  </outline>
</glyph>
<glyph name="ideva" format="1">
  <advance width="1096.844"/>
  <unicode hex="0907"/>
  <outline>
    <contour>
      <point x="942" y="835" type="line"/>
      <point x="967" y="855" type="line"/>
      <point x="1026" y="1137" type="line"/>
      <point x="1256" y="1137" type="line"/>
      <point x="1278" y="1160" type="line"/>
      <point x="1260" y="1330" type="line"/>
      <point x="128" y="1330" type="line"/>
      <point x="106" y="1307" type="line"/>
      <point x="124" y="1137" type="line"/>
      <point x="792" y="1137" type="line"/>
      <point x="773" y="1046" type="line" smooth="yes"/>
      <point x="770" y="1033"/>
      <point x="762" y="1026"/>
      <point x="749" y="1026" type="curve" smooth="yes"/>
      <point x="428" y="1026" type="line" smooth="yes"/>
      <point x="253" y="1026"/>
      <point x="169" y="948"/>
      <point x="169" y="843" type="curve" smooth="yes"/>
      <point x="169" y="698"/>
      <point x="316" y="492"/>
      <point x="502" y="492" type="curve" smooth="yes"/>
      <point x="577" y="492"/>
      <point x="684" y="524"/>
      <point x="728" y="524" type="curve" smooth="yes"/>
      <point x="748" y="524"/>
      <point x="763" y="517"/>
      <point x="763" y="494" type="curve" smooth="yes"/>
      <point x="763" y="422"/>
      <point x="647" y="333"/>
      <point x="434" y="330" type="curve"/>
      <point x="398" y="402"/>
      <point x="349" y="447"/>
      <point x="272" y="447" type="curve" smooth="yes"/>
      <point x="179" y="447"/>
      <point x="114" y="385"/>
      <point x="114" y="295" type="curve" smooth="yes"/>
      <point x="114" y="197"/>
      <point x="198" y="107"/>
      <point x="361" y="91" type="curve"/>
      <point x="402" y="-147"/>
      <point x="521" y="-233"/>
      <point x="634" y="-233" type="curve" smooth="yes"/>
      <point x="729" y="-233"/>
      <point x="806" y="-176"/>
      <point x="806" y="-94" type="curve" smooth="yes"/>
      <point x="806" y="-64"/>
      <point x="796" y="-29"/>
      <point x="778" y="3" type="curve"/>
      <point x="740" y="-7"/>
      <point x="704" y="-13"/>
      <point x="663" y="-13" type="curve" smooth="yes"/>
      <point x="584" y="-13"/>
      <point x="542" y="9"/>
      <point x="517" y="91" type="curve"/>
      <point x="815" y="114"/>
      <point x="933" y="263"/>
      <point x="933" y="412" type="curve" smooth="yes"/>
      <point x="933" y="563"/>
      <point x="826" y="735"/>
      <point x="692" y="735" type="curve" smooth="yes"/>
      <point x="625" y="735"/>
      <point x="478" y="694"/>
      <point x="429" y="694" type="curve" smooth="yes"/>
      <point x="395" y="694"/>
      <point x="378" y="716"/>
      <point x="378" y="741" type="curve" smooth="yes"/>
      <point x="378" y="801"/>
      <point x="452" y="835"/>
      <point x="549" y="835" type="curve" smooth="yes"/>
    </contour>
  </outline>
</glyph>
<glyph name="iideva" format="1">
  <advance width="1076"/>
  <unicode hex="0908"/>
  <outline>
    <contour>
      <point x="926" y="835" type="line"/>
      <point x="950" y="855" type="line"/>
      <point x="1006" y="1137" type="line"/>
      <point x="1240" y="1137" type="line"/>
      <point x="1259" y="1160" type="line"/>
      <point x="1238" y="1330" type="line"/>
      <point x="930" y="1324" type="line"/>
      <point x="897" y="1372"/>
      <point x="892" y="1422"/>
      <point x="902" y="1469" type="curve" smooth="yes"/>
      <point x="923" y="1571"/>
      <point x="1015" y="1655"/>
      <point x="1135" y="1655" type="curve" smooth="yes"/>
      <point x="1179" y="1655"/>
      <point x="1238" y="1642"/>
      <point x="1277" y="1588" type="curve"/>
      <point x="1273" y="1592"/>
      <point x="1282" y="1600"/>
      <point x="1283" y="1603" type="curve" smooth="yes"/>
      <point x="1310" y="1730"/>
      <point x="1208" y="1854"/>
      <point x="1022" y="1854" type="curve" smooth="yes"/>
      <point x="857" y="1854"/>
      <point x="743" y="1748"/>
      <point x="713" y="1609" type="curve" smooth="yes"/>
      <point x="693" y="1510"/>
      <point x="719" y="1419"/>
      <point x="788" y="1336" type="curve"/>
      <point x="125" y="1330" type="line"/>
      <point x="106" y="1307" type="line"/>
      <point x="127" y="1137" type="line"/>
      <point x="772" y="1137" type="line"/>
      <point x="754" y="1054" type="line" smooth="yes"/>
      <point x="752" y="1041"/>
      <point x="732" y="1026"/>
      <point x="719" y="1026" type="curve" smooth="yes"/>
      <point x="398" y="1026" type="line" smooth="yes"/>
      <point x="259" y="1026"/>
      <point x="193" y="970"/>
      <point x="176" y="892" type="curve" smooth="yes"/>
      <point x="143" y="735"/>
      <point x="294" y="492"/>
      <point x="508" y="492" type="curve" smooth="yes"/>
      <point x="560" y="492"/>
      <point x="676" y="514"/>
      <point x="725" y="514" type="curve" smooth="yes"/>
      <point x="744" y="514"/>
      <point x="757" y="509"/>
      <point x="751" y="481" type="curve" smooth="yes"/>
      <point x="733" y="398"/>
      <point x="604" y="315"/>
      <point x="406" y="303" type="curve"/>
      <point x="380" y="387"/>
      <point x="326" y="447"/>
      <point x="232" y="447" type="curve" smooth="yes"/>
      <point x="163" y="447"/>
      <point x="115" y="407"/>
      <point x="101" y="340" type="curve" smooth="yes"/>
      <point x="76" y="222"/>
      <point x="167" y="110"/>
      <point x="355" y="99" type="curve"/>
      <point x="377" y="-136"/>
      <point x="485" y="-223"/>
      <point x="598" y="-223" type="curve" smooth="yes"/>
      <point x="674" y="-223"/>
      <point x="741" y="-176"/>
      <point x="757" y="-100" type="curve" smooth="yes"/>
      <point x="765" y="-65"/>
      <point x="760" y="-36"/>
      <point x="742" y="-3" type="curve"/>
      <point x="715" y="-6"/>
      <point x="688" y="-13"/>
      <point x="635" y="-13" type="curve" smooth="yes"/>
      <point x="557" y="-13"/>
      <point x="506" y="4"/>
      <point x="482" y="83" type="curve"/>
      <point x="715" y="103"/>
      <point x="874" y="208"/>
      <point x="904" y="351" type="curve" smooth="yes"/>
      <point x="939" y="518"/>
      <point x="814" y="735"/>
      <point x="650" y="735" type="curve" smooth="yes"/>
      <point x="600" y="735"/>
      <point x="454" y="704"/>
      <point x="403" y="704" type="curve" smooth="yes"/>
      <point x="373" y="704"/>
      <point x="363" y="725"/>
      <point x="369" y="754" type="curve" smooth="yes"/>
      <point x="380" y="803"/>
      <point x="424" y="835"/>
      <point x="539" y="835" type="curve" smooth="yes"/>
    </contour>
  </outline>
</glyph>
<glyph name="udeva" format="1">
  <advance width="1178"/>
  <unicode hex="0909"/>
  <outline>
    <contour>
      <point x="1361" y="1160" type="line"/>
      <point x="1340" y="1330" type="line"/>
      <point x="125" y="1330" type="line"/>
      <point x="106" y="1307" type="line"/>
      <point x="127" y="1137" type="line"/>
      <point x="708" y="1137" type="line" smooth="yes"/>
      <point x="810" y="1137"/>
      <point x="856" y="1097"/>
      <point x="842" y="1028" type="curve" smooth="yes"/>
      <point x="820" y="922"/>
      <point x="687" y="841"/>
      <point x="440" y="828" type="curve"/>
      <point x="430" y="805" type="line"/>
      <point x="493" y="565" type="line"/>
      <point x="598" y="565"/>
      <point x="693" y="578"/>
      <point x="782" y="612" type="curve"/>
      <point x="811" y="576"/>
      <point x="815" y="531"/>
      <point x="804" y="480" type="curve" smooth="yes"/>
      <point x="774" y="337"/>
      <point x="637" y="247"/>
      <point x="495" y="247" type="curve" smooth="yes"/>
      <point x="309" y="247"/>
      <point x="188" y="420"/>
      <point x="202" y="818" type="curve"/>
      <point x="110" y="818"/>
      <point x="88" y="783"/>
      <point x="75" y="722" type="curve" smooth="yes"/>
      <point x="33" y="521"/>
      <point x="121" y="2"/>
      <point x="561" y="2" type="curve" smooth="yes"/>
      <point x="785" y="2"/>
      <point x="952" y="146"/>
      <point x="992" y="337" type="curve" smooth="yes"/>
      <point x="1021" y="475"/>
      <point x="975" y="593"/>
      <point x="905" y="671" type="curve"/>
      <point x="994" y="733"/>
      <point x="1034" y="804"/>
      <point x="1049" y="877" type="curve" smooth="yes"/>
      <point x="1066" y="958"/>
      <point x="1050" y="1040"/>
      <point x="1002" y="1121" type="curve"/>
      <point x="1020" y="1137" type="line"/>
      <point x="1342" y="1137" type="line"/>
    </contour>
  </outline>
</glyph>
<glyph name="uudeva" format="1">
  <advance width="1561"/>
  <unicode hex="090A"/>
  <outline>
    <contour>
      <point x="1725" y="1137" type="line"/>
      <point x="1744" y="1160" type="line"/>
      <point x="1723" y="1330" type="line"/>
      <point x="125" y="1330" type="line"/>
      <point x="106" y="1307" type="line"/>
      <point x="127" y="1137" type="line"/>
      <point x="708" y="1137" type="line" smooth="yes"/>
      <point x="810" y="1137"/>
      <point x="856" y="1097"/>
      <point x="842" y="1028" type="curve" smooth="yes"/>
      <point x="820" y="922"/>
      <point x="687" y="841"/>
      <point x="440" y="828" type="curve"/>
      <point x="430" y="805" type="line"/>
      <point x="493" y="565" type="line"/>
      <point x="598" y="565"/>
      <point x="693" y="578"/>
      <point x="782" y="612" type="curve"/>
      <point x="811" y="576"/>
      <point x="815" y="531"/>
      <point x="804" y="480" type="curve" smooth="yes"/>
      <point x="774" y="337"/>
      <point x="637" y="247"/>
      <point x="495" y="247" type="curve" smooth="yes"/>
      <point x="309" y="247"/>
      <point x="188" y="420"/>
      <point x="202" y="818" type="curve"/>
      <point x="110" y="818"/>
      <point x="88" y="783"/>
      <point x="75" y="722" type="curve" smooth="yes"/>
      <point x="33" y="521"/>
      <point x="121" y="2"/>
      <point x="561" y="2" type="curve" smooth="yes"/>
      <point x="785" y="2"/>
      <point x="952" y="146"/>
      <point x="992" y="337" type="curve" smooth="yes"/>
      <point x="999" y="370"/>
      <point x="1000" y="394"/>
      <point x="1005" y="411" type="curve"/>
      <point x="1107" y="534"/>
      <point x="1201" y="605"/>
      <point x="1267" y="605" type="curve" smooth="yes"/>
      <point x="1294" y="605"/>
      <point x="1306" y="584"/>
      <point x="1293" y="521" type="curve" smooth="yes"/>
      <point x="1265" y="390"/>
      <point x="1150" y="268"/>
      <point x="1025" y="223" type="curve"/>
      <point x="1065" y="122"/>
      <point x="1146" y="56"/>
      <point x="1244" y="56" type="curve" smooth="yes"/>
      <point x="1331" y="56"/>
      <point x="1438" y="159"/>
      <point x="1472" y="322" type="curve" smooth="yes"/>
      <point x="1522" y="560"/>
      <point x="1359" y="789"/>
      <point x="1179" y="789" type="curve" smooth="yes"/>
      <point x="1118" y="789"/>
      <point x="1042" y="757"/>
      <point x="919" y="650" type="curve"/>
      <point x="916" y="655"/>
      <point x="908" y="666"/>
      <point x="905" y="671" type="curve"/>
      <point x="994" y="733"/>
      <point x="1034" y="804"/>
      <point x="1049" y="877" type="curve" smooth="yes"/>
      <point x="1066" y="958"/>
      <point x="1050" y="1040"/>
      <point x="1002" y="1121" type="curve"/>
      <point x="1020" y="1137" type="line"/>
    </contour>
  </outline>
</glyph>
<glyph name="rvocalicdeva" format="1">
  <advance width="1771"/>
  <unicode hex="090B"/>
  <outline>
    <contour>
      <point x="1954" y="1160" type="line"/>
      <point x="1933" y="1330" type="line"/>
      <point x="125" y="1330" type="line"/>
      <point x="106" y="1307" type="line"/>
      <point x="127" y="1137" type="line"/>
      <point x="918" y="1137" type="line"/>
      <point x="840" y="770" type="line"/>
      <point x="820" y="761" type="line"/>
      <point x="607" y="964"/>
      <point x="522" y="1019"/>
      <point x="400" y="1019" type="curve" smooth="yes"/>
      <point x="265" y="1019"/>
      <point x="176" y="939"/>
      <point x="163" y="875" type="curve" smooth="yes"/>
      <point x="146" y="795"/>
      <point x="209" y="727"/>
      <point x="312" y="662" type="curve"/>
      <point x="366" y="724"/>
      <point x="461" y="779"/>
      <point x="544" y="779" type="curve" smooth="yes"/>
      <point x="584" y="779"/>
      <point x="617" y="779"/>
      <point x="739" y="677" type="curve"/>
      <point x="527" y="555"/>
      <point x="344" y="430"/>
      <point x="172" y="301" type="curve"/>
      <point x="177" y="268" type="line"/>
      <point x="343" y="92" type="line"/>
      <point x="472" y="195"/>
      <point x="612" y="297"/>
      <point x="759" y="393" type="curve"/>
      <point x="761" y="393" type="line"/>
      <point x="674" y="-21" type="line"/>
      <point x="887" y="-57" type="line"/>
      <point x="913" y="-39" type="line"/>
      <point x="1035" y="507" type="line"/>
      <point x="1168" y="512"/>
      <point x="1297" y="545"/>
      <point x="1408" y="606" type="curve"/>
      <point x="1445" y="516"/>
      <point x="1443" y="479"/>
      <point x="1434" y="437" type="curve" smooth="yes"/>
      <point x="1415" y="346"/>
      <point x="1293" y="270"/>
      <point x="1175" y="278" type="curve"/>
      <point x="1178" y="160"/>
      <point x="1256" y="76"/>
      <point x="1386" y="76" type="curve" smooth="yes"/>
      <point x="1492" y="76"/>
      <point x="1587" y="167"/>
      <point x="1611" y="278" type="curve" smooth="yes"/>
      <point x="1635" y="394"/>
      <point x="1598" y="501"/>
      <point x="1505" y="663" type="curve"/>
      <point x="1572" y="718"/>
      <point x="1604" y="770"/>
      <point x="1613" y="816" type="curve" smooth="yes"/>
      <point x="1638" y="935"/>
      <point x="1552" y="1055"/>
      <point x="1423" y="1055" type="curve" smooth="yes"/>
      <point x="1323" y="1055"/>
      <point x="1285" y="985"/>
      <point x="1275" y="940" type="curve" smooth="yes"/>
      <point x="1266" y="897"/>
      <point x="1274" y="862"/>
      <point x="1288" y="818" type="curve"/>
      <point x="1213" y="771"/>
      <point x="1139" y="741"/>
      <point x="1061" y="726" type="curve"/>
      <point x="1158" y="1137" type="line"/>
      <point x="1935" y="1137" type="line"/>
    </contour>
  </outline>
</glyph>
<glyph name="lvocalicdeva" format="1">
  <advance width="1491.844"/>
  <unicode hex="090C"/>
  <outline>
    <contour>
      <point x="1655" y="1330" type="line"/>
      <point x="128" y="1330" type="line"/>
      <point x="106" y="1307" type="line"/>
      <point x="124" y="1137" type="line"/>
      <point x="1048" y="1137" type="line"/>
      <point x="998" y="900" type="line"/>
      <point x="922" y="883"/>
      <point x="839" y="840"/>
      <point x="760" y="770" type="curve"/>
      <point x="666" y="881"/>
      <point x="570" y="924"/>
      <point x="465" y="924" type="curve" smooth="yes"/>
      <point x="252" y="924"/>
      <point x="107" y="761"/>
      <point x="107" y="533" type="curve" smooth="yes"/>
      <point x="107" y="260"/>
      <point x="293" y="-48"/>
      <point x="436" y="-48" type="curve" smooth="yes"/>
      <point x="487" y="-48"/>
      <point x="526" y="-12"/>
      <point x="543" y="34" type="curve"/>
      <point x="398" y="152"/>
      <point x="324" y="326"/>
      <point x="324" y="459" type="curve" smooth="yes"/>
      <point x="324" y="599"/>
      <point x="420" y="708"/>
      <point x="539" y="708" type="curve" smooth="yes"/>
      <point x="579" y="708"/>
      <point x="622" y="695"/>
      <point x="661" y="666" type="curve"/>
      <point x="627" y="624"/>
      <point x="594" y="576"/>
      <point x="563" y="522" type="curve"/>
      <point x="736" y="385" type="line"/>
      <point x="765" y="394" type="line"/>
      <point x="901" y="607"/>
      <point x="1046" y="691"/>
      <point x="1143" y="691" type="curve" smooth="yes"/>
      <point x="1186" y="691"/>
      <point x="1214" y="673"/>
      <point x="1214" y="629" type="curve" smooth="yes"/>
      <point x="1214" y="549"/>
      <point x="1131" y="462"/>
      <point x="993" y="333" type="curve" smooth="yes"/>
      <point x="907" y="253"/>
      <point x="769" y="140"/>
      <point x="769" y="24" type="curve" smooth="yes"/>
      <point x="769" y="-108"/>
      <point x="912" y="-250"/>
      <point x="1088" y="-250" type="curve" smooth="yes"/>
      <point x="1237" y="-250"/>
      <point x="1365" y="-157"/>
      <point x="1365" y="-68" type="curve" smooth="yes"/>
      <point x="1365" y="-9"/>
      <point x="1317" y="62"/>
      <point x="1234" y="87" type="curve"/>
      <point x="1158" y="-11"/>
      <point x="1044" y="-54"/>
      <point x="993" y="-54" type="curve" smooth="yes"/>
      <point x="968" y="-54"/>
      <point x="956" y="-42"/>
      <point x="956" y="-24" type="curve" smooth="yes"/>
      <point x="956" y="32"/>
      <point x="1035" y="62"/>
      <point x="1208" y="230" type="curve" smooth="yes"/>
      <point x="1327" y="346"/>
      <point x="1395" y="411"/>
      <point x="1395" y="565" type="curve" smooth="yes"/>
      <point x="1395" y="703"/>
      <point x="1324" y="821"/>
      <point x="1223" y="874" type="curve"/>
      <point x="1278" y="1137" type="line"/>
      <point x="1651" y="1137" type="line"/>
      <point x="1673" y="1160" type="line"/>
    </contour>
  </outline>
</glyph>
<glyph name="ecandradeva" format="1">
  <advance width="1206"/>
  <unicode hex="090D"/>
  <outline>
    <contour>
      <point x="520" y="1893"/>
      <point x="498" y="1884"/>
      <point x="486" y="1825" type="curve" smooth="yes"/>
      <point x="456" y="1681"/>
      <point x="539" y="1446"/>
      <point x="812" y="1446" type="curve" smooth="yes"/>
      <point x="995" y="1446"/>
      <point x="1138" y="1561"/>
      <point x="1169" y="1706" type="curve" smooth="yes"/>
      <point x="1190" y="1806"/>
      <point x="1150" y="1870"/>
      <point x="1067" y="1911" type="curve"/>
      <point x="1014" y="1724"/>
      <point x="898" y="1629"/>
      <point x="758" y="1629" type="curve" smooth="yes"/>
      <point x="638" y="1629"/>
      <point x="581" y="1709"/>
      <point x="557" y="1897" type="curve"/>
    </contour>
    <contour>
      <point x="1389" y="1160" type="line"/>
      <point x="1368" y="1330" type="line"/>
      <point x="125" y="1330" type="line"/>
      <point x="106" y="1307" type="line"/>
      <point x="127" y="1137" type="line"/>
      <point x="247" y="1137" type="line"/>
      <point x="171" y="775" type="line" smooth="yes"/>
      <point x="116" y="515"/>
      <point x="257" y="440"/>
      <point x="641" y="252" type="curve" smooth="yes"/>
      <point x="813" y="156"/>
      <point x="812" y="136"/>
      <point x="802" y="91" type="curve" smooth="yes"/>
      <point x="789" y="27"/>
      <point x="725" y="-31"/>
      <point x="625" y="-69" type="curve"/>
      <point x="659" y="-155"/>
      <point x="725" y="-215"/>
      <point x="825" y="-215" type="curve" smooth="yes"/>
      <point x="917" y="-215"/>
      <point x="987" y="-156"/>
      <point x="1009" y="-54" type="curve" smooth="yes"/>
      <point x="1047" y="125"/>
      <point x="894" y="239"/>
      <point x="665" y="369" type="curve" smooth="yes"/>
      <point x="402" y="539"/>
      <point x="359" y="532"/>
      <point x="383" y="643" type="curve" smooth="yes"/>
      <point x="488" y="1137" type="line"/>
      <point x="872" y="1137" type="line"/>
      <point x="799" y="789" type="line" smooth="yes"/>
      <point x="784" y="719"/>
      <point x="722" y="652"/>
      <point x="644" y="630" type="curve"/>
      <point x="698" y="546"/>
      <point x="759" y="484"/>
      <point x="851" y="484" type="curve" smooth="yes"/>
      <point x="928" y="484"/>
      <point x="986" y="539"/>
      <point x="1007" y="639" type="curve" smooth="yes"/>
      <point x="1112" y="1137" type="line"/>
      <point x="1370" y="1137" type="line"/>
    </contour>
  </outline>
</glyph>
<glyph name="eshortdeva" format="1">
  <advance width="1206"/>
  <unicode hex="090E"/>
  <outline>
    <contour>
      <point x="691" y="540"/>
      <point x="749" y="484"/>
      <point x="831" y="484" type="curve" smooth="yes"/>
      <point x="918" y="484"/>
      <point x="987" y="547"/>
      <point x="1008" y="647" type="curve" smooth="yes"/>
      <point x="1111" y="1137" type="line"/>
      <point x="1365" y="1137" type="line"/>
      <point x="1387" y="1160" type="line"/>
      <point x="1370" y="1330" type="line"/>
      <point x="1131" y="1330" type="line"/>
      <point x="1095" y="1559"/>
      <point x="960" y="1695"/>
      <point x="684" y="1740" type="curve" smooth="yes"/>
      <point x="377" y="1790"/>
      <point x="288" y="1834"/>
      <point x="233" y="1956" type="curve"/>
      <point x="198" y="1922"/>
      <point x="168" y="1896"/>
      <point x="168" y="1814" type="curve" smooth="yes"/>
      <point x="168" y="1664"/>
      <point x="326" y="1519"/>
      <point x="733" y="1494" type="curve" smooth="yes"/>
      <point x="898" y="1484"/>
      <point x="949" y="1464"/>
      <point x="949" y="1417" type="curve" smooth="yes"/>
      <point x="949" y="1397"/>
      <point x="938" y="1367"/>
      <point x="917" y="1330" type="curve"/>
      <point x="128" y="1330" type="line"/>
      <point x="106" y="1307" type="line"/>
      <point x="123" y="1137" type="line"/>
      <point x="246" y="1137" type="line"/>
      <point x="169" y="767" type="line" smooth="yes"/>
      <point x="114" y="507"/>
      <point x="247" y="437"/>
      <point x="622" y="245" type="curve" smooth="yes"/>
      <point x="770" y="169"/>
      <point x="803" y="137"/>
      <point x="803" y="97" type="curve" smooth="yes"/>
      <point x="803" y="41"/>
      <point x="776" y="-15"/>
      <point x="627" y="-79" type="curve"/>
      <point x="652" y="-175"/>
      <point x="715" y="-238"/>
      <point x="795" y="-238" type="curve" smooth="yes"/>
      <point x="905" y="-238"/>
      <point x="1019" y="-126"/>
      <point x="1019" y="5" type="curve" smooth="yes"/>
      <point x="1019" y="148"/>
      <point x="882" y="256"/>
      <point x="684" y="377" type="curve" smooth="yes"/>
      <point x="412" y="543"/>
      <point x="361" y="540"/>
      <point x="384" y="651" type="curve" smooth="yes"/>
      <point x="487" y="1137" type="line"/>
      <point x="871" y="1137" type="line"/>
      <point x="797" y="781" type="line" smooth="yes"/>
      <point x="782" y="711"/>
      <point x="730" y="649"/>
      <point x="645" y="621" type="curve"/>
    </contour>
  </outline>
</glyph>
<glyph name="edeva" format="1">
  <advance width="1206.844"/>
  <unicode hex="090F"/>
  <outline>
    <contour>
      <point x="1370" y="1330" type="line"/>
      <point x="128" y="1330" type="line"/>
      <point x="106" y="1307" type="line"/>
      <point x="124" y="1137" type="line"/>
      <point x="247" y="1137" type="line"/>
      <point x="169" y="767" type="line" smooth="yes"/>
      <point x="115" y="507"/>
      <point x="249" y="437"/>
      <point x="623" y="245" type="curve" smooth="yes"/>
      <point x="771" y="169"/>
      <point x="804" y="137"/>
      <point x="804" y="97" type="curve" smooth="yes"/>
      <point x="804" y="41"/>
      <point x="777" y="-15"/>
      <point x="628" y="-79" type="curve"/>
      <point x="653" y="-175"/>
      <point x="715" y="-238"/>
      <point x="795" y="-238" type="curve" smooth="yes"/>
      <point x="905" y="-238"/>
      <point x="1019" y="-126"/>
      <point x="1019" y="5" type="curve" smooth="yes"/>
      <point x="1019" y="148"/>
      <point x="882" y="256"/>
      <point x="684" y="377" type="curve" smooth="yes"/>
      <point x="412" y="543"/>
      <point x="362" y="540"/>
      <point x="385" y="651" type="curve" smooth="yes"/>
      <point x="488" y="1137" type="line"/>
      <point x="872" y="1137" type="line"/>
      <point x="797" y="781" type="line" smooth="yes"/>
      <point x="782" y="711"/>
      <point x="730" y="649"/>
      <point x="646" y="621" type="curve"/>
      <point x="692" y="540"/>
      <point x="750" y="484"/>
      <point x="832" y="484" type="curve" smooth="yes"/>
      <point x="919" y="484"/>
      <point x="988" y="547"/>
      <point x="1009" y="647" type="curve" smooth="yes"/>
      <point x="1112" y="1137" type="line"/>
      <point x="1366" y="1137" type="line"/>
      <point x="1388" y="1160" type="line"/>
    </contour>
  </outline>
</glyph>
<glyph name="aideva" format="1">
  <advance width="1206"/>
  <unicode hex="0910"/>
  <outline>
    <contour>
      <point x="698" y="546"/>
      <point x="759" y="484"/>
      <point x="851" y="484" type="curve" smooth="yes"/>
      <point x="928" y="484"/>
      <point x="986" y="539"/>
      <point x="1007" y="639" type="curve" smooth="yes"/>
      <point x="1112" y="1137" type="line"/>
      <point x="1370" y="1137" type="line"/>
      <point x="1389" y="1160" type="line"/>
      <point x="1368" y="1330" type="line"/>
      <point x="1070" y="1324" type="line"/>
      <point x="809" y="1789"/>
      <point x="658" y="1932"/>
      <point x="467" y="1932" type="curve" smooth="yes"/>
      <point x="346" y="1932"/>
      <point x="288" y="1869"/>
      <point x="276" y="1809" type="curve" smooth="yes"/>
      <point x="257" y="1719"/>
      <point x="327" y="1626"/>
      <point x="441" y="1583" type="curve"/>
      <point x="466" y="1620"/>
      <point x="527" y="1658"/>
      <point x="603" y="1658" type="curve" smooth="yes"/>
      <point x="685" y="1658"/>
      <point x="750" y="1613"/>
      <point x="917" y="1336" type="curve"/>
      <point x="125" y="1330" type="line"/>
      <point x="106" y="1307" type="line"/>
      <point x="127" y="1137" type="line"/>
      <point x="247" y="1137" type="line"/>
      <point x="171" y="775" type="line" smooth="yes"/>
      <point x="116" y="515"/>
      <point x="257" y="440"/>
      <point x="641" y="252" type="curve" smooth="yes"/>
      <point x="813" y="156"/>
      <point x="812" y="136"/>
      <point x="802" y="91" type="curve" smooth="yes"/>
      <point x="789" y="27"/>
      <point x="725" y="-31"/>
      <point x="625" y="-69" type="curve"/>
      <point x="659" y="-155"/>
      <point x="725" y="-215"/>
      <point x="825" y="-215" type="curve" smooth="yes"/>
      <point x="917" y="-215"/>
      <point x="987" y="-156"/>
      <point x="1009" y="-54" type="curve" smooth="yes"/>
      <point x="1047" y="125"/>
      <point x="894" y="239"/>
      <point x="665" y="369" type="curve" smooth="yes"/>
      <point x="402" y="539"/>
      <point x="359" y="532"/>
      <point x="383" y="643" type="curve" smooth="yes"/>
      <point x="488" y="1137" type="line"/>
      <point x="872" y="1137" type="line"/>
      <point x="799" y="789" type="line" smooth="yes"/>
      <point x="784" y="719"/>
      <point x="722" y="652"/>
      <point x="644" y="630" type="curve"/>
    </contour>
  </outline>
</glyph>
<glyph name="khadeva" format="1">
  <advance width="1696"/>
  <unicode hex="0916"/>
  <outline>
    <contour>
      <point x="1879" y="1160" type="line"/>
      <point x="1858" y="1330" type="line"/>
      <point x="125" y="1330" type="line"/>
      <point x="106" y="1307" type="line"/>
      <point x="127" y="1137" type="line"/>
      <point x="468" y="1144" type="line"/>
      <point x="482" y="1065"/>
      <point x="476" y="988"/>
      <point x="462" y="926" type="curve" smooth="yes"/>
      <point x="446" y="850"/>
      <point x="416" y="796"/>
      <point x="367" y="755" type="curve"/>
      <point x="328" y="768"/>
      <point x="285" y="779"/>
      <point x="237" y="779" type="curve" smooth="yes"/>
      <point x="164" y="779"/>
      <point x="120" y="746"/>
      <point x="103" y="668" type="curve" smooth="yes"/>
      <point x="44" y="386"/>
      <point x="447" y="-54"/>
      <point x="770" y="-54" type="curve" smooth="yes"/>
      <point x="876" y="-54"/>
      <point x="932" y="-3"/>
      <point x="958" y="87" type="curve"/>
      <point x="651" y="134"/>
      <point x="441" y="245"/>
      <point x="327" y="425" type="curve"/>
      <point x="533" y="488"/>
      <point x="612" y="622"/>
      <point x="641" y="760" type="curve" smooth="yes"/>
      <point x="668" y="885"/>
      <point x="651" y="1007"/>
      <point x="623" y="1121" type="curve"/>
      <point x="640" y="1137" type="line"/>
      <point x="1372" y="1137" type="line"/>
      <point x="1318" y="887" type="line"/>
      <point x="1298" y="877" type="line"/>
      <point x="1247" y="941"/>
      <point x="1157" y="986"/>
      <point x="1047" y="986" type="curve" smooth="yes"/>
      <point x="888" y="986"/>
      <point x="758" y="881"/>
      <point x="724" y="719" type="curve" smooth="yes"/>
      <point x="673" y="477"/>
      <point x="858" y="256"/>
      <point x="1085" y="256" type="curve" smooth="yes"/>
      <point x="1111" y="256"/>
      <point x="1149" y="259"/>
      <point x="1190" y="272" type="curve"/>
      <point x="1189" y="268" type="line"/>
      <point x="1128" y="-21" type="line"/>
      <point x="1341" y="-57" type="line"/>
      <point x="1367" y="-39" type="line"/>
      <point x="1612" y="1137" type="line"/>
      <point x="1860" y="1137" type="line"/>
    </contour>
    <contour>
      <point x="1236" y="784"/>
      <point x="1281" y="707"/>
      <point x="1263" y="619" type="curve" smooth="yes"/>
      <point x="1261" y="612" type="line" smooth="yes"/>
      <point x="1242" y="519"/>
      <point x="1144" y="448"/>
      <point x="1035" y="448" type="curve" smooth="yes"/>
      <point x="934" y="448"/>
      <point x="889" y="520"/>
      <point x="907" y="604" type="curve" smooth="yes"/>
      <point x="927" y="701"/>
      <point x="1021" y="784"/>
      <point x="1135" y="784" type="curve" smooth="yes"/>
    </contour>
  </outline>
</glyph>
<glyph name="gadeva" format="1">
  <advance width="1300.844"/>
  <unicode hex="0917"/>
  <outline>
    <contour>
      <point x="1465" y="1330" type="line"/>
      <point x="128" y="1330" type="line"/>
      <point x="106" y="1307" type="line"/>
      <point x="123" y="1137" type="line"/>
      <point x="407" y="1137" type="line"/>
      <point x="311" y="676" type="line"/>
      <point x="196" y="676" type="line" smooth="yes"/>
      <point x="116" y="676"/>
      <point x="81" y="639"/>
      <point x="81" y="594" type="curve" smooth="yes"/>
      <point x="81" y="497"/>
      <point x="214" y="303"/>
      <point x="353" y="303" type="curve" smooth="yes"/>
      <point x="434" y="303"/>
      <point x="481" y="366"/>
      <point x="512" y="514" type="curve" smooth="yes"/>
      <point x="642" y="1137" type="line"/>
      <point x="997" y="1137" type="line"/>
      <point x="754" y="-21" type="line"/>
      <point x="965" y="-57" type="line"/>
      <point x="991" y="-39" type="line"/>
      <point x="1237" y="1137" type="line"/>
      <point x="1460" y="1137" type="line"/>
      <point x="1482" y="1160" type="line"/>
    </contour>
  </outline>
</glyph>
<glyph name="ghadeva" format="1">
  <advance width="1321"/>
  <unicode hex="0918"/>
  <outline>
    <contour>
      <point x="1504" y="1160" type="line"/>
      <point x="1483" y="1330" type="line"/>
      <point x="125" y="1330" type="line"/>
      <point x="106" y="1307" type="line"/>
      <point x="127" y="1137" type="line"/>
      <point x="228" y="1137" type="line"/>
      <point x="227" y="1135" type="line"/>
      <point x="214" y="1114"/>
      <point x="211" y="1095"/>
      <point x="207" y="1077" type="curve" smooth="yes"/>
      <point x="177" y="933"/>
      <point x="240" y="819"/>
      <point x="347" y="737" type="curve"/>
      <point x="296" y="682"/>
      <point x="275" y="626"/>
      <point x="266" y="580" type="curve" smooth="yes"/>
      <point x="224" y="382"/>
      <point x="377" y="171"/>
      <point x="643" y="171" type="curve" smooth="yes"/>
      <point x="693" y="171"/>
      <point x="759" y="179"/>
      <point x="820" y="199" type="curve"/>
      <point x="820" y="196" type="line"/>
      <point x="774" y="-21" type="line"/>
      <point x="987" y="-57" type="line"/>
      <point x="1013" y="-39" type="line"/>
      <point x="1258" y="1137" type="line"/>
      <point x="1485" y="1137" type="line"/>
    </contour>
    <contour>
      <point x="1018" y="1137" type="line"/>
      <point x="911" y="628" type="line" smooth="yes"/>
      <point x="870" y="460"/>
      <point x="686" y="371"/>
      <point x="551" y="371" type="curve" smooth="yes"/>
      <point x="476" y="371"/>
      <point x="430" y="401"/>
      <point x="443" y="464" type="curve" smooth="yes"/>
      <point x="463" y="560"/>
      <point x="592" y="660"/>
      <point x="801" y="711" type="curve"/>
      <point x="801" y="740" type="line"/>
      <point x="651" y="920" type="line"/>
      <point x="573" y="902"/>
      <point x="503" y="872"/>
      <point x="433" y="823" type="curve"/>
      <point x="408" y="857"/>
      <point x="405" y="896"/>
      <point x="413" y="934" type="curve" smooth="yes"/>
      <point x="435" y="1039"/>
      <point x="547" y="1137"/>
      <point x="678" y="1137" type="curve" smooth="yes"/>
    </contour>
  </outline>
</glyph>
<glyph name="cadeva" format="1">
  <advance width="1381.844"/>
  <unicode hex="091A"/>
  <outline>
    <contour>
      <point x="1545" y="1330" type="line"/>
      <point x="128" y="1330" type="line"/>
      <point x="106" y="1307" type="line"/>
      <point x="124" y="1137" type="line"/>
      <point x="1078" y="1137" type="line"/>
      <point x="978" y="660" type="line" smooth="yes"/>
      <point x="947" y="513"/>
      <point x="773" y="383"/>
      <point x="618" y="383" type="curve" smooth="yes"/>
      <point x="529" y="383"/>
      <point x="482" y="429"/>
      <point x="482" y="497" type="curve" smooth="yes"/>
      <point x="482" y="626"/>
      <point x="637" y="760"/>
      <point x="846" y="760" type="curve" smooth="yes"/>
      <point x="877" y="760" type="line"/>
      <point x="899" y="783" type="line"/>
      <point x="881" y="953" type="line"/>
      <point x="167" y="953" type="line"/>
      <point x="145" y="930" type="line"/>
      <point x="163" y="760" type="line"/>
      <point x="361" y="760" type="line"/>
      <point x="302" y="675"/>
      <point x="286" y="629"/>
      <point x="286" y="559" type="curve" smooth="yes"/>
      <point x="286" y="376"/>
      <point x="434" y="201"/>
      <point x="675" y="201" type="curve" smooth="yes"/>
      <point x="737" y="201"/>
      <point x="809" y="212"/>
      <point x="889" y="237" type="curve"/>
      <point x="835" y="-21" type="line"/>
      <point x="1045" y="-57" type="line"/>
      <point x="1071" y="-39" type="line"/>
      <point x="1318" y="1137" type="line"/>
      <point x="1541" y="1137" type="line"/>
      <point x="1563" y="1160" type="line"/>
    </contour>
  </outline>
</glyph>
<glyph name="chadeva" format="1">
  <advance width="1431.844"/>
  <unicode hex="091B"/>
  <outline>
    <contour>
      <point x="1266" y="1137" type="line"/>
      <point x="1591" y="1137" type="line"/>
      <point x="1613" y="1160" type="line"/>
      <point x="1595" y="1330" type="line"/>
      <point x="128" y="1330" type="line"/>
      <point x="106" y="1307" type="line"/>
      <point x="124" y="1137" type="line"/>
      <point x="1046" y="1137" type="line"/>
      <point x="1026" y="1045" type="line"/>
      <point x="918" y="1021"/>
      <point x="830" y="934"/>
      <point x="830" y="788" type="curve" smooth="yes"/>
      <point x="830" y="683"/>
      <point x="882" y="567"/>
      <point x="1001" y="452" type="curve"/>
      <point x="874" y="307"/>
      <point x="700" y="198"/>
      <point x="555" y="198" type="curve" smooth="yes"/>
      <point x="468" y="198"/>
      <point x="429" y="242"/>
      <point x="429" y="294" type="curve" smooth="yes"/>
      <point x="429" y="385"/>
      <point x="534" y="476"/>
      <point x="736" y="506" type="curve"/>
      <point x="751" y="532" type="line"/>
      <point x="620" y="708" type="line"/>
      <point x="540" y="701"/>
      <point x="467" y="675"/>
      <point x="408" y="638" type="curve"/>
      <point x="380" y="658"/>
      <point x="367" y="683"/>
      <point x="367" y="708" type="curve" smooth="yes"/>
      <point x="367" y="788"/>
      <point x="469" y="857"/>
      <point x="669" y="857" type="curve"/>
      <point x="646" y="1020"/>
      <point x="583" y="1057"/>
      <point x="487" y="1057" type="curve" smooth="yes"/>
      <point x="325" y="1057"/>
      <point x="172" y="956"/>
      <point x="172" y="791" type="curve" smooth="yes"/>
      <point x="172" y="697"/>
      <point x="222" y="603"/>
      <point x="307" y="551" type="curve"/>
      <point x="258" y="495"/>
      <point x="236" y="439"/>
      <point x="236" y="371" type="curve" smooth="yes"/>
      <point x="236" y="180"/>
      <point x="412" y="11"/>
      <point x="639" y="11" type="curve" smooth="yes"/>
      <point x="990" y="11"/>
      <point x="1342" y="378"/>
      <point x="1342" y="712" type="curve" smooth="yes"/>
      <point x="1342" y="838"/>
      <point x="1296" y="936"/>
      <point x="1235" y="990" type="curve"/>
    </contour>
    <contour>
      <point x="1031" y="614"/>
      <point x="1012" y="668"/>
      <point x="1012" y="714" type="curve" smooth="yes"/>
      <point x="1012" y="798"/>
      <point x="1074" y="872"/>
      <point x="1138" y="872" type="curve" smooth="yes"/>
      <point x="1172" y="872"/>
      <point x="1183" y="844"/>
      <point x="1183" y="811" type="curve" smooth="yes"/>
      <point x="1183" y="742"/>
      <point x="1144" y="654"/>
      <point x="1083" y="560" type="curve"/>
    </contour>
  </outline>
</glyph>
<glyph name="jhadeva" format="1">
  <advance width="1560"/>
  <unicode hex="091D"/>
  <outline>
    <contour>
      <point x="1743" y="1160" type="line"/>
      <point x="1722" y="1330" type="line"/>
      <point x="125" y="1330" type="line"/>
      <point x="106" y="1307" type="line"/>
      <point x="127" y="1137" type="line"/>
      <point x="742" y="1137" type="line"/>
      <point x="724" y="1054" type="line" smooth="yes"/>
      <point x="722" y="1041"/>
      <point x="702" y="1026"/>
      <point x="689" y="1026" type="curve" smooth="yes"/>
      <point x="398" y="1026" type="line" smooth="yes"/>
      <point x="259" y="1026"/>
      <point x="193" y="970"/>
      <point x="176" y="892" type="curve" smooth="yes"/>
      <point x="143" y="735"/>
      <point x="294" y="492"/>
      <point x="508" y="492" type="curve" smooth="yes"/>
      <point x="560" y="492"/>
      <point x="677" y="514"/>
      <point x="725" y="514" type="curve" smooth="yes"/>
      <point x="746" y="514"/>
      <point x="756" y="507"/>
      <point x="751" y="482" type="curve" smooth="yes"/>
      <point x="734" y="404"/>
      <point x="611" y="326"/>
      <point x="408" y="313" type="curve"/>
      <point x="383" y="397"/>
      <point x="328" y="457"/>
      <point x="234" y="457" type="curve" smooth="yes"/>
      <point x="165" y="457"/>
      <point x="117" y="417"/>
      <point x="103" y="350" type="curve" smooth="yes"/>
      <point x="78" y="232"/>
      <point x="170" y="120"/>
      <point x="357" y="109" type="curve"/>
      <point x="379" y="-125"/>
      <point x="487" y="-213"/>
      <point x="600" y="-213" type="curve" smooth="yes"/>
      <point x="676" y="-213"/>
      <point x="743" y="-166"/>
      <point x="759" y="-90" type="curve" smooth="yes"/>
      <point x="767" y="-55"/>
      <point x="762" y="-26"/>
      <point x="744" y="7" type="curve"/>
      <point x="717" y="4"/>
      <point x="690" y="-3"/>
      <point x="637" y="-3" type="curve" smooth="yes"/>
      <point x="560" y="-3"/>
      <point x="508" y="14"/>
      <point x="484" y="93" type="curve"/>
      <point x="710" y="112"/>
      <point x="874" y="209"/>
      <point x="904" y="350" type="curve" smooth="yes"/>
      <point x="914" y="398"/>
      <point x="909" y="446"/>
      <point x="899" y="491" type="curve"/>
      <point x="926" y="508" type="line"/>
      <point x="971" y="487"/>
      <point x="1021" y="473"/>
      <point x="1080" y="473" type="curve" smooth="yes"/>
      <point x="1090" y="473"/>
      <point x="1110" y="474"/>
      <point x="1127" y="477" type="curve"/>
      <point x="1012" y="-21" type="line"/>
      <point x="1225" y="-57" type="line"/>
      <point x="1251" y="-39" type="line"/>
      <point x="1496" y="1137" type="line"/>
      <point x="1724" y="1137" type="line"/>
    </contour>
    <contour>
      <point x="976" y="1137" type="line"/>
      <point x="1256" y="1137" type="line"/>
      <point x="1201" y="875" type="line" smooth="yes"/>
      <point x="1172" y="738"/>
      <point x="1047" y="656"/>
      <point x="910" y="656" type="curve" smooth="yes"/>
      <point x="881" y="656"/>
      <point x="837" y="660"/>
      <point x="783" y="673" type="curve"/>
      <point x="755" y="709"/>
      <point x="708" y="735"/>
      <point x="650" y="735" type="curve" smooth="yes"/>
      <point x="600" y="735"/>
      <point x="454" y="704"/>
      <point x="403" y="704" type="curve" smooth="yes"/>
      <point x="373" y="704"/>
      <point x="363" y="725"/>
      <point x="369" y="754" type="curve" smooth="yes"/>
      <point x="380" y="803"/>
      <point x="424" y="835"/>
      <point x="539" y="835" type="curve" smooth="yes"/>
      <point x="896" y="835" type="line"/>
      <point x="920" y="855" type="line"/>
    </contour>
  </outline>
</glyph>
<glyph name="nyadeva" format="1">
  <advance width="1601"/>
  <unicode hex="091E"/>
  <outline>
    <contour>
      <point x="1784" y="1160" type="line"/>
      <point x="1763" y="1330" type="line"/>
      <point x="125" y="1330" type="line"/>
      <point x="106" y="1307" type="line"/>
      <point x="127" y="1137" type="line"/>
      <point x="1298" y="1137" type="line"/>
      <point x="1220" y="765" type="line" smooth="yes"/>
      <point x="1196" y="655"/>
      <point x="1100" y="616"/>
      <point x="1022" y="616" type="curve" smooth="yes"/>
      <point x="1012" y="616"/>
      <point x="995" y="616"/>
      <point x="975" y="615" type="curve"/>
      <point x="954" y="808"/>
      <point x="794" y="964"/>
      <point x="603" y="964" type="curve" smooth="yes"/>
      <point x="481" y="964"/>
      <point x="403" y="893"/>
      <point x="389" y="826" type="curve" smooth="yes"/>
      <point x="372" y="743"/>
      <point x="421" y="657"/>
      <point x="542" y="627" type="curve"/>
      <point x="585" y="692"/>
      <point x="655" y="737"/>
      <point x="736" y="737" type="curve" smooth="yes"/>
      <point x="798" y="737"/>
      <point x="828" y="705"/>
      <point x="808" y="613" type="curve" smooth="yes"/>
      <point x="779" y="471"/>
      <point x="656" y="337"/>
      <point x="481" y="337" type="curve" smooth="yes"/>
      <point x="309" y="337"/>
      <point x="224" y="482"/>
      <point x="228" y="821" type="curve"/>
      <point x="151" y="829"/>
      <point x="133" y="795"/>
      <point x="119" y="729" type="curve" smooth="yes"/>
      <point x="72" y="504"/>
      <point x="185" y="115"/>
      <point x="571" y="115" type="curve" smooth="yes"/>
      <point x="796" y="115"/>
      <point x="933" y="257"/>
      <point x="980" y="433" type="curve"/>
      <point x="1003" y="451" type="line"/>
      <point x="1042" y="418"/>
      <point x="1091" y="393"/>
      <point x="1148" y="393" type="curve" smooth="yes"/>
      <point x="1141" y="393" type="line"/>
      <point x="1054" y="-21" type="line"/>
      <point x="1267" y="-57" type="line"/>
      <point x="1293" y="-39" type="line"/>
      <point x="1538" y="1137" type="line"/>
      <point x="1765" y="1137" type="line"/>
    </contour>
  </outline>
</glyph>
<glyph name="ttadeva" format="1">
  <advance width="1067.844"/>
  <unicode hex="091F"/>
  <outline>
    <contour>
      <point x="1232" y="1330" type="line"/>
      <point x="128" y="1330" type="line"/>
      <point x="106" y="1307" type="line"/>
      <point x="123" y="1137" type="line"/>
      <point x="761" y="1137" type="line"/>
      <point x="730" y="987" type="line" smooth="yes"/>
      <point x="727" y="974"/>
      <point x="718" y="967"/>
      <point x="705" y="967" type="curve" smooth="yes"/>
      <point x="594" y="967" type="line" smooth="yes"/>
      <point x="260" y="967"/>
      <point x="49" y="765"/>
      <point x="49" y="512" type="curve" smooth="yes"/>
      <point x="49" y="257"/>
      <point x="267" y="31"/>
      <point x="546" y="31" type="curve" smooth="yes"/>
      <point x="762" y="31"/>
      <point x="948" y="155"/>
      <point x="948" y="285" type="curve" smooth="yes"/>
      <point x="948" y="358"/>
      <point x="894" y="418"/>
      <point x="827" y="435" type="curve"/>
      <point x="753" y="316"/>
      <point x="595" y="232"/>
      <point x="456" y="232" type="curve" smooth="yes"/>
      <point x="337" y="232"/>
      <point x="254" y="298"/>
      <point x="254" y="416" type="curve" smooth="yes"/>
      <point x="254" y="601"/>
      <point x="429" y="759"/>
      <point x="687" y="759" type="curve" smooth="yes"/>
      <point x="896" y="759" type="line"/>
      <point x="920" y="779" type="line"/>
      <point x="995" y="1137" type="line"/>
      <point x="1227" y="1137" type="line"/>
      <point x="1249" y="1160" type="line"/>
    </contour>
  </outline>
</glyph>
<glyph name="tthadeva" format="1">
  <advance width="1198"/>
  <unicode hex="0920"/>
  <outline>
    <contour>
      <point x="1381" y="1160" type="line"/>
      <point x="1360" y="1330" type="line"/>
      <point x="125" y="1330" type="line"/>
      <point x="106" y="1307" type="line"/>
      <point x="127" y="1137" type="line"/>
      <point x="742" y="1137" type="line"/>
      <point x="712" y="994" type="line" smooth="yes"/>
      <point x="709" y="981"/>
      <point x="689" y="966"/>
      <point x="676" y="966" type="curve" smooth="yes"/>
      <point x="571" y="966" type="line" smooth="yes"/>
      <point x="305" y="966"/>
      <point x="122" y="808"/>
      <point x="76" y="594" type="curve" smooth="yes"/>
      <point x="12" y="286"/>
      <point x="257" y="21"/>
      <point x="580" y="21" type="curve" smooth="yes"/>
      <point x="820" y="21"/>
      <point x="1017" y="178"/>
      <point x="1064" y="401" type="curve" smooth="yes"/>
      <point x="1102" y="580"/>
      <point x="1024" y="738"/>
      <point x="906" y="841" type="curve"/>
      <point x="976" y="1137" type="line"/>
      <point x="1362" y="1137" type="line"/>
    </contour>
    <contour>
      <point x="810" y="759"/>
      <point x="901" y="687"/>
      <point x="870" y="541" type="curve" smooth="yes"/>
      <point x="832" y="360"/>
      <point x="631" y="212"/>
      <point x="448" y="212" type="curve" smooth="yes"/>
      <point x="324" y="212"/>
      <point x="234" y="288"/>
      <point x="267" y="443" type="curve" smooth="yes"/>
      <point x="304" y="618"/>
      <point x="483" y="761"/>
      <point x="685" y="760" type="curve" smooth="yes"/>
    </contour>
  </outline>
</glyph>
<glyph name="ddadeva" format="1">
  <advance width="1111.844"/>
  <unicode hex="0921"/>
  <outline>
    <contour>
      <point x="1276" y="1330" type="line"/>
      <point x="128" y="1330" type="line"/>
      <point x="106" y="1307" type="line"/>
      <point x="123" y="1137" type="line"/>
      <point x="831" y="1137" type="line"/>
      <point x="812" y="1046" type="line" smooth="yes"/>
      <point x="810" y="1033"/>
      <point x="801" y="1026"/>
      <point x="788" y="1026" type="curve" smooth="yes"/>
      <point x="457" y="1026" type="line" smooth="yes"/>
      <point x="295" y="1026"/>
      <point x="219" y="952"/>
      <point x="219" y="843" type="curve" smooth="yes"/>
      <point x="219" y="685"/>
      <point x="380" y="482"/>
      <point x="566" y="482" type="curve" smooth="yes"/>
      <point x="621" y="482"/>
      <point x="729" y="499"/>
      <point x="763" y="499" type="curve" smooth="yes"/>
      <point x="801" y="499"/>
      <point x="814" y="475"/>
      <point x="814" y="448" type="curve" smooth="yes"/>
      <point x="814" y="349"/>
      <point x="697" y="270"/>
      <point x="557" y="270" type="curve" smooth="yes"/>
      <point x="386" y="270"/>
      <point x="235" y="393"/>
      <point x="161" y="636" type="curve"/>
      <point x="108" y="617"/>
      <point x="67" y="584"/>
      <point x="67" y="517" type="curve" smooth="yes"/>
      <point x="67" y="371"/>
      <point x="236" y="39"/>
      <point x="587" y="39" type="curve" smooth="yes"/>
      <point x="809" y="39"/>
      <point x="980" y="161"/>
      <point x="980" y="386" type="curve" smooth="yes"/>
      <point x="980" y="556"/>
      <point x="874" y="716"/>
      <point x="726" y="716" type="curve" smooth="yes"/>
      <point x="682" y="716"/>
      <point x="561" y="703"/>
      <point x="510" y="703" type="curve" smooth="yes"/>
      <point x="444" y="703"/>
      <point x="421" y="726"/>
      <point x="421" y="757" type="curve" smooth="yes"/>
      <point x="421" y="821"/>
      <point x="496" y="855"/>
      <point x="583" y="855" type="curve" smooth="yes"/>
      <point x="986" y="855" type="line"/>
      <point x="1011" y="875" type="line"/>
      <point x="1065" y="1137" type="line"/>
      <point x="1271" y="1137" type="line"/>
      <point x="1293" y="1160" type="line"/>
    </contour>
  </outline>
</glyph>
<glyph name="nnadeva" format="1">
  <advance width="1471.844"/>
  <unicode hex="0923"/>
  <outline>
    <contour>
      <point x="1635" y="1330" type="line"/>
      <point x="128" y="1330" type="line"/>
      <point x="106" y="1307" type="line"/>
      <point x="124" y="1137" type="line"/>
      <point x="253" y="1137" type="line"/>
      <point x="173" y="755" type="line" smooth="yes"/>
      <point x="122" y="516"/>
      <point x="295" y="311"/>
      <point x="517" y="311" type="curve" smooth="yes"/>
      <point x="686" y="311"/>
      <point x="844" y="428"/>
      <point x="878" y="591" type="curve" smooth="yes"/>
      <point x="993" y="1137" type="line"/>
      <point x="1178" y="1137" type="line"/>
      <point x="935" y="-21" type="line"/>
      <point x="1135" y="-57" type="line"/>
      <point x="1161" y="-39" type="line"/>
      <point x="1408" y="1137" type="line"/>
      <point x="1631" y="1137" type="line"/>
      <point x="1653" y="1160" type="line"/>
    </contour>
    <contour>
      <point x="778" y="1137" type="line"/>
      <point x="686" y="700" type="line" smooth="yes"/>
      <point x="658" y="567"/>
      <point x="571" y="493"/>
      <point x="475" y="493" type="curve" smooth="yes"/>
      <point x="398" y="493"/>
      <point x="348" y="542"/>
      <point x="366" y="630" type="curve" smooth="yes"/>
      <point x="473" y="1137" type="line"/>
    </contour>
  </outline>
</glyph>
<glyph name="tadeva" format="1">
  <advance width="1301"/>
  <unicode hex="0924"/>
  <outline>
    <contour>
      <point x="1238" y="1137" type="line"/>
      <point x="1465" y="1137" type="line"/>
      <point x="1484" y="1160" type="line"/>
      <point x="1463" y="1330" type="line"/>
      <point x="125" y="1330" type="line"/>
      <point x="106" y="1307" type="line"/>
      <point x="127" y="1137" type="line"/>
      <point x="998" y="1137" type="line"/>
      <point x="953" y="923" type="line"/>
      <point x="485" y="923" type="line" smooth="yes"/>
      <point x="299" y="923"/>
      <point x="192" y="816"/>
      <point x="156" y="643" type="curve" smooth="yes"/>
      <point x="87" y="318"/>
      <point x="305" y="-68"/>
      <point x="476" y="-68" type="curve" smooth="yes"/>
      <point x="503" y="-68"/>
      <point x="529" y="-55"/>
      <point x="537" y="-23" type="curve"/>
      <point x="382" y="136"/>
      <point x="319" y="332"/>
      <point x="353" y="490" type="curve" smooth="yes"/>
      <point x="379" y="614"/>
      <point x="465" y="718"/>
      <point x="614" y="718" type="curve" smooth="yes"/>
      <point x="910" y="718" type="line"/>
      <point x="754" y="-21" type="line"/>
      <point x="967" y="-57" type="line"/>
      <point x="993" y="-39" type="line"/>
    </contour>
  </outline>
</glyph>
<glyph name="thadeva" format="1">
  <advance width="1401"/>
  <unicode hex="0925"/>
  <outline>
    <contour>
      <point x="349" y="1387"/>
      <point x="241" y="1323"/>
      <point x="215" y="1198" type="curve" smooth="yes"/>
      <point x="178" y="1022"/>
      <point x="325" y="886"/>
      <point x="450" y="886" type="curve" smooth="yes"/>
      <point x="493" y="886"/>
      <point x="524" y="907"/>
      <point x="535" y="923" type="curve"/>
      <point x="430" y="966"/>
      <point x="407" y="1018"/>
      <point x="418" y="1070" type="curve" smooth="yes"/>
      <point x="434" y="1146"/>
      <point x="510" y="1200"/>
      <point x="592" y="1200" type="curve" smooth="yes"/>
      <point x="659" y="1200"/>
      <point x="672" y="1154"/>
      <point x="657" y="1080" type="curve" smooth="yes"/>
      <point x="623" y="917"/>
      <point x="469" y="793"/>
      <point x="188" y="716" type="curve"/>
      <point x="186" y="695" type="line"/>
      <point x="293" y="344"/>
      <point x="534" y="181"/>
      <point x="766" y="181" type="curve" smooth="yes"/>
      <point x="809" y="181"/>
      <point x="856" y="187"/>
      <point x="901" y="203" type="curve"/>
      <point x="900" y="200" type="line"/>
      <point x="854" y="-21" type="line"/>
      <point x="1066" y="-57" type="line"/>
      <point x="1092" y="-39" type="line"/>
      <point x="1338" y="1137" type="line"/>
      <point x="1565" y="1137" type="line"/>
      <point x="1584" y="1160" type="line"/>
      <point x="1563" y="1330" type="line"/>
      <point x="925" y="1330" type="line"/>
      <point x="906" y="1307" type="line"/>
      <point x="927" y="1137" type="line"/>
      <point x="1098" y="1137" type="line"/>
      <point x="1003" y="688" type="line" smooth="yes"/>
      <point x="968" y="520"/>
      <point x="797" y="401"/>
      <point x="623" y="401" type="curve" smooth="yes"/>
      <point x="531" y="401"/>
      <point x="454" y="438"/>
      <point x="411" y="520" type="curve"/>
      <point x="674" y="611"/>
      <point x="806" y="743"/>
      <point x="840" y="907" type="curve" smooth="yes"/>
      <point x="893" y="1158"/>
      <point x="709" y="1387"/>
      <point x="470" y="1387" type="curve" smooth="yes"/>
    </contour>
  </outline>
</glyph>
<glyph name="dadeva" format="1">
  <advance width="1088"/>
  <unicode hex="0926"/>
  <outline>
    <contour>
      <point x="1271" y="1160" type="line"/>
      <point x="1250" y="1330" type="line"/>
      <point x="125" y="1330" type="line"/>
      <point x="106" y="1307" type="line"/>
      <point x="127" y="1137" type="line"/>
      <point x="762" y="1137" type="line"/>
      <point x="732" y="994" type="line" smooth="yes"/>
      <point x="729" y="981"/>
      <point x="709" y="966"/>
      <point x="696" y="966" type="curve" smooth="yes"/>
      <point x="590" y="966" type="line" smooth="yes"/>
      <point x="271" y="966"/>
      <point x="109" y="797"/>
      <point x="68" y="602" type="curve" smooth="yes"/>
      <point x="5" y="300"/>
      <point x="245" y="31"/>
      <point x="558" y="31" type="curve" smooth="yes"/>
      <point x="620" y="31"/>
      <point x="685" y="43"/>
      <point x="750" y="74" type="curve"/>
      <point x="754" y="45"/>
      <point x="753" y="21"/>
      <point x="749" y="4" type="curve" smooth="yes"/>
      <point x="732" y="-77"/>
      <point x="655" y="-128"/>
      <point x="587" y="-120" type="curve"/>
      <point x="599" y="-228"/>
      <point x="668" y="-292"/>
      <point x="765" y="-292" type="curve" smooth="yes"/>
      <point x="837" y="-292"/>
      <point x="891" y="-243"/>
      <point x="905" y="-175" type="curve" smooth="yes"/>
      <point x="921" y="-103"/>
      <point x="900" y="-13"/>
      <point x="830" y="116" type="curve"/>
      <point x="883" y="161"/>
      <point x="914" y="213"/>
      <point x="925" y="264" type="curve" smooth="yes"/>
      <point x="950" y="381"/>
      <point x="873" y="499"/>
      <point x="743" y="499" type="curve" smooth="yes"/>
      <point x="664" y="499"/>
      <point x="607" y="446"/>
      <point x="593" y="380" type="curve" smooth="yes"/>
      <point x="583" y="330"/>
      <point x="599" y="294"/>
      <point x="613" y="263" type="curve"/>
      <point x="554" y="236"/>
      <point x="490" y="219"/>
      <point x="427" y="219" type="curve" smooth="yes"/>
      <point x="307" y="219"/>
      <point x="226" y="297"/>
      <point x="256" y="441" type="curve" smooth="yes"/>
      <point x="294" y="622"/>
      <point x="468" y="759"/>
      <point x="697" y="759" type="curve" smooth="yes"/>
      <point x="900" y="759" type="line"/>
      <point x="924" y="779" type="line"/>
      <point x="996" y="1137" type="line"/>
      <point x="1252" y="1137" type="line"/>
    </contour>
  </outline>
</glyph>
<glyph name="dhadeva" format="1">
  <advance width="1375"/>
  <unicode hex="0927"/>
  <outline>
    <contour>
      <point x="1557" y="1160" type="line"/>
      <point x="1539" y="1330" type="line"/>
      <point x="902" y="1330" type="line"/>
      <point x="881" y="1307" type="line"/>
      <point x="898" y="1137" type="line"/>
      <point x="1072" y="1137" type="line"/>
      <point x="961" y="610" type="line" smooth="yes"/>
      <point x="930" y="461"/>
      <point x="765" y="351"/>
      <point x="616" y="351" type="curve" smooth="yes"/>
      <point x="533" y="351"/>
      <point x="486" y="388"/>
      <point x="486" y="447" type="curve" smooth="yes"/>
      <point x="486" y="548"/>
      <point x="619" y="677"/>
      <point x="843" y="715" type="curve"/>
      <point x="859" y="741" type="line"/>
      <point x="718" y="918" type="line"/>
      <point x="643" y="910"/>
      <point x="573" y="887"/>
      <point x="513" y="852" type="curve"/>
      <point x="460" y="904"/>
      <point x="437" y="963"/>
      <point x="437" y="1017" type="curve" smooth="yes"/>
      <point x="437" y="1113"/>
      <point x="506" y="1189"/>
      <point x="580" y="1189" type="curve" smooth="yes"/>
      <point x="641" y="1189"/>
      <point x="666" y="1131"/>
      <point x="646" y="1037" type="curve"/>
      <point x="695" y="1037"/>
      <point x="760" y="1071"/>
      <point x="760" y="1176" type="curve" smooth="yes"/>
      <point x="760" y="1283"/>
      <point x="678" y="1387"/>
      <point x="528" y="1387" type="curve" smooth="yes"/>
      <point x="347" y="1387"/>
      <point x="219" y="1254"/>
      <point x="219" y="1095" type="curve" smooth="yes"/>
      <point x="219" y="976"/>
      <point x="288" y="851"/>
      <point x="398" y="765" type="curve"/>
      <point x="331" y="690"/>
      <point x="292" y="610"/>
      <point x="292" y="519" type="curve" smooth="yes"/>
      <point x="292" y="321"/>
      <point x="470" y="161"/>
      <point x="708" y="161" type="curve" smooth="yes"/>
      <point x="763" y="161"/>
      <point x="820" y="169"/>
      <point x="873" y="188" type="curve"/>
      <point x="829" y="-21" type="line"/>
      <point x="1039" y="-57" type="line"/>
      <point x="1065" y="-39" type="line"/>
      <point x="1312" y="1137" type="line"/>
      <point x="1535" y="1137" type="line"/>
    </contour>
  </outline>
</glyph>
<glyph name="nadeva" format="1">
  <advance width="1181"/>
  <unicode hex="0928"/>
  <outline>
    <contour>
      <point x="1364" y="1160" type="line"/>
      <point x="1343" y="1330" type="line"/>
      <point x="125" y="1330" type="line"/>
      <point x="106" y="1307" type="line"/>
      <point x="127" y="1137" type="line"/>
      <point x="878" y="1137" type="line"/>
      <point x="820" y="863" type="line"/>
      <point x="292" y="863" type="line" smooth="yes"/>
      <point x="192" y="863"/>
      <point x="110" y="856"/>
      <point x="94" y="781" type="curve" smooth="yes"/>
      <point x="65" y="643"/>
      <point x="250" y="424"/>
      <point x="358" y="424" type="curve" smooth="yes"/>
      <point x="381" y="424"/>
      <point x="405" y="439"/>
      <point x="417" y="495" type="curve" smooth="yes"/>
      <point x="451" y="658" type="line"/>
      <point x="777" y="658" type="line"/>
      <point x="634" y="-21" type="line"/>
      <point x="847" y="-57" type="line"/>
      <point x="873" y="-39" type="line"/>
      <point x="1118" y="1137" type="line"/>
      <point x="1345" y="1137" type="line"/>
    </contour>
  </outline>
</glyph>
<glyph name="nnnadeva" format="1">
  <advance width="1181"/>
  <unicode hex="0929"/>
  <outline>
    <contour>
      <point x="1364" y="1160" type="line"/>
      <point x="1343" y="1330" type="line"/>
      <point x="125" y="1330" type="line"/>
      <point x="106" y="1307" type="line"/>
      <point x="127" y="1137" type="line"/>
      <point x="878" y="1137" type="line"/>
      <point x="820" y="863" type="line"/>
      <point x="292" y="863" type="line" smooth="yes"/>
      <point x="192" y="863"/>
      <point x="110" y="856"/>
      <point x="94" y="781" type="curve" smooth="yes"/>
      <point x="65" y="643"/>
      <point x="250" y="424"/>
      <point x="358" y="424" type="curve" smooth="yes"/>
      <point x="381" y="424"/>
      <point x="405" y="439"/>
      <point x="417" y="495" type="curve" smooth="yes"/>
      <point x="451" y="658" type="line"/>
      <point x="777" y="658" type="line"/>
      <point x="634" y="-21" type="line"/>
      <point x="847" y="-57" type="line"/>
      <point x="873" y="-39" type="line"/>
      <point x="1118" y="1137" type="line"/>
      <point x="1345" y="1137" type="line"/>
    </contour>
    <contour>
      <point x="263" y="176"/>
      <point x="206" y="127"/>
      <point x="193" y="66" type="curve" smooth="yes"/>
      <point x="177" y="-11"/>
      <point x="230" y="-76"/>
      <point x="310" y="-76" type="curve" smooth="yes"/>
      <point x="369" y="-76"/>
      <point x="426" y="-27"/>
      <point x="438" y="34" type="curve" smooth="yes"/>
      <point x="455" y="111"/>
      <point x="402" y="176"/>
      <point x="323" y="176" type="curve" smooth="yes"/>
    </contour>
  </outline>
</glyph>
<glyph name="padeva" format="1">
  <advance width="1171"/>
  <unicode hex="092A"/>
  <outline>
    <contour>
      <point x="1354" y="1160" type="line"/>
      <point x="1333" y="1330" type="line"/>
      <point x="125" y="1330" type="line"/>
      <point x="106" y="1307" type="line"/>
      <point x="127" y="1137" type="line"/>
      <point x="253" y="1137" type="line"/>
      <point x="174" y="763" type="line" smooth="yes"/>
      <point x="122" y="514"/>
      <point x="294" y="291"/>
      <point x="533" y="291" type="curve" smooth="yes"/>
      <point x="578" y="291"/>
      <point x="638" y="300"/>
      <point x="696" y="323" type="curve"/>
      <point x="696" y="320" type="line"/>
      <point x="624" y="-21" type="line"/>
      <point x="837" y="-57" type="line"/>
      <point x="863" y="-39" type="line"/>
      <point x="1108" y="1137" type="line"/>
      <point x="1335" y="1137" type="line"/>
    </contour>
    <contour>
      <point x="483" y="1137" type="line"/>
      <point x="868" y="1137" type="line"/>
      <point x="788" y="758" type="line" smooth="yes"/>
      <point x="756" y="608"/>
      <point x="595" y="483"/>
      <point x="462" y="483" type="curve" smooth="yes"/>
      <point x="384" y="483"/>
      <point x="356" y="534"/>
      <point x="379" y="642" type="curve" smooth="yes"/>
    </contour>
  </outline>
</glyph>
<glyph name="phadeva" format="1">
  <advance width="1560"/>
  <unicode hex="092B"/>
  <outline>
    <contour>
      <point x="1743" y="1160" type="line"/>
      <point x="1722" y="1330" type="line"/>
      <point x="125" y="1330" type="line"/>
      <point x="106" y="1307" type="line"/>
      <point x="127" y="1137" type="line"/>
      <point x="253" y="1137" type="line"/>
      <point x="172" y="753" type="line" smooth="yes"/>
      <point x="122" y="514"/>
      <point x="301" y="301"/>
      <point x="526" y="301" type="curve" smooth="yes"/>
      <point x="555" y="301"/>
      <point x="595" y="305"/>
      <point x="635" y="318" type="curve"/>
      <point x="635" y="315" type="line"/>
      <point x="564" y="-21" type="line"/>
      <point x="767" y="-57" type="line"/>
      <point x="793" y="-39" type="line"/>
      <point x="906" y="510" type="line" smooth="yes"/>
      <point x="935" y="651"/>
      <point x="1095" y="755"/>
      <point x="1216" y="755" type="curve" smooth="yes"/>
      <point x="1283" y="755"/>
      <point x="1296" y="716"/>
      <point x="1282" y="650" type="curve" smooth="yes"/>
      <point x="1255" y="521"/>
      <point x="1129" y="365"/>
      <point x="992" y="303" type="curve"/>
      <point x="1042" y="212"/>
      <point x="1111" y="170"/>
      <point x="1183" y="170" type="curve" smooth="yes"/>
      <point x="1279" y="170"/>
      <point x="1407" y="270"/>
      <point x="1451" y="480" type="curve" smooth="yes"/>
      <point x="1512" y="765"/>
      <point x="1349" y="942"/>
      <point x="1139" y="942" type="curve" smooth="yes"/>
      <point x="1093" y="942"/>
      <point x="1041" y="933"/>
      <point x="990" y="907" type="curve"/>
      <point x="987" y="909" type="line"/>
      <point x="1038" y="1137" type="line"/>
      <point x="1724" y="1137" type="line"/>
    </contour>
    <contour>
      <point x="493" y="1137" type="line"/>
      <point x="808" y="1137" type="line"/>
      <point x="726" y="748" type="line" smooth="yes"/>
      <point x="697" y="610"/>
      <point x="543" y="493"/>
      <point x="429" y="493" type="curve" smooth="yes"/>
      <point x="376" y="493"/>
      <point x="364" y="525"/>
      <point x="382" y="612" type="curve" smooth="yes"/>
    </contour>
  </outline>
</glyph>
<glyph name="badeva" format="1">
  <advance width="1230"/>
  <unicode hex="092C"/>
  <outline>
    <contour>
      <point x="1392" y="1330" type="line"/>
      <point x="125" y="1330" type="line"/>
      <point x="106" y="1307" type="line"/>
      <point x="127" y="1137" type="line"/>
      <point x="937" y="1137" type="line"/>
      <point x="885" y="899" type="line"/>
      <point x="865" y="889" type="line"/>
      <point x="788" y="960"/>
      <point x="670" y="997"/>
      <point x="552" y="997" type="curve" smooth="yes"/>
      <point x="337" y="997"/>
      <point x="156" y="867"/>
      <point x="116" y="675" type="curve" smooth="yes"/>
      <point x="60" y="411"/>
      <point x="290" y="179"/>
      <point x="541" y="179" type="curve" smooth="yes"/>
      <point x="599" y="179"/>
      <point x="675" y="193"/>
      <point x="744" y="224" type="curve"/>
      <point x="747" y="222" type="line"/>
      <point x="693" y="-21" type="line"/>
      <point x="896" y="-57" type="line"/>
      <point x="922" y="-39" type="line"/>
      <point x="1167" y="1137" type="line"/>
      <point x="1394" y="1137" type="line"/>
      <point x="1413" y="1160" type="line"/>
    </contour>
    <contour>
      <point x="827" y="616" type="line" smooth="yes"/>
      <point x="815" y="560"/>
      <point x="776" y="509"/>
      <point x="731" y="471" type="curve"/>
      <point x="551" y="771" type="line"/>
      <point x="582" y="777"/>
      <point x="611" y="783"/>
      <point x="651" y="783" type="curve" smooth="yes"/>
      <point x="778" y="783"/>
      <point x="848" y="713"/>
      <point x="832" y="640" type="curve" smooth="yes"/>
    </contour>
    <contour>
      <point x="356" y="378"/>
      <point x="297" y="450"/>
      <point x="318" y="548" type="curve" smooth="yes"/>
      <point x="329" y="603"/>
      <point x="362" y="648"/>
      <point x="398" y="684" type="curve"/>
      <point x="581" y="391" type="line"/>
      <point x="548" y="384"/>
      <point x="518" y="378"/>
      <point x="479" y="378" type="curve" smooth="yes"/>
    </contour>
  </outline>
</glyph>
<glyph name="bhadeva" format="1">
  <advance width="1493"/>
  <unicode hex="092D"/>
  <outline>
    <contour>
      <point x="331" y="1387"/>
      <point x="259" y="1313"/>
      <point x="237" y="1209" type="curve" smooth="yes"/>
      <point x="199" y="1027"/>
      <point x="341" y="896"/>
      <point x="463" y="896" type="curve" smooth="yes"/>
      <point x="496" y="896"/>
      <point x="524" y="908"/>
      <point x="536" y="922" type="curve"/>
      <point x="436" y="985"/>
      <point x="419" y="1030"/>
      <point x="431" y="1085" type="curve" smooth="yes"/>
      <point x="445" y="1153"/>
      <point x="497" y="1200"/>
      <point x="565" y="1200" type="curve" smooth="yes"/>
      <point x="627" y="1200"/>
      <point x="623" y="1148"/>
      <point x="608" y="1077" type="curve" smooth="yes"/>
      <point x="513" y="672" type="line"/>
      <point x="427" y="669"/>
      <point x="375" y="658"/>
      <point x="361" y="592" type="curve" smooth="yes"/>
      <point x="329" y="438"/>
      <point x="530" y="244"/>
      <point x="633" y="244" type="curve" smooth="yes"/>
      <point x="656" y="244"/>
      <point x="674" y="260"/>
      <point x="686" y="315" type="curve" smooth="yes"/>
      <point x="718" y="468" type="line"/>
      <point x="1049" y="468" type="line"/>
      <point x="946" y="-21" type="line"/>
      <point x="1159" y="-57" type="line"/>
      <point x="1185" y="-39" type="line"/>
      <point x="1430" y="1137" type="line"/>
      <point x="1657" y="1137" type="line"/>
      <point x="1676" y="1160" type="line"/>
      <point x="1655" y="1330" type="line"/>
      <point x="929" y="1330" type="line"/>
      <point x="910" y="1307" type="line"/>
      <point x="931" y="1137" type="line"/>
      <point x="1190" y="1137" type="line"/>
      <point x="1092" y="673" type="line"/>
      <point x="761" y="673" type="line"/>
      <point x="810" y="905" type="line" smooth="yes"/>
      <point x="861" y="1148"/>
      <point x="690" y="1387"/>
      <point x="455" y="1387" type="curve" smooth="yes"/>
    </contour>
  </outline>
</glyph>
<glyph name="madeva" format="1">
  <advance width="1246"/>
  <unicode hex="092E"/>
  <outline>
    <contour>
      <point x="1429" y="1160" type="line"/>
      <point x="1408" y="1330" type="line"/>
      <point x="125" y="1330" type="line"/>
      <point x="106" y="1307" type="line"/>
      <point x="127" y="1137" type="line"/>
      <point x="324" y="1137" type="line"/>
      <point x="212" y="652" type="line"/>
      <point x="96" y="648"/>
      <point x="70" y="618"/>
      <point x="60" y="573" type="curve" smooth="yes"/>
      <point x="28" y="419"/>
      <point x="229" y="224"/>
      <point x="332" y="224" type="curve" smooth="yes"/>
      <point x="355" y="224"/>
      <point x="373" y="239"/>
      <point x="384" y="295" type="curve" smooth="yes"/>
      <point x="417" y="448" type="line"/>
      <point x="798" y="448" type="line"/>
      <point x="699" y="-21" type="line"/>
      <point x="912" y="-57" type="line"/>
      <point x="938" y="-39" type="line"/>
      <point x="1183" y="1137" type="line"/>
      <point x="1410" y="1137" type="line"/>
    </contour>
    <contour>
      <point x="562" y="1137" type="line"/>
      <point x="943" y="1137" type="line"/>
      <point x="841" y="653" type="line"/>
      <point x="460" y="653" type="line"/>
    </contour>
  </outline>
</glyph>
<glyph name="yadeva" format="1">
  <advance width="1348"/>
  <unicode hex="092F"/>
  <outline>
    <contour>
      <point x="1531" y="1160" type="line"/>
      <point x="1510" y="1330" type="line"/>
      <point x="125" y="1330" type="line"/>
      <point x="106" y="1307" type="line"/>
      <point x="127" y="1137" type="line"/>
      <point x="527" y="1144" type="line"/>
      <point x="534" y="1108"/>
      <point x="531" y="1066"/>
      <point x="523" y="1029" type="curve" smooth="yes"/>
      <point x="496" y="902"/>
      <point x="401" y="818"/>
      <point x="173" y="756" type="curve"/>
      <point x="169" y="735" type="line"/>
      <point x="263" y="357"/>
      <point x="489" y="201"/>
      <point x="718" y="201" type="curve" smooth="yes"/>
      <point x="762" y="201"/>
      <point x="807" y="207"/>
      <point x="852" y="222" type="curve"/>
      <point x="851" y="219" type="line"/>
      <point x="801" y="-21" type="line"/>
      <point x="1013" y="-57" type="line"/>
      <point x="1039" y="-39" type="line"/>
      <point x="1285" y="1137" type="line"/>
      <point x="1512" y="1137" type="line"/>
    </contour>
    <contour>
      <point x="688" y="1137" type="line"/>
      <point x="1045" y="1137" type="line"/>
      <point x="952" y="698" type="line" smooth="yes"/>
      <point x="918" y="536"/>
      <point x="740" y="421"/>
      <point x="592" y="421" type="curve" smooth="yes"/>
      <point x="509" y="421"/>
      <point x="429" y="462"/>
      <point x="393" y="558" type="curve"/>
      <point x="579" y="626"/>
      <point x="678" y="718"/>
      <point x="704" y="842" type="curve" smooth="yes"/>
      <point x="723" y="933"/>
      <point x="704" y="1035"/>
      <point x="669" y="1120" type="curve"/>
    </contour>
  </outline>
</glyph>
<glyph name="radeva" format="1">
  <advance width="945.844"/>
  <unicode hex="0930"/>
  <outline>
    <contour>
      <point x="1109" y="1330" type="line"/>
      <point x="127" y="1330" type="line"/>
      <point x="106" y="1307" type="line"/>
      <point x="123" y="1137" type="line"/>
      <point x="604" y="1137" type="line"/>
      <point x="610" y="1102"/>
      <point x="613" y="1050"/>
      <point x="613" y="1017" type="curve" smooth="yes"/>
      <point x="613" y="881"/>
      <point x="575" y="785"/>
      <point x="436" y="721" type="curve"/>
      <point x="374" y="762"/>
      <point x="310" y="779"/>
      <point x="261" y="779" type="curve" smooth="yes"/>
      <point x="157" y="779"/>
      <point x="93" y="708"/>
      <point x="93" y="606" type="curve" smooth="yes"/>
      <point x="93" y="378"/>
      <point x="354" y="-52"/>
      <point x="573" y="-52" type="curve" smooth="yes"/>
      <point x="647" y="-52"/>
      <point x="708" y="-6"/>
      <point x="741" y="66" type="curve"/>
      <point x="554" y="160"/>
      <point x="424" y="264"/>
      <point x="328" y="427" type="curve"/>
      <point x="679" y="492"/>
      <point x="800" y="674"/>
      <point x="800" y="887" type="curve" smooth="yes"/>
      <point x="800" y="964"/>
      <point x="785" y="1060"/>
      <point x="763" y="1137" type="curve"/>
      <point x="1105" y="1137" type="line"/>
      <point x="1127" y="1160" type="line"/>
    </contour>
  </outline>
</glyph>
<glyph name="rradeva" format="1">
  <advance width="945.844"/>
  <unicode hex="0931"/>
  <outline>
    <contour>
      <point x="1110" y="1330" type="line"/>
      <point x="128" y="1330" type="line"/>
      <point x="106" y="1307" type="line"/>
      <point x="123" y="1137" type="line"/>
      <point x="604" y="1137" type="line"/>
      <point x="611" y="1102"/>
      <point x="614" y="1050"/>
      <point x="614" y="1017" type="curve" smooth="yes"/>
      <point x="614" y="881"/>
      <point x="575" y="785"/>
      <point x="436" y="721" type="curve"/>
      <point x="374" y="762"/>
      <point x="310" y="779"/>
      <point x="261" y="779" type="curve" smooth="yes"/>
      <point x="157" y="779"/>
      <point x="93" y="708"/>
      <point x="93" y="606" type="curve" smooth="yes"/>
      <point x="93" y="378"/>
      <point x="354" y="-52"/>
      <point x="574" y="-52" type="curve" smooth="yes"/>
      <point x="648" y="-52"/>
      <point x="708" y="-6"/>
      <point x="741" y="66" type="curve"/>
      <point x="554" y="160"/>
      <point x="424" y="264"/>
      <point x="328" y="427" type="curve"/>
      <point x="679" y="492"/>
      <point x="800" y="674"/>
      <point x="800" y="887" type="curve" smooth="yes"/>
      <point x="800" y="964"/>
      <point x="785" y="1060"/>
      <point x="763" y="1137" type="curve"/>
      <point x="1105" y="1137" type="line"/>
      <point x="1127" y="1160" type="line"/>
    </contour>
    <contour>
      <point x="-45" y="176"/>
      <point x="-123" y="107"/>
      <point x="-123" y="29" type="curve" smooth="yes"/>
      <point x="-123" y="-29"/>
      <point x="-81" y="-76"/>
      <point x="-19" y="-76" type="curve" smooth="yes"/>
      <point x="58" y="-76"/>
      <point x="135" y="-7"/>
      <point x="135" y="71" type="curve" smooth="yes"/>
      <point x="135" y="129"/>
      <point x="94" y="176"/>
      <point x="33" y="176" type="curve" smooth="yes"/>
    </contour>
  </outline>
</glyph>
<glyph name="ladeva" format="1">
  <advance width="1441"/>
  <unicode hex="0932"/>
  <outline>
    <contour>
      <point x="1624" y="1160" type="line"/>
      <point x="1603" y="1330" type="line"/>
      <point x="95" y="1330" type="line"/>
      <point x="76" y="1307" type="line"/>
      <point x="97" y="1137" type="line"/>
      <point x="1138" y="1137" type="line"/>
      <point x="1084" y="929" type="line"/>
      <point x="950" y="918"/>
      <point x="831" y="873"/>
      <point x="721" y="788" type="curve"/>
      <point x="651" y="881"/>
      <point x="548" y="946"/>
      <point x="416" y="946" type="curve" smooth="yes"/>
      <point x="257" y="946"/>
      <point x="143" y="841"/>
      <point x="106" y="666" type="curve" smooth="yes"/>
      <point x="34" y="324"/>
      <point x="301" y="-78"/>
      <point x="473" y="-78" type="curve" smooth="yes"/>
      <point x="506" y="-78"/>
      <point x="541" y="-58"/>
      <point x="557" y="-18" type="curve"/>
      <point x="356" y="147"/>
      <point x="279" y="366"/>
      <point x="311" y="517" type="curve" smooth="yes"/>
      <point x="338" y="644"/>
      <point x="441" y="738"/>
      <point x="549" y="738" type="curve" smooth="yes"/>
      <point x="581" y="738"/>
      <point x="611" y="727"/>
      <point x="637" y="701" type="curve"/>
      <point x="588" y="649"/>
      <point x="557" y="598"/>
      <point x="528" y="540" type="curve"/>
      <point x="705" y="396" type="line"/>
      <point x="731" y="398" type="line"/>
      <point x="808" y="552"/>
      <point x="912" y="660"/>
      <point x="1049" y="713" type="curve"/>
      <point x="1048" y="710" type="line"/>
      <point x="894" y="-21" type="line"/>
      <point x="1107" y="-57" type="line"/>
      <point x="1133" y="-39" type="line"/>
      <point x="1378" y="1137" type="line"/>
      <point x="1605" y="1137" type="line"/>
    </contour>
  </outline>
</glyph>
<glyph name="lladeva" format="1">
  <advance width="1511"/>
  <unicode hex="0933"/>
  <outline>
    <contour>
      <point x="1694" y="1160" type="line"/>
      <point x="1673" y="1330" type="line"/>
      <point x="125" y="1330" type="line"/>
      <point x="106" y="1307" type="line"/>
      <point x="127" y="1137" type="line"/>
      <point x="1048" y="1137" type="line"/>
      <point x="987" y="896" type="line"/>
      <point x="909" y="879"/>
      <point x="854" y="833"/>
      <point x="771" y="738" type="curve"/>
      <point x="667" y="849"/>
      <point x="559" y="910"/>
      <point x="430" y="910" type="curve" smooth="yes"/>
      <point x="252" y="910"/>
      <point x="104" y="778"/>
      <point x="67" y="602" type="curve" smooth="yes"/>
      <point x="13" y="343"/>
      <point x="215" y="102"/>
      <point x="457" y="102" type="curve" smooth="yes"/>
      <point x="574" y="102"/>
      <point x="649" y="165"/>
      <point x="740" y="273" type="curve"/>
      <point x="836" y="164"/>
      <point x="946" y="92"/>
      <point x="1082" y="92" type="curve" smooth="yes"/>
      <point x="1253" y="92"/>
      <point x="1396" y="222"/>
      <point x="1433" y="397" type="curve" smooth="yes"/>
      <point x="1475" y="597"/>
      <point x="1367" y="784"/>
      <point x="1211" y="860" type="curve"/>
      <point x="1278" y="1137" type="line"/>
      <point x="1675" y="1137" type="line"/>
    </contour>
    <contour>
      <point x="602" y="699"/>
      <point x="658" y="681"/>
      <point x="709" y="635" type="curve"/>
      <point x="661" y="594" type="line" smooth="yes"/>
      <point x="530" y="414"/>
      <point x="448" y="308"/>
      <point x="334" y="308" type="curve" smooth="yes"/>
      <point x="263" y="308"/>
      <point x="240" y="359"/>
      <point x="257" y="442" type="curve" smooth="yes"/>
      <point x="286" y="576"/>
      <point x="407" y="699"/>
      <point x="552" y="699" type="curve" smooth="yes"/>
    </contour>
    <contour>
      <point x="1244" y="689"/>
      <point x="1259" y="636"/>
      <point x="1242" y="556" type="curve" smooth="yes"/>
      <point x="1213" y="414"/>
      <point x="1092" y="297"/>
      <point x="953" y="297" type="curve" smooth="yes"/>
      <point x="902" y="297"/>
      <point x="847" y="317"/>
      <point x="798" y="372" type="curve"/>
      <point x="840" y="407" type="line" smooth="yes"/>
      <point x="981" y="600"/>
      <point x="1067" y="689"/>
      <point x="1172" y="689" type="curve" smooth="yes"/>
    </contour>
  </outline>
</glyph>
<glyph name="llladeva" format="1">
  <advance width="1510.844"/>
  <unicode hex="0934"/>
  <outline>
    <contour>
      <point x="1675" y="1330" type="line"/>
      <point x="128" y="1330" type="line"/>
      <point x="106" y="1307" type="line"/>
      <point x="123" y="1137" type="line"/>
      <point x="1047" y="1137" type="line"/>
      <point x="996" y="894" type="line"/>
      <point x="918" y="877"/>
      <point x="857" y="826"/>
      <point x="783" y="736" type="curve"/>
      <point x="676" y="854"/>
      <point x="569" y="910"/>
      <point x="450" y="910" type="curve" smooth="yes"/>
      <point x="233" y="910"/>
      <point x="55" y="735"/>
      <point x="55" y="518" type="curve" smooth="yes"/>
      <point x="55" y="298"/>
      <point x="231" y="102"/>
      <point x="437" y="102" type="curve" smooth="yes"/>
      <point x="564" y="102"/>
      <point x="646" y="172"/>
      <point x="728" y="274" type="curve"/>
      <point x="828" y="159"/>
      <point x="936" y="92"/>
      <point x="1062" y="92" type="curve" smooth="yes"/>
      <point x="1271" y="92"/>
      <point x="1445" y="265"/>
      <point x="1445" y="483" type="curve" smooth="yes"/>
      <point x="1445" y="645"/>
      <point x="1353" y="798"/>
      <point x="1220" y="863" type="curve"/>
      <point x="1277" y="1137" type="line"/>
      <point x="1670" y="1137" type="line"/>
      <point x="1692" y="1160" type="line"/>
    </contour>
    <contour>
      <point x="591" y="699"/>
      <point x="649" y="676"/>
      <point x="700" y="630" type="curve"/>
      <point x="668" y="587" type="line" smooth="yes"/>
      <point x="533" y="407"/>
      <point x="458" y="308"/>
      <point x="354" y="308" type="curve" smooth="yes"/>
      <point x="289" y="308"/>
      <point x="255" y="352"/>
      <point x="255" y="419" type="curve" smooth="yes"/>
      <point x="255" y="555"/>
      <point x="376" y="699"/>
      <point x="531" y="699" type="curve" smooth="yes"/>
    </contour>
    <contour>
      <point x="1216" y="689"/>
      <point x="1245" y="645"/>
      <point x="1245" y="582" type="curve" smooth="yes"/>
      <point x="1245" y="435"/>
      <point x="1123" y="297"/>
      <point x="973" y="297" type="curve" smooth="yes"/>
      <point x="912" y="297"/>
      <point x="855" y="322"/>
      <point x="806" y="377" type="curve"/>
      <point x="834" y="414" type="line" smooth="yes"/>
      <point x="977" y="607"/>
      <point x="1056" y="689"/>
      <point x="1151" y="689" type="curve" smooth="yes"/>
    </contour>
    <contour>
      <point x="631" y="63"/>
      <point x="554" y="-6"/>
      <point x="554" y="-84" type="curve" smooth="yes"/>
      <point x="554" y="-142"/>
      <point x="596" y="-189"/>
      <point x="657" y="-189" type="curve" smooth="yes"/>
      <point x="735" y="-189"/>
      <point x="811" y="-120"/>
      <point x="811" y="-42" type="curve" smooth="yes"/>
      <point x="811" y="16"/>
      <point x="770" y="63"/>
      <point x="710" y="63" type="curve" smooth="yes"/>
    </contour>
  </outline>
</glyph>
<glyph name="vadeva" format="1">
  <advance width="1229.844"/>
  <unicode hex="0935"/>
  <outline>
    <contour>
      <point x="1393" y="1330" type="line"/>
      <point x="127" y="1330" type="line"/>
      <point x="106" y="1307" type="line"/>
      <point x="123" y="1137" type="line"/>
      <point x="936" y="1137" type="line"/>
      <point x="880" y="869" type="line"/>
      <point x="793" y="960"/>
      <point x="683" y="997"/>
      <point x="569" y="997" type="curve" smooth="yes"/>
      <point x="318" y="997"/>
      <point x="103" y="830"/>
      <point x="103" y="594" type="curve" smooth="yes"/>
      <point x="103" y="370"/>
      <point x="303" y="179"/>
      <point x="528" y="179" type="curve" smooth="yes"/>
      <point x="588" y="179"/>
      <point x="663" y="192"/>
      <point x="744" y="224" type="curve"/>
      <point x="693" y="-21" type="line"/>
      <point x="893" y="-57" type="line"/>
      <point x="919" y="-39" type="line"/>
      <point x="1166" y="1137" type="line"/>
      <point x="1389" y="1137" type="line"/>
      <point x="1411" y="1160" type="line"/>
    </contour>
    <contour>
      <point x="769" y="783"/>
      <point x="845" y="705"/>
      <point x="830" y="632" type="curve" smooth="yes"/>
      <point x="825" y="608" type="line" smooth="yes"/>
      <point x="797" y="476"/>
      <point x="637" y="368"/>
      <point x="488" y="368" type="curve" smooth="yes"/>
      <point x="372" y="368"/>
      <point x="306" y="437"/>
      <point x="306" y="528" type="curve" smooth="yes"/>
      <point x="306" y="669"/>
      <point x="455" y="783"/>
      <point x="629" y="783" type="curve" smooth="yes"/>
    </contour>
  </outline>
</glyph>
<glyph name="shadeva" format="1">
  <advance width="1551.844"/>
  <unicode hex="0936"/>
  <outline>
    <contour>
      <point x="1715" y="1330" type="line"/>
      <point x="128" y="1330" type="line"/>
      <point x="107" y="1307" type="line"/>
      <point x="124" y="1137" type="line"/>
      <point x="366" y="1137" type="line"/>
      <point x="359" y="1119"/>
      <point x="343" y="1103"/>
      <point x="343" y="1026" type="curve" smooth="yes"/>
      <point x="343" y="888"/>
      <point x="426" y="763"/>
      <point x="601" y="664" type="curve"/>
      <point x="548" y="617"/>
      <point x="486" y="576"/>
      <point x="414" y="544" type="curve"/>
      <point x="368" y="609"/>
      <point x="305" y="645"/>
      <point x="233" y="645" type="curve" smooth="yes"/>
      <point x="135" y="645"/>
      <point x="66" y="581"/>
      <point x="66" y="490" type="curve" smooth="yes"/>
      <point x="66" y="390"/>
      <point x="163" y="311"/>
      <point x="327" y="298" type="curve"/>
      <point x="411" y="43"/>
      <point x="546" y="-65"/>
      <point x="696" y="-65" type="curve" smooth="yes"/>
      <point x="815" y="-65"/>
      <point x="882" y="-1"/>
      <point x="882" y="89" type="curve" smooth="yes"/>
      <point x="882" y="125"/>
      <point x="868" y="164"/>
      <point x="837" y="211" type="curve"/>
      <point x="783" y="183"/>
      <point x="727" y="165"/>
      <point x="669" y="165" type="curve" smooth="yes"/>
      <point x="592" y="165"/>
      <point x="516" y="196"/>
      <point x="482" y="320" type="curve"/>
      <point x="837" y="442"/>
      <point x="997" y="711"/>
      <point x="997" y="921" type="curve" smooth="yes"/>
      <point x="997" y="995"/>
      <point x="979" y="1076"/>
      <point x="947" y="1137" type="curve"/>
      <point x="1248" y="1137" type="line"/>
      <point x="1005" y="-21" type="line"/>
      <point x="1215" y="-57" type="line"/>
      <point x="1241" y="-39" type="line"/>
      <point x="1488" y="1137" type="line"/>
      <point x="1711" y="1137" type="line"/>
      <point x="1733" y="1160" type="line"/>
    </contour>
    <contour>
      <point x="773" y="1145"/>
      <point x="807" y="1111"/>
      <point x="807" y="1035" type="curve" smooth="yes"/>
      <point x="807" y="955"/>
      <point x="772" y="865"/>
      <point x="696" y="767" type="curve"/>
      <point x="599" y="829"/>
      <point x="559" y="896"/>
      <point x="559" y="967" type="curve" smooth="yes"/>
      <point x="559" y="1064"/>
      <point x="622" y="1145"/>
      <point x="718" y="1145" type="curve" smooth="yes"/>
    </contour>
  </outline>
</glyph>
<glyph name="ssadeva" format="1">
  <advance width="1171"/>
  <unicode hex="0937"/>
  <outline>
    <contour>
      <point x="1333" y="1330" type="line"/>
      <point x="125" y="1330" type="line"/>
      <point x="106" y="1307" type="line"/>
      <point x="127" y="1137" type="line"/>
      <point x="253" y="1137" type="line"/>
      <point x="174" y="763" type="line" smooth="yes"/>
      <point x="122" y="514"/>
      <point x="294" y="291"/>
      <point x="533" y="291" type="curve" smooth="yes"/>
      <point x="578" y="291"/>
      <point x="638" y="300"/>
      <point x="696" y="323" type="curve"/>
      <point x="696" y="320" type="line"/>
      <point x="624" y="-21" type="line"/>
      <point x="837" y="-57" type="line"/>
      <point x="863" y="-39" type="line"/>
      <point x="1108" y="1137" type="line"/>
      <point x="1335" y="1137" type="line"/>
      <point x="1354" y="1160" type="line"/>
    </contour>
    <contour>
      <point x="788" y="758" type="line" smooth="yes"/>
      <point x="784" y="737"/>
      <point x="774" y="716"/>
      <point x="765" y="696" type="curve"/>
      <point x="530" y="1137" type="line"/>
      <point x="868" y="1137" type="line"/>
    </contour>
    <contour>
      <point x="384" y="483"/>
      <point x="356" y="534"/>
      <point x="379" y="642" type="curve" smooth="yes"/>
      <point x="451" y="967" type="line"/>
      <point x="658" y="559" type="line"/>
      <point x="599" y="515"/>
      <point x="531" y="483"/>
      <point x="462" y="483" type="curve" smooth="yes"/>
    </contour>
  </outline>
</glyph>
<glyph name="sadeva" format="1">
  <advance width="1420"/>
  <unicode hex="0938"/>
  <outline>
    <contour>
      <point x="1603" y="1160" type="line"/>
      <point x="1582" y="1330" type="line"/>
      <point x="125" y="1330" type="line"/>
      <point x="106" y="1307" type="line"/>
      <point x="127" y="1137" type="line"/>
      <point x="550" y="1144" type="line"/>
      <point x="564" y="1071"/>
      <point x="558" y="1002"/>
      <point x="547" y="946" type="curve" smooth="yes"/>
      <point x="526" y="850"/>
      <point x="480" y="784"/>
      <point x="403" y="737" type="curve"/>
      <point x="357" y="761"/>
      <point x="299" y="779"/>
      <point x="241" y="779" type="curve" smooth="yes"/>
      <point x="163" y="779"/>
      <point x="117" y="735"/>
      <point x="103" y="666" type="curve" smooth="yes"/>
      <point x="55" y="438"/>
      <point x="348" y="-42"/>
      <point x="571" y="-42" type="curve" smooth="yes"/>
      <point x="626" y="-42"/>
      <point x="692" y="-6"/>
      <point x="714" y="65" type="curve"/>
      <point x="530" y="164"/>
      <point x="406" y="263"/>
      <point x="322" y="420" type="curve"/>
      <point x="432" y="447"/>
      <point x="508" y="481"/>
      <point x="579" y="530" type="curve"/>
      <point x="673" y="481"/>
      <point x="788" y="453"/>
      <point x="899" y="453" type="curve" smooth="yes"/>
      <point x="917" y="453"/>
      <point x="945" y="453"/>
      <point x="974" y="459" type="curve"/>
      <point x="970" y="454" type="line"/>
      <point x="872" y="-21" type="line"/>
      <point x="1085" y="-57" type="line"/>
      <point x="1111" y="-39" type="line"/>
      <point x="1356" y="1137" type="line"/>
      <point x="1584" y="1137" type="line"/>
    </contour>
    <contour>
      <point x="724" y="1137" type="line"/>
      <point x="1116" y="1137" type="line"/>
      <point x="1056" y="855" type="line" smooth="yes"/>
      <point x="1028" y="718"/>
      <point x="896" y="636"/>
      <point x="741" y="636" type="curve" smooth="yes"/>
      <point x="722" y="636"/>
      <point x="691" y="637"/>
      <point x="663" y="637" type="curve"/>
      <point x="702" y="685"/>
      <point x="716" y="735"/>
      <point x="726" y="781" type="curve" smooth="yes"/>
      <point x="751" y="898"/>
      <point x="734" y="1014"/>
      <point x="707" y="1121" type="curve"/>
    </contour>
  </outline>
</glyph>
<glyph name="hadeva" format="1">
  <advance width="1065.844"/>
  <unicode hex="0939"/>
  <outline>
    <contour>
      <point x="1230" y="1330" type="line"/>
      <point x="128" y="1330" type="line"/>
      <point x="106" y="1307" type="line"/>
      <point x="123" y="1137" type="line"/>
      <point x="771" y="1137" type="line"/>
      <point x="748" y="1026" type="line" smooth="yes"/>
      <point x="745" y="1013"/>
      <point x="737" y="1006"/>
      <point x="724" y="1006" type="curve" smooth="yes"/>
      <point x="393" y="1006" type="line" smooth="yes"/>
      <point x="230" y="1006"/>
      <point x="147" y="906"/>
      <point x="147" y="786" type="curve" smooth="yes"/>
      <point x="147" y="707"/>
      <point x="183" y="631"/>
      <point x="236" y="578" type="curve"/>
      <point x="142" y="498"/>
      <point x="93" y="404"/>
      <point x="93" y="287" type="curve" smooth="yes"/>
      <point x="93" y="31"/>
      <point x="341" y="-167"/>
      <point x="604" y="-167" type="curve" smooth="yes"/>
      <point x="737" y="-167"/>
      <point x="788" y="-118"/>
      <point x="804" y="-42" type="curve"/>
      <point x="481" y="-42"/>
      <point x="307" y="72"/>
      <point x="307" y="224" type="curve" smooth="yes"/>
      <point x="307" y="387"/>
      <point x="484" y="506"/>
      <point x="648" y="506" type="curve" smooth="yes"/>
      <point x="725" y="506"/>
      <point x="753" y="476"/>
      <point x="753" y="438" type="curve" smooth="yes"/>
      <point x="753" y="374"/>
      <point x="695" y="318"/>
      <point x="559" y="268" type="curve"/>
      <point x="568" y="188"/>
      <point x="637" y="135"/>
      <point x="719" y="135" type="curve" smooth="yes"/>
      <point x="827" y="135"/>
      <point x="925" y="221"/>
      <point x="925" y="365" type="curve" smooth="yes"/>
      <point x="925" y="530"/>
      <point x="786" y="687"/>
      <point x="555" y="687" type="curve" smooth="yes"/>
      <point x="481" y="687"/>
      <point x="412" y="672"/>
      <point x="355" y="649" type="curve"/>
      <point x="352" y="660"/>
      <point x="350" y="675"/>
      <point x="350" y="688" type="curve" smooth="yes"/>
      <point x="350" y="752"/>
      <point x="398" y="825"/>
      <point x="517" y="825" type="curve" smooth="yes"/>
      <point x="920" y="825" type="line"/>
      <point x="944" y="845" type="line"/>
      <point x="1005" y="1137" type="line"/>
      <point x="1225" y="1137" type="line"/>
      <point x="1247" y="1160" type="line"/>
    </contour>
  </outline>
</glyph>
<glyph name="oesigndeva" format="1">
  <advance width="0"/>
  <unicode hex="093A"/>
  <outline>
    <contour>
      <point x="-174" y="1624" type="line"/>
      <point x="-203" y="1602" type="line"/>
      <point x="-273" y="1249" type="line"/>
      <point x="-76" y="1222" type="line"/>
      <point x="-48" y="1244" type="line"/>
      <point x="23" y="1597" type="line"/>
    </contour>
  </outline>
</glyph>
<glyph name="ooesigndeva" format="1">
  <advance width="653"/>
  <unicode hex="093B"/>
  <outline>
    <contour>
      <point x="817" y="1330" type="line"/>
      <point x="603" y="1330" type="line"/>
      <point x="659" y="1597" type="line"/>
      <point x="466" y="1624" type="line"/>
      <point x="437" y="1602" type="line"/>
      <point x="380" y="1330" type="line"/>
      <point x="128" y="1330" type="line"/>
      <point x="106" y="1307" type="line"/>
      <point x="124" y="1137" type="line"/>
      <point x="330" y="1137" type="line"/>
      <point x="87" y="-21" type="line"/>
      <point x="297" y="-57" type="line"/>
      <point x="323" y="-39" type="line"/>
      <point x="570" y="1137" type="line"/>
      <point x="813" y="1137" type="line"/>
      <point x="834" y="1160" type="line"/>
    </contour>
  </outline>
</glyph>
<glyph name="nuktadeva" format="1">
  <advance width="0"/>
  <unicode hex="093C"/>
  <outline>
    <contour>
      <point x="-885" y="176"/>
      <point x="-962" y="107"/>
      <point x="-962" y="29" type="curve" smooth="yes"/>
      <point x="-962" y="-29"/>
      <point x="-920" y="-76"/>
      <point x="-859" y="-76" type="curve" smooth="yes"/>
      <point x="-781" y="-76"/>
      <point x="-705" y="-7"/>
      <point x="-705" y="71" type="curve" smooth="yes"/>
      <point x="-705" y="129"/>
      <point x="-746" y="176"/>
      <point x="-806" y="176" type="curve" smooth="yes"/>
    </contour>
  </outline>
</glyph>
<glyph name="avagrahadeva" format="1">
  <advance width="1060.998"/>
  <unicode hex="093D"/>
  <outline>
    <contour>
      <point x="1025" y="1330" type="line"/>
      <point x="609" y="1330" type="line" smooth="yes"/>
      <point x="407" y="1330"/>
      <point x="264" y="1236"/>
      <point x="264" y="1060" type="curve" smooth="yes"/>
      <point x="264" y="1009"/>
      <point x="277" y="950"/>
      <point x="300" y="903" type="curve" smooth="yes"/>
      <point x="430" y="636"/>
      <point x="756" y="680"/>
      <point x="756" y="498" type="curve" smooth="yes"/>
      <point x="756" y="378"/>
      <point x="642" y="275"/>
      <point x="484" y="275" type="curve" smooth="yes"/>
      <point x="332" y="275"/>
      <point x="214" y="376"/>
      <point x="232" y="636" type="curve"/>
      <point x="141" y="623"/>
      <point x="99" y="568"/>
      <point x="99" y="462" type="curve" smooth="yes"/>
      <point x="99" y="271"/>
      <point x="255" y="39"/>
      <point x="514" y="39" type="curve" smooth="yes"/>
      <point x="764" y="39"/>
      <point x="937" y="231"/>
      <point x="937" y="422" type="curve" smooth="yes"/>
      <point x="937" y="479"/>
      <point x="924" y="551"/>
      <point x="896" y="607" type="curve" smooth="yes"/>
      <point x="773" y="852"/>
      <point x="455" y="838"/>
      <point x="455" y="983" type="curve" smooth="yes"/>
      <point x="455" y="1063"/>
      <point x="529" y="1138"/>
      <point x="731" y="1137" type="curve" smooth="yes"/>
      <point x="1020" y="1137" type="line"/>
      <point x="1042" y="1160" type="line"/>
    </contour>
  </outline>
</glyph>
<glyph name="aasigndeva" format="1">
  <advance width="653"/>
  <unicode hex="093E"/>
  <outline>
    <contour>
      <point x="570" y="1137" type="line"/>
      <point x="817" y="1137" type="line"/>
      <point x="836" y="1160" type="line"/>
      <point x="815" y="1330" type="line"/>
      <point x="125" y="1330" type="line"/>
      <point x="106" y="1307" type="line"/>
      <point x="127" y="1137" type="line"/>
      <point x="330" y="1137" type="line"/>
      <point x="86" y="-21" type="line"/>
      <point x="299" y="-57" type="line"/>
      <point x="325" y="-39" type="line"/>
    </contour>
  </outline>
</glyph>
<glyph name="isigndeva" format="1">
  <advance width="653"/>
  <unicode hex="093F"/>
  <outline>
    <contour>
      <point x="476" y="1926"/>
      <point x="274" y="1752"/>
      <point x="274" y="1532" type="curve" smooth="yes"/>
      <point x="274" y="1460"/>
      <point x="297" y="1389"/>
      <point x="336" y="1330" type="curve"/>
      <point x="128" y="1330" type="line"/>
      <point x="107" y="1307" type="line"/>
      <point x="124" y="1137" type="line"/>
      <point x="330" y="1137" type="line"/>
      <point x="87" y="-21" type="line"/>
      <point x="297" y="-57" type="line"/>
      <point x="323" y="-39" type="line"/>
      <point x="570" y="1137" type="line"/>
      <point x="813" y="1137" type="line"/>
      <point x="835" y="1160" type="line"/>
      <point x="817" y="1330" type="line"/>
      <point x="513" y="1330" type="line"/>
      <point x="490" y="1365"/>
      <point x="481" y="1409"/>
      <point x="481" y="1446" type="curve" smooth="yes"/>
      <point x="481" y="1585"/>
      <point x="604" y="1696"/>
      <point x="853" y="1696" type="curve" smooth="yes"/>
      <point x="1158" y="1696"/>
      <point x="1447" y="1521"/>
      <point x="1617" y="1232" type="curve"/>
      <point x="1766" y="1290" type="line"/>
      <point x="1547" y="1704"/>
      <point x="1178" y="1926"/>
      <point x="810" y="1926" type="curve" smooth="yes"/>
    </contour>
  </outline>
</glyph>
<glyph name="iisigndeva" format="1">
  <advance width="653"/>
  <unicode hex="0940"/>
  <outline>
    <contour>
      <point x="812" y="1137" type="line"/>
      <point x="834" y="1160" type="line"/>
      <point x="817" y="1330" type="line"/>
      <point x="556" y="1330" type="line"/>
      <point x="458" y="1762"/>
      <point x="248" y="1926"/>
      <point x="1" y="1926" type="curve" smooth="yes"/>
      <point x="-245" y="1926"/>
      <point x="-408" y="1772"/>
      <point x="-408" y="1585" type="curve" smooth="yes"/>
      <point x="-408" y="1449"/>
      <point x="-325" y="1314"/>
      <point x="-196" y="1252" type="curve"/>
      <point x="-40" y="1252" type="line"/>
      <point x="-155" y="1341"/>
      <point x="-194" y="1414"/>
      <point x="-194" y="1483" type="curve" smooth="yes"/>
      <point x="-194" y="1613"/>
      <point x="-80" y="1713"/>
      <point x="63" y="1713" type="curve" smooth="yes"/>
      <point x="193" y="1713"/>
      <point x="322" y="1631"/>
      <point x="385" y="1330" type="curve"/>
      <point x="128" y="1330" type="line"/>
      <point x="106" y="1307" type="line"/>
      <point x="123" y="1137" type="line"/>
      <point x="329" y="1137" type="line"/>
      <point x="86" y="-21" type="line"/>
      <point x="297" y="-57" type="line"/>
      <point x="323" y="-39" type="line"/>
      <point x="569" y="1137" type="line"/>
    </contour>
  </outline>
</glyph>
<glyph name="usigndeva" format="1">
  <advance width="0"/>
  <unicode hex="0941"/>
  <outline>
    <contour>
      <point x="-599" y="30"/>
      <point x="-709" y="-44"/>
      <point x="-709" y="-127" type="curve" smooth="yes"/>
      <point x="-709" y="-189"/>
      <point x="-662" y="-239"/>
      <point x="-560" y="-248" type="curve"/>
      <point x="-496" y="-183"/>
      <point x="-446" y="-157"/>
      <point x="-400" y="-157" type="curve" smooth="yes"/>
      <point x="-365" y="-157"/>
      <point x="-344" y="-173"/>
      <point x="-344" y="-205" type="curve" smooth="yes"/>
      <point x="-344" y="-281"/>
      <point x="-433" y="-349"/>
      <point x="-562" y="-349" type="curve" smooth="yes"/>
      <point x="-729" y="-349"/>
      <point x="-861" y="-232"/>
      <point x="-917" y="16" type="curve"/>
      <point x="-969" y="2"/>
      <point x="-1023" y="-56"/>
      <point x="-1023" y="-126" type="curve" smooth="yes"/>
      <point x="-1023" y="-279"/>
      <point x="-834" y="-554"/>
      <point x="-530" y="-554" type="curve" smooth="yes"/>
      <point x="-341" y="-554"/>
      <point x="-178" y="-458"/>
      <point x="-178" y="-276" type="curve" smooth="yes"/>
      <point x="-178" y="-122"/>
      <point x="-301" y="30"/>
      <point x="-473" y="30" type="curve" smooth="yes"/>
    </contour>
    <contour>
      <point x="-301" y="61" type="move" name="_class0"/>
    </contour>
  </outline>
</glyph>
<glyph name="uusigndeva" format="1">
  <advance width="0"/>
  <unicode hex="0942"/>
  <outline>
    <contour>
      <point x="-639" y="21"/>
      <point x="-800" y="-85"/>
      <point x="-800" y="-265" type="curve" smooth="yes"/>
      <point x="-800" y="-409"/>
      <point x="-691" y="-547"/>
      <point x="-517" y="-547" type="curve" smooth="yes"/>
      <point x="-374" y="-547"/>
      <point x="-288" y="-465"/>
      <point x="-288" y="-384" type="curve" smooth="yes"/>
      <point x="-288" y="-328"/>
      <point x="-326" y="-274"/>
      <point x="-412" y="-264" type="curve"/>
      <point x="-485" y="-335"/>
      <point x="-541" y="-360"/>
      <point x="-581" y="-360" type="curve" smooth="yes"/>
      <point x="-614" y="-360"/>
      <point x="-629" y="-340"/>
      <point x="-629" y="-313" type="curve" smooth="yes"/>
      <point x="-629" y="-239"/>
      <point x="-545" y="-186"/>
      <point x="-434" y="-186" type="curve" smooth="yes"/>
      <point x="-299" y="-186"/>
      <point x="-175" y="-267"/>
      <point x="-55" y="-459" type="curve"/>
      <point x="-5" y="-446"/>
      <point x="27" y="-412"/>
      <point x="27" y="-372" type="curve" smooth="yes"/>
      <point x="27" y="-246"/>
      <point x="-216" y="21"/>
      <point x="-471" y="21" type="curve" smooth="yes"/>
    </contour>
    <contour>
      <point x="-309" y="69" type="move" name="_class0"/>
    </contour>
  </outline>
</glyph>
<glyph name="rvocalicsigndeva" format="1">
  <advance width="0"/>
  <unicode hex="0943"/>
  <outline>
    <contour>
      <point x="-441" y="96" type="line"/>
      <point x="-668" y="40"/>
      <point x="-768" y="-67"/>
      <point x="-768" y="-179" type="curve" smooth="yes"/>
      <point x="-768" y="-314"/>
      <point x="-637" y="-478"/>
      <point x="-429" y="-478" type="curve" smooth="yes"/>
      <point x="-292" y="-478"/>
      <point x="-151" y="-412"/>
      <point x="-151" y="-311" type="curve" smooth="yes"/>
      <point x="-151" y="-254"/>
      <point x="-193" y="-194"/>
      <point x="-254" y="-171" type="curve"/>
      <point x="-316" y="-229"/>
      <point x="-445" y="-300"/>
      <point x="-527" y="-300" type="curve" smooth="yes"/>
      <point x="-568" y="-300"/>
      <point x="-586" y="-280"/>
      <point x="-586" y="-250" type="curve" smooth="yes"/>
      <point x="-586" y="-200"/>
      <point x="-552" y="-123"/>
      <point x="-314" y="-59" type="curve"/>
      <point x="-308" y="-32" type="line"/>
    </contour>
    <contour>
      <point x="-292" y="50" type="move" name="_class0"/>
    </contour>
  </outline>
</glyph>
<glyph name="rrvocalicsigndeva" format="1">
  <advance width="0"/>
  <unicode hex="0944"/>
  <outline>
    <contour>
      <point x="-312" y="-32" type="line"/>
      <point x="-481" y="93" type="line"/>
      <point x="-702" y="37"/>
      <point x="-783" y="-63"/>
      <point x="-799" y="-141" type="curve" smooth="yes"/>
      <point x="-818" y="-227"/>
      <point x="-778" y="-310"/>
      <point x="-713" y="-357" type="curve"/>
      <point x="-747" y="-390"/>
      <point x="-754" y="-415"/>
      <point x="-758" y="-435" type="curve" smooth="yes"/>
      <point x="-788" y="-574"/>
      <point x="-649" y="-729"/>
      <point x="-445" y="-729" type="curve" smooth="yes"/>
      <point x="-312" y="-729"/>
      <point x="-212" y="-657"/>
      <point x="-198" y="-591" type="curve" smooth="yes"/>
      <point x="-183" y="-519"/>
      <point x="-252" y="-463"/>
      <point x="-317" y="-433" type="curve"/>
      <point x="-382" y="-516"/>
      <point x="-485" y="-561"/>
      <point x="-552" y="-561" type="curve" smooth="yes"/>
      <point x="-578" y="-561"/>
      <point x="-584" y="-554"/>
      <point x="-580" y="-533" type="curve" smooth="yes"/>
      <point x="-569" y="-481"/>
      <point x="-507" y="-424"/>
      <point x="-301" y="-344" type="curve"/>
      <point x="-301" y="-312" type="line"/>
      <point x="-417" y="-180" type="line"/>
      <point x="-525" y="-245"/>
      <point x="-580" y="-278"/>
      <point x="-625" y="-278" type="curve" smooth="yes"/>
      <point x="-636" y="-278"/>
      <point x="-639" y="-275"/>
      <point x="-635" y="-260" type="curve" smooth="yes"/>
      <point x="-624" y="-204"/>
      <point x="-560" y="-123"/>
      <point x="-306" y="-61" type="curve"/>
    </contour>
  </outline>
</glyph>
<glyph name="ecandrasigndeva" format="1">
  <advance width="0"/>
  <unicode hex="0945"/>
  <outline>
    <contour>
      <point x="-390" y="1893"/>
      <point x="-412" y="1884"/>
      <point x="-424" y="1825" type="curve" smooth="yes"/>
      <point x="-454" y="1681"/>
      <point x="-371" y="1446"/>
      <point x="-98" y="1446" type="curve" smooth="yes"/>
      <point x="85" y="1446"/>
      <point x="228" y="1561"/>
      <point x="259" y="1706" type="curve" smooth="yes"/>
      <point x="280" y="1806"/>
      <point x="240" y="1870"/>
      <point x="157" y="1911" type="curve"/>
      <point x="104" y="1724"/>
      <point x="-12" y="1629"/>
      <point x="-152" y="1629" type="curve" smooth="yes"/>
      <point x="-272" y="1629"/>
      <point x="-329" y="1709"/>
      <point x="-353" y="1897" type="curve"/>
    </contour>
  </outline>
</glyph>
<glyph name="eshortsigndeva" format="1">
  <advance width="220.388"/>
  <unicode hex="0946"/>
  <outline>
    <contour>
      <point x="-961" y="1922"/>
      <point x="-991" y="1896"/>
      <point x="-991" y="1814" type="curve" smooth="yes"/>
      <point x="-991" y="1664"/>
      <point x="-833" y="1519"/>
      <point x="-426" y="1494" type="curve" smooth="yes"/>
      <point x="-260" y="1484"/>
      <point x="-210" y="1464"/>
      <point x="-210" y="1417" type="curve" smooth="yes"/>
      <point x="-210" y="1399"/>
      <point x="-219" y="1369"/>
      <point x="-242" y="1330" type="curve"/>
      <point x="-248" y="1301" type="line"/>
      <point x="-34" y="1301" type="line"/>
      <point x="-28" y="1330" type="line"/>
      <point x="-63" y="1559"/>
      <point x="-200" y="1695"/>
      <point x="-476" y="1740" type="curve" smooth="yes"/>
      <point x="-783" y="1790"/>
      <point x="-870" y="1834"/>
      <point x="-926" y="1956" type="curve"/>
    </contour>
    <contour>
      <point x="93" y="665" type="move" name="_class0"/>
    </contour>
  </outline>
</glyph>
<glyph name="esigndeva" format="1">
  <advance width="0"/>
  <unicode hex="0947"/>
  <outline>
    <contour>
      <point x="-829" y="1932"/>
      <point x="-899" y="1846"/>
      <point x="-899" y="1770" type="curve" smooth="yes"/>
      <point x="-899" y="1697"/>
      <point x="-840" y="1620"/>
      <point x="-741" y="1588" type="curve"/>
      <point x="-705" y="1627"/>
      <point x="-652" y="1658"/>
      <point x="-586" y="1658" type="curve" smooth="yes"/>
      <point x="-493" y="1658"/>
      <point x="-425" y="1607"/>
      <point x="-255" y="1330" type="curve"/>
      <point x="-272" y="1249" type="line"/>
      <point x="-108" y="1249" type="line"/>
      <point x="-91" y="1330" type="line"/>
      <point x="-352" y="1796"/>
      <point x="-500" y="1932"/>
      <point x="-681" y="1932" type="curve" smooth="yes"/>
    </contour>
    <contour>
      <point x="92" y="664" type="move" name="_class0"/>
    </contour>
  </outline>
</glyph>
<glyph name="aisigndeva" format="1">
  <advance width="0"/>
  <unicode hex="0948"/>
  <outline>
    <contour>
      <point x="-511" y="2032"/>
      <point x="-570" y="1959"/>
      <point x="-570" y="1890" type="curve" smooth="yes"/>
      <point x="-570" y="1835"/>
      <point x="-532" y="1774"/>
      <point x="-432" y="1731" type="curve"/>
      <point x="-406" y="1755"/>
      <point x="-372" y="1774"/>
      <point x="-336" y="1774" type="curve" smooth="yes"/>
      <point x="-278" y="1774"/>
      <point x="-241" y="1708"/>
      <point x="-192" y="1436" type="curve"/>
      <point x="-393" y="1632"/>
      <point x="-587" y="1742"/>
      <point x="-720" y="1742" type="curve" smooth="yes"/>
      <point x="-809" y="1742"/>
      <point x="-907" y="1691"/>
      <point x="-907" y="1588" type="curve" smooth="yes"/>
      <point x="-907" y="1521"/>
      <point x="-858" y="1458"/>
      <point x="-747" y="1424" type="curve"/>
      <point x="-713" y="1470"/>
      <point x="-663" y="1497"/>
      <point x="-598" y="1497" type="curve" smooth="yes"/>
      <point x="-521" y="1497"/>
      <point x="-396" y="1436"/>
      <point x="-276" y="1330" type="curve"/>
      <point x="-293" y="1249" type="line"/>
      <point x="-52" y="1249" type="line"/>
      <point x="-35" y="1330" type="line"/>
      <point x="-86" y="1854"/>
      <point x="-216" y="2032"/>
      <point x="-394" y="2032" type="curve" smooth="yes"/>
    </contour>
    <contour>
      <point x="59" y="664" type="move" name="_class0"/>
    </contour>
  </outline>
</glyph>
<glyph name="ocandrasigndeva" format="1">
  <advance width="543"/>
  <unicode hex="0949"/>
  <outline>
    <contour>
      <point x="-120" y="1893"/>
      <point x="-142" y="1884"/>
      <point x="-154" y="1825" type="curve" smooth="yes"/>
      <point x="-184" y="1681"/>
      <point x="-101" y="1446"/>
      <point x="172" y="1446" type="curve" smooth="yes"/>
      <point x="355" y="1446"/>
      <point x="498" y="1561"/>
      <point x="529" y="1706" type="curve" smooth="yes"/>
      <point x="550" y="1806"/>
      <point x="510" y="1870"/>
      <point x="427" y="1911" type="curve"/>
      <point x="374" y="1724"/>
      <point x="258" y="1629"/>
      <point x="118" y="1629" type="curve" smooth="yes"/>
      <point x="-2" y="1629"/>
      <point x="-59" y="1709"/>
      <point x="-83" y="1897" type="curve"/>
    </contour>
    <contour>
      <point x="460" y="1137" type="line"/>
      <point x="707" y="1137" type="line"/>
      <point x="726" y="1160" type="line"/>
      <point x="705" y="1330" type="line"/>
      <point x="15" y="1330" type="line"/>
      <point x="-4" y="1307" type="line"/>
      <point x="17" y="1137" type="line"/>
      <point x="220" y="1137" type="line"/>
      <point x="-24" y="-21" type="line"/>
      <point x="189" y="-57" type="line"/>
      <point x="215" y="-39" type="line"/>
    </contour>
  </outline>
</glyph>
<glyph name="oshortsigndeva" format="1">
  <advance width="653"/>
  <unicode hex="094A"/>
  <outline>
    <contour>
      <point x="815" y="1330" type="line"/>
      <point x="592" y="1322" type="line"/>
      <point x="556" y="1552"/>
      <point x="416" y="1695"/>
      <point x="129" y="1737" type="curve" smooth="yes"/>
      <point x="-167" y="1790"/>
      <point x="-253" y="1827"/>
      <point x="-312" y="1956" type="curve"/>
      <point x="-340" y="1928"/>
      <point x="-349" y="1904"/>
      <point x="-357" y="1868" type="curve" smooth="yes"/>
      <point x="-393" y="1695"/>
      <point x="-240" y="1521"/>
      <point x="219" y="1495" type="curve" smooth="yes"/>
      <point x="394" y="1483"/>
      <point x="427" y="1469"/>
      <point x="416" y="1419" type="curve" smooth="yes"/>
      <point x="411" y="1392"/>
      <point x="397" y="1366"/>
      <point x="381" y="1338" type="curve"/>
      <point x="125" y="1330" type="line"/>
      <point x="106" y="1307" type="line"/>
      <point x="127" y="1137" type="line"/>
      <point x="330" y="1137" type="line"/>
      <point x="86" y="-21" type="line"/>
      <point x="299" y="-57" type="line"/>
      <point x="325" y="-39" type="line"/>
      <point x="570" y="1137" type="line"/>
      <point x="817" y="1137" type="line"/>
      <point x="836" y="1160" type="line"/>
    </contour>
  </outline>
</glyph>
<glyph name="osigndeva" format="1">
  <advance width="653"/>
  <unicode hex="094B"/>
  <outline>
    <contour>
      <point x="815" y="1330" type="line"/>
      <point x="546" y="1324" type="line"/>
      <point x="276" y="1789"/>
      <point x="120" y="1932"/>
      <point x="-75" y="1932" type="curve" smooth="yes"/>
      <point x="-196" y="1932"/>
      <point x="-254" y="1869"/>
      <point x="-266" y="1809" type="curve" smooth="yes"/>
      <point x="-285" y="1719"/>
      <point x="-215" y="1626"/>
      <point x="-101" y="1583" type="curve"/>
      <point x="-76" y="1620"/>
      <point x="-15" y="1658"/>
      <point x="61" y="1658" type="curve" smooth="yes"/>
      <point x="147" y="1658"/>
      <point x="215" y="1612"/>
      <point x="391" y="1336" type="curve"/>
      <point x="125" y="1330" type="line"/>
      <point x="106" y="1307" type="line"/>
      <point x="127" y="1137" type="line"/>
      <point x="330" y="1137" type="line"/>
      <point x="86" y="-21" type="line"/>
      <point x="299" y="-57" type="line"/>
      <point x="325" y="-39" type="line"/>
      <point x="570" y="1137" type="line"/>
      <point x="817" y="1137" type="line"/>
      <point x="836" y="1160" type="line"/>
    </contour>
  </outline>
</glyph>
<glyph name="ausigndeva" format="1">
  <advance width="653"/>
  <unicode hex="094C"/>
  <outline>
    <contour>
      <point x="815" y="1330" type="line"/>
      <point x="579" y="1322" type="line"/>
      <point x="530" y="1847"/>
      <point x="394" y="2032"/>
      <point x="206" y="2032" type="curve" smooth="yes"/>
      <point x="114" y="2032"/>
      <point x="67" y="1981"/>
      <point x="55" y="1927" type="curve" smooth="yes"/>
      <point x="41" y="1857"/>
      <point x="81" y="1784"/>
      <point x="200" y="1727" type="curve"/>
      <point x="217" y="1748"/>
      <point x="257" y="1774"/>
      <point x="303" y="1774" type="curve" smooth="yes"/>
      <point x="352" y="1774"/>
      <point x="388" y="1723"/>
      <point x="430" y="1430" type="curve"/>
      <point x="228" y="1619"/>
      <point x="21" y="1742"/>
      <point x="-121" y="1742" type="curve" smooth="yes"/>
      <point x="-190" y="1742"/>
      <point x="-265" y="1708"/>
      <point x="-282" y="1628" type="curve" smooth="yes"/>
      <point x="-300" y="1542"/>
      <point x="-245" y="1465"/>
      <point x="-117" y="1419" type="curve"/>
      <point x="-93" y="1462"/>
      <point x="-34" y="1497"/>
      <point x="41" y="1497" type="curve" smooth="yes"/>
      <point x="108" y="1497"/>
      <point x="232" y="1441"/>
      <point x="352" y="1335" type="curve"/>
      <point x="125" y="1330" type="line"/>
      <point x="106" y="1307" type="line"/>
      <point x="127" y="1137" type="line"/>
      <point x="330" y="1137" type="line"/>
      <point x="86" y="-21" type="line"/>
      <point x="299" y="-57" type="line"/>
      <point x="325" y="-39" type="line"/>
      <point x="570" y="1137" type="line"/>
      <point x="817" y="1137" type="line"/>
      <point x="836" y="1160" type="line"/>
    </contour>
  </outline>
</glyph>
<glyph name="viramadeva" format="1">
  <advance width="0"/>
  <unicode hex="094D"/>
  <outline>
    <contour>
      <point x="-697" y="-92"/>
      <point x="-754" y="-134"/>
      <point x="-754" y="-202" type="curve" smooth="yes"/>
      <point x="-754" y="-247"/>
      <point x="-726" y="-290"/>
      <point x="-667" y="-338" type="curve"/>
      <point x="-632" y="-333"/>
      <point x="-579" y="-327"/>
      <point x="-533" y="-327" type="curve" smooth="yes"/>
      <point x="-414" y="-327"/>
      <point x="-298" y="-367"/>
      <point x="-148" y="-569" type="curve"/>
      <point x="-95" y="-554"/>
      <point x="-73" y="-520"/>
      <point x="-73" y="-500" type="curve" smooth="yes"/>
      <point x="-73" y="-438"/>
      <point x="-189" y="-263"/>
      <point x="-357" y="-160" type="curve" smooth="yes"/>
      <point x="-462" y="-96"/>
      <point x="-534" y="-92"/>
      <point x="-575" y="-92" type="curve" smooth="yes"/>
    </contour>
    <contour>
      <point x="-307" y="42" type="move" name="_class0"/>
    </contour>
  </outline>
</glyph>
<glyph name="eprishthamatrasigndeva" format="1">
  <advance width="653"/>
  <unicode hex="094E"/>
  <outline>
    <contour>
      <point x="812" y="1137" type="line"/>
      <point x="834" y="1160" type="line"/>
      <point x="817" y="1330" type="line"/>
      <point x="370" y="1330" type="line"/>
      <point x="86" y="-21" type="line"/>
      <point x="297" y="-57" type="line"/>
      <point x="322" y="-39" type="line"/>
      <point x="569" y="1137" type="line"/>
    </contour>
  </outline>
</glyph>
<glyph name="awsigndeva" format="1">
  <advance width="653"/>
  <unicode hex="094F"/>
  <outline>
    <contour>
      <point x="817" y="1330" type="line"/>
      <point x="596" y="1330" type="line"/>
      <point x="632" y="1654"/>
      <point x="531" y="1808"/>
      <point x="227" y="1871" type="curve" smooth="yes"/>
      <point x="-9" y="1920"/>
      <point x="-67" y="1952"/>
      <point x="-86" y="2043" type="curve"/>
      <point x="-123" y="2009"/>
      <point x="-142" y="1964"/>
      <point x="-142" y="1924" type="curve" smooth="yes"/>
      <point x="-142" y="1833"/>
      <point x="-49" y="1729"/>
      <point x="242" y="1687" type="curve" smooth="yes"/>
      <point x="451" y="1657"/>
      <point x="477" y="1590"/>
      <point x="461" y="1488" type="curve"/>
      <point x="400" y="1572"/>
      <point x="267" y="1621"/>
      <point x="37" y="1621" type="curve" smooth="yes"/>
      <point x="-237" y="1621"/>
      <point x="-318" y="1708"/>
      <point x="-367" y="1846" type="curve"/>
      <point x="-400" y="1805"/>
      <point x="-419" y="1770"/>
      <point x="-419" y="1715" type="curve" smooth="yes"/>
      <point x="-419" y="1580"/>
      <point x="-284" y="1437"/>
      <point x="115" y="1437" type="curve" smooth="yes"/>
      <point x="359" y="1437"/>
      <point x="405" y="1406"/>
      <point x="392" y="1343" type="curve"/>
      <point x="388" y="1330" type="line"/>
      <point x="128" y="1330" type="line"/>
      <point x="106" y="1307" type="line"/>
      <point x="124" y="1137" type="line"/>
      <point x="330" y="1137" type="line"/>
      <point x="87" y="-21" type="line"/>
      <point x="297" y="-57" type="line"/>
      <point x="323" y="-39" type="line"/>
      <point x="570" y="1137" type="line"/>
      <point x="813" y="1137" type="line"/>
      <point x="834" y="1160" type="line"/>
    </contour>
  </outline>
</glyph>
<glyph name="omdeva" format="1">
  <advance width="1789"/>
  <unicode hex="0950"/>
  <outline>
    <contour>
      <point x="1431" y="1354"/>
      <point x="1485" y="1401"/>
      <point x="1497" y="1459" type="curve" smooth="yes"/>
      <point x="1512" y="1533"/>
      <point x="1461" y="1595"/>
      <point x="1385" y="1595" type="curve" smooth="yes"/>
      <point x="1328" y="1595"/>
      <point x="1274" y="1549"/>
      <point x="1262" y="1491" type="curve" smooth="yes"/>
      <point x="1246" y="1417"/>
      <point x="1298" y="1354"/>
      <point x="1375" y="1354" type="curve" smooth="yes"/>
    </contour>
    <contour>
      <point x="1540" y="1075"/>
      <point x="1683" y="1190"/>
      <point x="1714" y="1335" type="curve" smooth="yes"/>
      <point x="1735" y="1435"/>
      <point x="1695" y="1499"/>
      <point x="1612" y="1540" type="curve"/>
      <point x="1558" y="1353"/>
      <point x="1442" y="1258"/>
      <point x="1302" y="1258" type="curve" smooth="yes"/>
      <point x="1204" y="1258"/>
      <point x="1119" y="1338"/>
      <point x="1103" y="1526" type="curve"/>
      <point x="1065" y="1522"/>
      <point x="1043" y="1513"/>
      <point x="1031" y="1454" type="curve" smooth="yes"/>
      <point x="1000" y="1310"/>
      <point x="1084" y="1075"/>
      <point x="1357" y="1075" type="curve" smooth="yes"/>
    </contour>
    <contour>
      <point x="1274" y="963"/>
      <point x="1173" y="671"/>
      <point x="932" y="671" type="curve" smooth="yes"/>
      <point x="918" y="671"/>
      <point x="896" y="671"/>
      <point x="876" y="676" type="curve"/>
      <point x="892" y="678" type="line"/>
      <point x="961" y="735"/>
      <point x="997" y="807"/>
      <point x="1015" y="890" type="curve" smooth="yes"/>
      <point x="1066" y="1135"/>
      <point x="910" y="1335"/>
      <point x="629" y="1335" type="curve" smooth="yes"/>
      <point x="429" y="1335"/>
      <point x="301" y="1227"/>
      <point x="279" y="1124" type="curve" smooth="yes"/>
      <point x="257" y="1019"/>
      <point x="339" y="947"/>
      <point x="475" y="939" type="curve"/>
      <point x="494" y="1074"/>
      <point x="605" y="1184"/>
      <point x="740" y="1184" type="curve" smooth="yes"/>
      <point x="817" y="1184"/>
      <point x="852" y="1142"/>
      <point x="833" y="1053" type="curve" smooth="yes"/>
      <point x="802" y="907"/>
      <point x="663" y="808"/>
      <point x="405" y="791" type="curve"/>
      <point x="397" y="765" type="line"/>
      <point x="467" y="551" type="line"/>
      <point x="566" y="560"/>
      <point x="652" y="574"/>
      <point x="732" y="603" type="curve"/>
      <point x="758" y="565"/>
      <point x="766" y="506"/>
      <point x="755" y="454" type="curve" smooth="yes"/>
      <point x="730" y="337"/>
      <point x="614" y="252"/>
      <point x="471" y="252" type="curve" smooth="yes"/>
      <point x="285" y="252"/>
      <point x="192" y="411"/>
      <point x="199" y="768" type="curve"/>
      <point x="113" y="769"/>
      <point x="90" y="737"/>
      <point x="77" y="676" type="curve" smooth="yes"/>
      <point x="37" y="486"/>
      <point x="131" y="2"/>
      <point x="539" y="2" type="curve" smooth="yes"/>
      <point x="741" y="2"/>
      <point x="897" y="130"/>
      <point x="938" y="324" type="curve" smooth="yes"/>
      <point x="950" y="385"/>
      <point x="949" y="438"/>
      <point x="952" y="490" type="curve"/>
      <point x="990" y="480"/>
      <point x="1024" y="470"/>
      <point x="1069" y="470" type="curve" smooth="yes"/>
      <point x="1103" y="470"/>
      <point x="1144" y="478"/>
      <point x="1191" y="504" type="curve"/>
      <point x="1233" y="410"/>
      <point x="1329" y="329"/>
      <point x="1462" y="329" type="curve" smooth="yes"/>
      <point x="1589" y="329"/>
      <point x="1710" y="413"/>
      <point x="1744" y="571" type="curve" smooth="yes"/>
      <point x="1789" y="787"/>
      <point x="1638" y="963"/>
      <point x="1471" y="963" type="curve" smooth="yes"/>
    </contour>
    <contour>
      <point x="1344" y="532"/>
      <point x="1315" y="541"/>
      <point x="1298" y="570" type="curve"/>
      <point x="1408" y="657"/>
      <point x="1498" y="759"/>
      <point x="1575" y="759" type="curve" smooth="yes"/>
      <point x="1595" y="759"/>
      <point x="1602" y="752"/>
      <point x="1594" y="714" type="curve" smooth="yes"/>
      <point x="1574" y="619"/>
      <point x="1469" y="532"/>
      <point x="1371" y="532" type="curve" smooth="yes"/>
    </contour>
  </outline>
</glyph>
<glyph name="udattadeva" format="1">
  <advance width="0"/>
  <unicode hex="0951"/>
  <outline>
    <contour>
      <point x="-130" y="1922" type="line"/>
      <point x="-225" y="1469" type="line"/>
      <point x="-32" y="1442" type="line"/>
      <point x="-3" y="1464" type="line"/>
      <point x="92" y="1917" type="line"/>
      <point x="-101" y="1944" type="line"/>
    </contour>
    <contour>
      <point x="110" y="666" type="move" name="_class0"/>
    </contour>
  </outline>
</glyph>
<glyph name="anudattadeva" format="1">
  <advance width="0"/>
  <unicode hex="0952"/>
  <outline>
    <contour>
      <point x="-317" y="-333" type="line"/>
      <point x="-335" y="-180" type="line"/>
      <point x="-979" y="-180" type="line"/>
      <point x="-961" y="-333" type="line"/>
    </contour>
  </outline>
</glyph>
<glyph name="gravedeva" format="1">
  <advance width="0"/>
  <unicode hex="0953"/>
  <outline>
    <contour>
      <point x="-7" y="1517" type="line"/>
      <point x="-232" y="1930" type="line"/>
      <point x="-412" y="1870" type="line"/>
      <point x="-187" y="1457" type="line"/>
    </contour>
  </outline>
</glyph>
<glyph name="acutedeva" format="1">
  <advance width="0"/>
  <unicode hex="0954"/>
  <outline>
    <contour>
      <point x="190" y="1930" type="line"/>
      <point x="-207" y="1517" type="line"/>
      <point x="-45" y="1457" type="line"/>
      <point x="352" y="1870" type="line"/>
    </contour>
    <contour>
      <point x="95" y="665" type="move" name="_class0"/>
    </contour>
  </outline>
</glyph>
<glyph name="ecandralongsigndeva" format="1">
  <advance width="0"/>
  <unicode hex="0955"/>
  <outline>
    <contour>
      <point x="-380" y="2033"/>
      <point x="-402" y="2024"/>
      <point x="-415" y="1965" type="curve" smooth="yes"/>
      <point x="-445" y="1821"/>
      <point x="-361" y="1586"/>
      <point x="-88" y="1586" type="curve" smooth="yes"/>
      <point x="95" y="1586"/>
      <point x="238" y="1701"/>
      <point x="268" y="1846" type="curve" smooth="yes"/>
      <point x="289" y="1946"/>
      <point x="250" y="2010"/>
      <point x="167" y="2051" type="curve"/>
      <point x="113" y="1864"/>
      <point x="-3" y="1769"/>
      <point x="-143" y="1769" type="curve" smooth="yes"/>
      <point x="-263" y="1769"/>
      <point x="-319" y="1849"/>
      <point x="-343" y="2037" type="curve"/>
    </contour>
    <contour>
      <point x="-493" y="1505" type="line"/>
      <point x="-484" y="1375" type="line"/>
      <point x="195" y="1375" type="line"/>
      <point x="214" y="1398" type="line"/>
      <point x="205" y="1528" type="line"/>
      <point x="-474" y="1528" type="line"/>
    </contour>
  </outline>
</glyph>
<glyph name="uesigndeva" format="1">
  <advance width="0"/>
  <unicode hex="0956"/>
  <outline>
    <contour>
      <point x="-1207" y="-100"/>
      <point x="-1220" y="-125"/>
      <point x="-1229" y="-166" type="curve" smooth="yes"/>
      <point x="-1259" y="-309"/>
      <point x="-1070" y="-501"/>
      <point x="-762" y="-501" type="curve" smooth="yes"/>
      <point x="-538" y="-501"/>
      <point x="-359" y="-396"/>
      <point x="-339" y="-300" type="curve" smooth="yes"/>
      <point x="-321" y="-215"/>
      <point x="-367" y="-154"/>
      <point x="-447" y="-116" type="curve"/>
      <point x="-537" y="-230"/>
      <point x="-701" y="-300"/>
      <point x="-851" y="-300" type="curve" smooth="yes"/>
      <point x="-1003" y="-300"/>
      <point x="-1118" y="-223"/>
      <point x="-1189" y="-85" type="curve"/>
    </contour>
  </outline>
</glyph>
<glyph name="uuesigndeva" format="1">
  <advance width="0"/>
  <unicode hex="0957"/>
  <outline>
    <contour>
      <point x="-1207" y="-100"/>
      <point x="-1220" y="-125"/>
      <point x="-1229" y="-166" type="curve" smooth="yes"/>
      <point x="-1259" y="-309"/>
      <point x="-1070" y="-501"/>
      <point x="-762" y="-501" type="curve" smooth="yes"/>
      <point x="-538" y="-501"/>
      <point x="-359" y="-396"/>
      <point x="-339" y="-300" type="curve" smooth="yes"/>
      <point x="-321" y="-215"/>
      <point x="-367" y="-154"/>
      <point x="-447" y="-116" type="curve"/>
      <point x="-537" y="-230"/>
      <point x="-701" y="-300"/>
      <point x="-851" y="-300" type="curve" smooth="yes"/>
      <point x="-1003" y="-300"/>
      <point x="-1118" y="-223"/>
      <point x="-1189" y="-85" type="curve"/>
    </contour>
    <contour>
      <point x="-557" y="-807"/>
      <point x="-423" y="-744"/>
      <point x="-405" y="-655" type="curve" smooth="yes"/>
      <point x="-394" y="-606"/>
      <point x="-421" y="-546"/>
      <point x="-474" y="-508" type="curve"/>
      <point x="-542" y="-563"/>
      <point x="-671" y="-610"/>
      <point x="-835" y="-610" type="curve" smooth="yes"/>
      <point x="-1024" y="-610"/>
      <point x="-1168" y="-529"/>
      <point x="-1253" y="-385" type="curve"/>
      <point x="-1271" y="-398"/>
      <point x="-1282" y="-420"/>
      <point x="-1290" y="-456" type="curve" smooth="yes"/>
      <point x="-1318" y="-589"/>
      <point x="-1108" y="-807"/>
      <point x="-759" y="-807" type="curve" smooth="yes"/>
    </contour>
    <contour>
      <point x="-381" y="0" type="move" name="_class0"/>
    </contour>
  </outline>
</glyph>
<glyph name="qadeva" format="1">
  <advance width="1622"/>
  <unicode hex="0958"/>
  <outline>
    <contour>
      <point x="1805" y="1160" type="line"/>
      <point x="1784" y="1330" type="line"/>
      <point x="125" y="1330" type="line"/>
      <point x="106" y="1307" type="line"/>
      <point x="127" y="1137" type="line"/>
      <point x="857" y="1137" type="line"/>
      <point x="799" y="873" type="line"/>
      <point x="779" y="862" type="line"/>
      <point x="708" y="947"/>
      <point x="603" y="987"/>
      <point x="499" y="987" type="curve" smooth="yes"/>
      <point x="321" y="987"/>
      <point x="164" y="858"/>
      <point x="126" y="679" type="curve" smooth="yes"/>
      <point x="70" y="411"/>
      <point x="298" y="179"/>
      <point x="530" y="179" type="curve" smooth="yes"/>
      <point x="562" y="179"/>
      <point x="610" y="184"/>
      <point x="660" y="201" type="curve"/>
      <point x="659" y="198" type="line"/>
      <point x="613" y="-21" type="line"/>
      <point x="826" y="-57" type="line"/>
      <point x="852" y="-39" type="line"/>
      <point x="954" y="460" type="line" smooth="yes"/>
      <point x="986" y="611"/>
      <point x="1145" y="735"/>
      <point x="1276" y="735" type="curve" smooth="yes"/>
      <point x="1331" y="735"/>
      <point x="1365" y="711"/>
      <point x="1350" y="637" type="curve" smooth="yes"/>
      <point x="1323" y="509"/>
      <point x="1189" y="345"/>
      <point x="1048" y="283" type="curve"/>
      <point x="1099" y="187"/>
      <point x="1176" y="140"/>
      <point x="1252" y="140" type="curve" smooth="yes"/>
      <point x="1350" y="140"/>
      <point x="1471" y="240"/>
      <point x="1513" y="439" type="curve" smooth="yes"/>
      <point x="1574" y="731"/>
      <point x="1399" y="926"/>
      <point x="1186" y="926" type="curve" smooth="yes"/>
      <point x="1137" y="926"/>
      <point x="1091" y="915"/>
      <point x="1045" y="884" type="curve"/>
      <point x="1041" y="885" type="line"/>
      <point x="1097" y="1137" type="line"/>
      <point x="1786" y="1137" type="line"/>
    </contour>
    <contour>
      <point x="705" y="773"/>
      <point x="763" y="692"/>
      <point x="742" y="590" type="curve" smooth="yes"/>
      <point x="739" y="576" type="line" smooth="yes"/>
      <point x="715" y="464"/>
      <point x="581" y="378"/>
      <point x="464" y="378" type="curve" smooth="yes"/>
      <point x="371" y="378"/>
      <point x="311" y="442"/>
      <point x="334" y="550" type="curve" smooth="yes"/>
      <point x="360" y="673"/>
      <point x="474" y="773"/>
      <point x="600" y="773" type="curve" smooth="yes"/>
    </contour>
    <contour>
      <point x="199" y="106"/>
      <point x="141" y="57"/>
      <point x="128" y="-4" type="curve" smooth="yes"/>
      <point x="112" y="-81"/>
      <point x="166" y="-146"/>
      <point x="246" y="-146" type="curve" smooth="yes"/>
      <point x="305" y="-146"/>
      <point x="361" y="-97"/>
      <point x="374" y="-36" type="curve" smooth="yes"/>
      <point x="390" y="41"/>
      <point x="338" y="106"/>
      <point x="259" y="106" type="curve" smooth="yes"/>
    </contour>
  </outline>
</glyph>
<glyph name="khhadeva" format="1">
  <advance width="1695.844"/>
  <unicode hex="0959"/>
  <outline>
    <contour>
      <point x="1860" y="1330" type="line"/>
      <point x="128" y="1330" type="line"/>
      <point x="106" y="1307" type="line"/>
      <point x="124" y="1137" type="line"/>
      <point x="463" y="1137" type="line"/>
      <point x="469" y="1102"/>
      <point x="471" y="1046"/>
      <point x="471" y="1010" type="curve" smooth="yes"/>
      <point x="471" y="927"/>
      <point x="457" y="828"/>
      <point x="383" y="751" type="curve"/>
      <point x="339" y="770"/>
      <point x="295" y="779"/>
      <point x="257" y="779" type="curve" smooth="yes"/>
      <point x="155" y="779"/>
      <point x="94" y="722"/>
      <point x="94" y="606" type="curve" smooth="yes"/>
      <point x="94" y="336"/>
      <point x="459" y="-54"/>
      <point x="751" y="-54" type="curve" smooth="yes"/>
      <point x="867" y="-54"/>
      <point x="932" y="5"/>
      <point x="968" y="96" type="curve"/>
      <point x="661" y="135"/>
      <point x="450" y="251"/>
      <point x="326" y="433" type="curve"/>
      <point x="584" y="507"/>
      <point x="657" y="699"/>
      <point x="657" y="880" type="curve" smooth="yes"/>
      <point x="657" y="959"/>
      <point x="645" y="1058"/>
      <point x="626" y="1137" type="curve"/>
      <point x="1372" y="1137" type="line"/>
      <point x="1317" y="877" type="line"/>
      <point x="1254" y="948"/>
      <point x="1168" y="986"/>
      <point x="1069" y="986" type="curve" smooth="yes"/>
      <point x="869" y="986"/>
      <point x="712" y="843"/>
      <point x="712" y="638" type="curve" smooth="yes"/>
      <point x="712" y="434"/>
      <point x="873" y="256"/>
      <point x="1066" y="256" type="curve" smooth="yes"/>
      <point x="1102" y="256"/>
      <point x="1141" y="262"/>
      <point x="1191" y="278" type="curve"/>
      <point x="1129" y="-21" type="line"/>
      <point x="1339" y="-57" type="line"/>
      <point x="1365" y="-39" type="line"/>
      <point x="1612" y="1137" type="line"/>
      <point x="1856" y="1137" type="line"/>
      <point x="1877" y="1160" type="line"/>
    </contour>
    <contour>
      <point x="1226" y="784"/>
      <point x="1280" y="699"/>
      <point x="1261" y="611" type="curve" smooth="yes"/>
      <point x="1260" y="604" type="line" smooth="yes"/>
      <point x="1239" y="505"/>
      <point x="1153" y="438"/>
      <point x="1052" y="438" type="curve" smooth="yes"/>
      <point x="951" y="438"/>
      <point x="896" y="509"/>
      <point x="896" y="588" type="curve" smooth="yes"/>
      <point x="896" y="692"/>
      <point x="990" y="784"/>
      <point x="1112" y="784" type="curve" smooth="yes"/>
    </contour>
    <contour>
      <point x="94" y="76"/>
      <point x="17" y="7"/>
      <point x="17" y="-71" type="curve" smooth="yes"/>
      <point x="17" y="-129"/>
      <point x="59" y="-176"/>
      <point x="120" y="-176" type="curve" smooth="yes"/>
      <point x="198" y="-176"/>
      <point x="274" y="-107"/>
      <point x="274" y="-29" type="curve" smooth="yes"/>
      <point x="274" y="29"/>
      <point x="233" y="76"/>
      <point x="173" y="76" type="curve" smooth="yes"/>
    </contour>
  </outline>
</glyph>
<glyph name="ghhadeva" format="1">
  <advance width="1301"/>
  <unicode hex="095A"/>
  <outline>
    <contour>
      <point x="1484" y="1160" type="line"/>
      <point x="1463" y="1330" type="line"/>
      <point x="125" y="1330" type="line"/>
      <point x="106" y="1307" type="line"/>
      <point x="127" y="1137" type="line"/>
      <point x="408" y="1137" type="line"/>
      <point x="311" y="676" type="line"/>
      <point x="186" y="676" type="line" smooth="yes"/>
      <point x="116" y="676"/>
      <point x="93" y="657"/>
      <point x="85" y="619" type="curve" smooth="yes"/>
      <point x="65" y="525"/>
      <point x="226" y="303"/>
      <point x="359" y="303" type="curve" smooth="yes"/>
      <point x="437" y="303"/>
      <point x="474" y="336"/>
      <point x="510" y="506" type="curve" smooth="yes"/>
      <point x="643" y="1137" type="line"/>
      <point x="998" y="1137" type="line"/>
      <point x="754" y="-21" type="line"/>
      <point x="967" y="-57" type="line"/>
      <point x="993" y="-39" type="line"/>
      <point x="1238" y="1137" type="line"/>
      <point x="1465" y="1137" type="line"/>
    </contour>
    <contour>
      <point x="383" y="176"/>
      <point x="326" y="127"/>
      <point x="313" y="66" type="curve" smooth="yes"/>
      <point x="297" y="-11"/>
      <point x="350" y="-76"/>
      <point x="430" y="-76" type="curve" smooth="yes"/>
      <point x="489" y="-76"/>
      <point x="546" y="-27"/>
      <point x="558" y="34" type="curve" smooth="yes"/>
      <point x="575" y="111"/>
      <point x="522" y="176"/>
      <point x="443" y="176" type="curve" smooth="yes"/>
    </contour>
  </outline>
</glyph>
<glyph name="zadeva" format="1">
  <advance width="1481.844"/>
  <unicode hex="095B"/>
  <outline>
    <contour>
      <point x="1645" y="1330" type="line"/>
      <point x="128" y="1330" type="line"/>
      <point x="106" y="1307" type="line"/>
      <point x="124" y="1137" type="line"/>
      <point x="1178" y="1137" type="line"/>
      <point x="1133" y="923" type="line"/>
      <point x="537" y="923" type="line"/>
      <point x="515" y="900" type="line"/>
      <point x="532" y="730" type="line"/>
      <point x="642" y="730"/>
      <point x="694" y="665"/>
      <point x="694" y="587" type="curve" smooth="yes"/>
      <point x="694" y="468"/>
      <point x="593" y="399"/>
      <point x="492" y="399" type="curve" smooth="yes"/>
      <point x="343" y="399"/>
      <point x="269" y="557"/>
      <point x="294" y="943" type="curve"/>
      <point x="203" y="935"/>
      <point x="135" y="899"/>
      <point x="135" y="717" type="curve" smooth="yes"/>
      <point x="135" y="519"/>
      <point x="221" y="149"/>
      <point x="512" y="149" type="curve" smooth="yes"/>
      <point x="709" y="149"/>
      <point x="888" y="290"/>
      <point x="888" y="504" type="curve" smooth="yes"/>
      <point x="888" y="578"/>
      <point x="865" y="661"/>
      <point x="819" y="730" type="curve"/>
      <point x="1092" y="730" type="line"/>
      <point x="935" y="-21" type="line"/>
      <point x="1145" y="-57" type="line"/>
      <point x="1171" y="-39" type="line"/>
      <point x="1418" y="1137" type="line"/>
      <point x="1641" y="1137" type="line"/>
      <point x="1663" y="1160" type="line"/>
    </contour>
    <contour>
      <point x="368" y="46"/>
      <point x="291" y="-23"/>
      <point x="291" y="-101" type="curve" smooth="yes"/>
      <point x="291" y="-159"/>
      <point x="333" y="-206"/>
      <point x="394" y="-206" type="curve" smooth="yes"/>
      <point x="472" y="-206"/>
      <point x="548" y="-137"/>
      <point x="548" y="-59" type="curve" smooth="yes"/>
      <point x="548" y="-1"/>
      <point x="507" y="46"/>
      <point x="447" y="46" type="curve" smooth="yes"/>
    </contour>
  </outline>
</glyph>
<glyph name="rhadeva" format="1">
  <advance width="1087.844"/>
  <unicode hex="095D"/>
  <outline>
    <contour>
      <point x="1252" y="1330" type="line"/>
      <point x="128" y="1330" type="line"/>
      <point x="106" y="1307" type="line"/>
      <point x="124" y="1137" type="line"/>
      <point x="762" y="1137" type="line"/>
      <point x="732" y="996" type="line" smooth="yes"/>
      <point x="729" y="983"/>
      <point x="721" y="976"/>
      <point x="708" y="976" type="curve" smooth="yes"/>
      <point x="602" y="976" type="line" smooth="yes"/>
      <point x="267" y="976"/>
      <point x="55" y="770"/>
      <point x="55" y="505" type="curve" smooth="yes"/>
      <point x="55" y="233"/>
      <point x="283" y="1"/>
      <point x="549" y="1" type="curve" smooth="yes"/>
      <point x="783" y="1"/>
      <point x="977" y="163"/>
      <point x="977" y="350" type="curve" smooth="yes"/>
      <point x="977" y="492"/>
      <point x="869" y="645"/>
      <point x="718" y="645" type="curve" smooth="yes"/>
      <point x="594" y="645"/>
      <point x="483" y="554"/>
      <point x="483" y="408" type="curve" smooth="yes"/>
      <point x="483" y="333"/>
      <point x="514" y="261"/>
      <point x="560" y="204" type="curve"/>
      <point x="529" y="196"/>
      <point x="498" y="192"/>
      <point x="467" y="192" type="curve" smooth="yes"/>
      <point x="340" y="192"/>
      <point x="254" y="271"/>
      <point x="254" y="406" type="curve" smooth="yes"/>
      <point x="254" y="604"/>
      <point x="430" y="769"/>
      <point x="689" y="769" type="curve" smooth="yes"/>
      <point x="898" y="769" type="line"/>
      <point x="923" y="789" type="line"/>
      <point x="996" y="1137" type="line"/>
      <point x="1248" y="1137" type="line"/>
      <point x="1269" y="1160" type="line"/>
    </contour>
    <contour>
      <point x="811" y="481"/>
      <point x="827" y="464"/>
      <point x="827" y="437" type="curve" smooth="yes"/>
      <point x="827" y="375"/>
      <point x="763" y="300"/>
      <point x="673" y="250" type="curve"/>
      <point x="666" y="273"/>
      <point x="662" y="301"/>
      <point x="662" y="322" type="curve" smooth="yes"/>
      <point x="662" y="411"/>
      <point x="728" y="481"/>
      <point x="787" y="481" type="curve" smooth="yes"/>
    </contour>
    <contour>
      <point x="404" y="-64"/>
      <point x="326" y="-133"/>
      <point x="326" y="-211" type="curve" smooth="yes"/>
      <point x="326" y="-269"/>
      <point x="369" y="-316"/>
      <point x="430" y="-316" type="curve" smooth="yes"/>
      <point x="508" y="-316"/>
      <point x="584" y="-247"/>
      <point x="584" y="-169" type="curve" smooth="yes"/>
      <point x="584" y="-111"/>
      <point x="543" y="-64"/>
      <point x="483" y="-64" type="curve" smooth="yes"/>
    </contour>
  </outline>
</glyph>
<glyph name="fadeva" format="1">
  <advance width="1560.844"/>
  <unicode hex="095E"/>
  <outline>
    <contour>
      <point x="1724" y="1330" type="line"/>
      <point x="128" y="1330" type="line"/>
      <point x="106" y="1307" type="line"/>
      <point x="124" y="1137" type="line"/>
      <point x="253" y="1137" type="line"/>
      <point x="171" y="745" type="line" smooth="yes"/>
      <point x="120" y="506"/>
      <point x="289" y="301"/>
      <point x="510" y="301" type="curve" smooth="yes"/>
      <point x="548" y="301"/>
      <point x="583" y="307"/>
      <point x="637" y="325" type="curve"/>
      <point x="565" y="-21" type="line"/>
      <point x="765" y="-57" type="line"/>
      <point x="791" y="-39" type="line"/>
      <point x="908" y="518" type="line" smooth="yes"/>
      <point x="938" y="659"/>
      <point x="1086" y="755"/>
      <point x="1197" y="755" type="curve" smooth="yes"/>
      <point x="1258" y="755"/>
      <point x="1284" y="721"/>
      <point x="1284" y="668" type="curve" smooth="yes"/>
      <point x="1284" y="545"/>
      <point x="1157" y="370"/>
      <point x="994" y="293" type="curve"/>
      <point x="1035" y="206"/>
      <point x="1102" y="170"/>
      <point x="1164" y="170" type="curve" smooth="yes"/>
      <point x="1292" y="170"/>
      <point x="1468" y="317"/>
      <point x="1468" y="589" type="curve" smooth="yes"/>
      <point x="1468" y="808"/>
      <point x="1330" y="942"/>
      <point x="1156" y="942" type="curve" smooth="yes"/>
      <point x="1102" y="942"/>
      <point x="1051" y="930"/>
      <point x="988" y="899" type="curve"/>
      <point x="1038" y="1137" type="line"/>
      <point x="1720" y="1137" type="line"/>
      <point x="1742" y="1160" type="line"/>
    </contour>
    <contour>
      <point x="808" y="1137" type="line"/>
      <point x="724" y="740" type="line" smooth="yes"/>
      <point x="695" y="601"/>
      <point x="553" y="488"/>
      <point x="449" y="488" type="curve" smooth="yes"/>
      <point x="386" y="488"/>
      <point x="366" y="531"/>
      <point x="384" y="620" type="curve" smooth="yes"/>
      <point x="493" y="1137" type="line"/>
    </contour>
    <contour>
      <point x="215" y="176"/>
      <point x="138" y="107"/>
      <point x="138" y="29" type="curve" smooth="yes"/>
      <point x="138" y="-29"/>
      <point x="180" y="-76"/>
      <point x="241" y="-76" type="curve" smooth="yes"/>
      <point x="319" y="-76"/>
      <point x="395" y="-7"/>
      <point x="395" y="71" type="curve" smooth="yes"/>
      <point x="395" y="129"/>
      <point x="354" y="176"/>
      <point x="294" y="176" type="curve" smooth="yes"/>
    </contour>
  </outline>
</glyph>
<glyph name="yyadeva" format="1">
  <advance width="1348"/>
  <unicode hex="095F"/>
  <outline>
    <contour>
      <point x="1531" y="1160" type="line"/>
      <point x="1510" y="1330" type="line"/>
      <point x="125" y="1330" type="line"/>
      <point x="106" y="1307" type="line"/>
      <point x="127" y="1137" type="line"/>
      <point x="527" y="1144" type="line"/>
      <point x="534" y="1108"/>
      <point x="531" y="1066"/>
      <point x="523" y="1029" type="curve" smooth="yes"/>
      <point x="496" y="902"/>
      <point x="401" y="818"/>
      <point x="173" y="756" type="curve"/>
      <point x="169" y="735" type="line"/>
      <point x="263" y="357"/>
      <point x="489" y="201"/>
      <point x="718" y="201" type="curve" smooth="yes"/>
      <point x="762" y="201"/>
      <point x="807" y="207"/>
      <point x="852" y="222" type="curve"/>
      <point x="851" y="219" type="line"/>
      <point x="801" y="-21" type="line"/>
      <point x="1013" y="-57" type="line"/>
      <point x="1039" y="-39" type="line"/>
      <point x="1285" y="1137" type="line"/>
      <point x="1512" y="1137" type="line"/>
    </contour>
    <contour>
      <point x="688" y="1137" type="line"/>
      <point x="1045" y="1137" type="line"/>
      <point x="952" y="698" type="line" smooth="yes"/>
      <point x="918" y="536"/>
      <point x="740" y="421"/>
      <point x="592" y="421" type="curve" smooth="yes"/>
      <point x="509" y="421"/>
      <point x="429" y="462"/>
      <point x="393" y="558" type="curve"/>
      <point x="579" y="626"/>
      <point x="678" y="718"/>
      <point x="704" y="842" type="curve" smooth="yes"/>
      <point x="723" y="933"/>
      <point x="704" y="1035"/>
      <point x="669" y="1120" type="curve"/>
    </contour>
    <contour>
      <point x="193" y="176"/>
      <point x="136" y="127"/>
      <point x="123" y="66" type="curve" smooth="yes"/>
      <point x="107" y="-11"/>
      <point x="160" y="-76"/>
      <point x="240" y="-76" type="curve" smooth="yes"/>
      <point x="299" y="-76"/>
      <point x="356" y="-27"/>
      <point x="368" y="34" type="curve" smooth="yes"/>
      <point x="385" y="111"/>
      <point x="332" y="176"/>
      <point x="253" y="176" type="curve" smooth="yes"/>
    </contour>
  </outline>
</glyph>
<glyph name="rrvocalicdeva" format="1">
  <advance width="1773"/>
  <unicode hex="0960"/>
  <outline>
    <contour>
      <point x="1954" y="1160" type="line"/>
      <point x="1933" y="1330" type="line"/>
      <point x="125" y="1330" type="line"/>
      <point x="106" y="1307" type="line"/>
      <point x="127" y="1137" type="line"/>
      <point x="918" y="1137" type="line"/>
      <point x="839" y="771" type="line"/>
      <point x="819" y="761" type="line"/>
      <point x="606" y="965"/>
      <point x="521" y="1019"/>
      <point x="402" y="1019" type="curve" smooth="yes"/>
      <point x="264" y="1019"/>
      <point x="176" y="939"/>
      <point x="163" y="875" type="curve" smooth="yes"/>
      <point x="146" y="795"/>
      <point x="209" y="727"/>
      <point x="312" y="662" type="curve"/>
      <point x="366" y="724"/>
      <point x="461" y="779"/>
      <point x="544" y="779" type="curve" smooth="yes"/>
      <point x="584" y="779"/>
      <point x="617" y="779"/>
      <point x="739" y="677" type="curve"/>
      <point x="527" y="555"/>
      <point x="344" y="430"/>
      <point x="172" y="301" type="curve"/>
      <point x="177" y="268" type="line"/>
      <point x="343" y="92" type="line"/>
      <point x="472" y="195"/>
      <point x="612" y="297"/>
      <point x="759" y="393" type="curve"/>
      <point x="761" y="393" type="line"/>
      <point x="674" y="-21" type="line"/>
      <point x="887" y="-57" type="line"/>
      <point x="913" y="-39" type="line"/>
      <point x="1035" y="507" type="line"/>
      <point x="1155" y="512"/>
      <point x="1270" y="537"/>
      <point x="1369" y="582" type="curve"/>
      <point x="1374" y="532" type="line"/>
      <point x="1222" y="453"/>
      <point x="1151" y="385"/>
      <point x="1135" y="307" type="curve" smooth="yes"/>
      <point x="1102" y="151"/>
      <point x="1261" y="-70"/>
      <point x="1481" y="-70" type="curve" smooth="yes"/>
      <point x="1602" y="-70"/>
      <point x="1711" y="5"/>
      <point x="1727" y="81" type="curve" smooth="yes"/>
      <point x="1746" y="171"/>
      <point x="1652" y="248"/>
      <point x="1589" y="272" type="curve"/>
      <point x="1528" y="177"/>
      <point x="1398" y="118"/>
      <point x="1323" y="118" type="curve" smooth="yes"/>
      <point x="1299" y="118"/>
      <point x="1295" y="124"/>
      <point x="1300" y="146" type="curve" smooth="yes"/>
      <point x="1314" y="210"/>
      <point x="1387" y="274"/>
      <point x="1574" y="370" type="curve"/>
      <point x="1539" y="457"/>
      <point x="1511" y="548"/>
      <point x="1489" y="648" type="curve"/>
      <point x="1564" y="708"/>
      <point x="1603" y="767"/>
      <point x="1615" y="822" type="curve" smooth="yes"/>
      <point x="1639" y="937"/>
      <point x="1554" y="1055"/>
      <point x="1419" y="1055" type="curve" smooth="yes"/>
      <point x="1329" y="1055"/>
      <point x="1287" y="993"/>
      <point x="1278" y="950" type="curve" smooth="yes"/>
      <point x="1268" y="903"/>
      <point x="1273" y="867"/>
      <point x="1289" y="819" type="curve"/>
      <point x="1214" y="772"/>
      <point x="1140" y="741"/>
      <point x="1061" y="726" type="curve"/>
      <point x="1158" y="1137" type="line"/>
      <point x="1935" y="1137" type="line"/>
    </contour>
  </outline>
</glyph>
<glyph name="llvocalicdeva" format="1">
  <advance width="1520.272"/>
  <unicode hex="0961"/>
  <outline>
    <contour>
      <point x="1677" y="1330" type="line"/>
      <point x="128" y="1330" type="line"/>
      <point x="106" y="1307" type="line"/>
      <point x="123" y="1137" type="line"/>
      <point x="1047" y="1137" type="line"/>
      <point x="998" y="900" type="line"/>
      <point x="921" y="883"/>
      <point x="839" y="840"/>
      <point x="759" y="770" type="curve"/>
      <point x="665" y="881"/>
      <point x="570" y="924"/>
      <point x="466" y="924" type="curve" smooth="yes"/>
      <point x="254" y="924"/>
      <point x="108" y="760"/>
      <point x="108" y="543" type="curve" smooth="yes"/>
      <point x="108" y="281"/>
      <point x="287" y="-48"/>
      <point x="440" y="-48" type="curve" smooth="yes"/>
      <point x="480" y="-48"/>
      <point x="520" y="-27"/>
      <point x="543" y="34" type="curve"/>
      <point x="396" y="156"/>
      <point x="324" y="328"/>
      <point x="324" y="459" type="curve" smooth="yes"/>
      <point x="324" y="600"/>
      <point x="419" y="708"/>
      <point x="538" y="708" type="curve" smooth="yes"/>
      <point x="578" y="708"/>
      <point x="622" y="695"/>
      <point x="660" y="666" type="curve"/>
      <point x="627" y="624"/>
      <point x="594" y="576"/>
      <point x="562" y="522" type="curve"/>
      <point x="736" y="385" type="line"/>
      <point x="764" y="394" type="line"/>
      <point x="904" y="611"/>
      <point x="1048" y="691"/>
      <point x="1147" y="691" type="curve" smooth="yes"/>
      <point x="1189" y="691"/>
      <point x="1215" y="674"/>
      <point x="1215" y="635" type="curve" smooth="yes"/>
      <point x="1215" y="548"/>
      <point x="1136" y="501"/>
      <point x="982" y="384" type="curve" smooth="yes"/>
      <point x="801" y="247"/>
      <point x="743" y="193"/>
      <point x="743" y="92" type="curve" smooth="yes"/>
      <point x="743" y="18"/>
      <point x="786" y="-47"/>
      <point x="859" y="-91" type="curve"/>
      <point x="836" y="-115"/>
      <point x="815" y="-138"/>
      <point x="815" y="-194" type="curve" smooth="yes"/>
      <point x="815" y="-320"/>
      <point x="944" y="-447"/>
      <point x="1124" y="-447" type="curve" smooth="yes"/>
      <point x="1276" y="-447"/>
      <point x="1397" y="-364"/>
      <point x="1397" y="-282" type="curve" smooth="yes"/>
      <point x="1397" y="-225"/>
      <point x="1341" y="-177"/>
      <point x="1286" y="-157" type="curve"/>
      <point x="1213" y="-245"/>
      <point x="1089" y="-290"/>
      <point x="1027" y="-290" type="curve" smooth="yes"/>
      <point x="997" y="-290"/>
      <point x="983" y="-279"/>
      <point x="983" y="-259" type="curve" smooth="yes"/>
      <point x="983" y="-220"/>
      <point x="1021" y="-163"/>
      <point x="1280" y="-61" type="curve"/>
      <point x="1293" y="-32" type="line"/>
      <point x="1176" y="106" type="line"/>
      <point x="1079" y="52"/>
      <point x="1017" y="26"/>
      <point x="982" y="26" type="curve" smooth="yes"/>
      <point x="959" y="26"/>
      <point x="951" y="39"/>
      <point x="951" y="53" type="curve" smooth="yes"/>
      <point x="951" y="113"/>
      <point x="1091" y="198"/>
      <point x="1203" y="279" type="curve" smooth="yes"/>
      <point x="1384" y="410"/>
      <point x="1399" y="447"/>
      <point x="1399" y="569" type="curve" smooth="yes"/>
      <point x="1399" y="700"/>
      <point x="1326" y="819"/>
      <point x="1222" y="873" type="curve"/>
      <point x="1277" y="1137" type="line"/>
      <point x="1672" y="1137" type="line"/>
      <point x="1694" y="1160" type="line"/>
    </contour>
  </outline>
</glyph>
<glyph name="lvocalicsigndeva" format="1">
  <advance width="0"/>
  <unicode hex="0962"/>
  <outline>
    <contour>
      <point x="-565" y="-621"/>
      <point x="-474" y="-582"/>
      <point x="-387" y="-508" type="curve" smooth="yes"/>
      <point x="-323" y="-452"/>
      <point x="-272" y="-397"/>
      <point x="-272" y="-299" type="curve" smooth="yes"/>
      <point x="-272" y="-172"/>
      <point x="-373" y="-80"/>
      <point x="-492" y="-80" type="curve" smooth="yes"/>
      <point x="-547" y="-80"/>
      <point x="-615" y="-98"/>
      <point x="-678" y="-153" type="curve"/>
      <point x="-741" y="-94"/>
      <point x="-803" y="-70"/>
      <point x="-869" y="-70" type="curve" smooth="yes"/>
      <point x="-1009" y="-70"/>
      <point x="-1102" y="-171"/>
      <point x="-1102" y="-307" type="curve" smooth="yes"/>
      <point x="-1102" y="-494"/>
      <point x="-932" y="-677"/>
      <point x="-853" y="-677" type="curve" smooth="yes"/>
      <point x="-823" y="-677"/>
      <point x="-782" y="-652"/>
      <point x="-764" y="-611" type="curve"/>
      <point x="-881" y="-540"/>
      <point x="-947" y="-435"/>
      <point x="-947" y="-352" type="curve" smooth="yes"/>
      <point x="-947" y="-275"/>
      <point x="-882" y="-215"/>
      <point x="-806" y="-215" type="curve" smooth="yes"/>
      <point x="-785" y="-215"/>
      <point x="-765" y="-220"/>
      <point x="-746" y="-229" type="curve"/>
      <point x="-774" y="-269"/>
      <point x="-799" y="-319"/>
      <point x="-821" y="-380" type="curve"/>
      <point x="-700" y="-453" type="line"/>
      <point x="-673" y="-440" type="line"/>
      <point x="-603" y="-256"/>
      <point x="-506" y="-215"/>
      <point x="-455" y="-215" type="curve" smooth="yes"/>
      <point x="-424" y="-215"/>
      <point x="-408" y="-232"/>
      <point x="-408" y="-258" type="curve" smooth="yes"/>
      <point x="-408" y="-318"/>
      <point x="-483" y="-376"/>
      <point x="-545" y="-431" type="curve" smooth="yes"/>
      <point x="-632" y="-507"/>
      <point x="-684" y="-563"/>
      <point x="-684" y="-619" type="curve" smooth="yes"/>
      <point x="-684" y="-696"/>
      <point x="-599" y="-793"/>
      <point x="-475" y="-793" type="curve" smooth="yes"/>
      <point x="-378" y="-793"/>
      <point x="-301" y="-738"/>
      <point x="-301" y="-686" type="curve" smooth="yes"/>
      <point x="-301" y="-652"/>
      <point x="-331" y="-619"/>
      <point x="-382" y="-599" type="curve"/>
      <point x="-424" y="-653"/>
      <point x="-495" y="-679"/>
      <point x="-533" y="-679" type="curve" smooth="yes"/>
      <point x="-553" y="-679"/>
      <point x="-565" y="-672"/>
      <point x="-565" y="-657" type="curve" smooth="yes"/>
    </contour>
    <contour>
      <point x="-343" y="37" type="move" name="_class0"/>
    </contour>
  </outline>
</glyph>
<glyph name="llvocalicsigndeva" format="1">
  <advance width="0"/>
  <unicode hex="0963"/>
  <outline>
    <contour>
      <point x="-956" y="-70"/>
      <point x="-1051" y="-171"/>
      <point x="-1051" y="-304" type="curve" smooth="yes"/>
      <point x="-1051" y="-488"/>
      <point x="-879" y="-667"/>
      <point x="-801" y="-667" type="curve" smooth="yes"/>
      <point x="-771" y="-667"/>
      <point x="-729" y="-642"/>
      <point x="-712" y="-601" type="curve"/>
      <point x="-831" y="-530"/>
      <point x="-896" y="-430"/>
      <point x="-896" y="-350" type="curve" smooth="yes"/>
      <point x="-896" y="-275"/>
      <point x="-831" y="-215"/>
      <point x="-756" y="-215" type="curve" smooth="yes"/>
      <point x="-735" y="-215"/>
      <point x="-715" y="-220"/>
      <point x="-696" y="-229" type="curve"/>
      <point x="-723" y="-269"/>
      <point x="-749" y="-319"/>
      <point x="-770" y="-380" type="curve"/>
      <point x="-650" y="-453" type="line"/>
      <point x="-622" y="-439" type="line"/>
      <point x="-549" y="-255"/>
      <point x="-447" y="-216"/>
      <point x="-399" y="-216" type="curve" smooth="yes"/>
      <point x="-373" y="-216"/>
      <point x="-359" y="-228"/>
      <point x="-359" y="-252" type="curve" smooth="yes"/>
      <point x="-359" y="-310"/>
      <point x="-418" y="-348"/>
      <point x="-501" y="-410" type="curve" smooth="yes"/>
      <point x="-604" y="-485"/>
      <point x="-637" y="-527"/>
      <point x="-637" y="-584" type="curve" smooth="yes"/>
      <point x="-637" y="-628"/>
      <point x="-605" y="-675"/>
      <point x="-559" y="-705" type="curve"/>
      <point x="-592" y="-731"/>
      <point x="-602" y="-755"/>
      <point x="-602" y="-782" type="curve" smooth="yes"/>
      <point x="-602" y="-859"/>
      <point x="-517" y="-956"/>
      <point x="-393" y="-956" type="curve" smooth="yes"/>
      <point x="-296" y="-956"/>
      <point x="-220" y="-901"/>
      <point x="-220" y="-849" type="curve" smooth="yes"/>
      <point x="-220" y="-815"/>
      <point x="-249" y="-782"/>
      <point x="-301" y="-762" type="curve"/>
      <point x="-343" y="-816"/>
      <point x="-414" y="-842"/>
      <point x="-452" y="-842" type="curve" smooth="yes"/>
      <point x="-472" y="-842"/>
      <point x="-483" y="-835"/>
      <point x="-483" y="-820" type="curve" smooth="yes"/>
      <point x="-483" y="-797"/>
      <point x="-467" y="-759"/>
      <point x="-317" y="-697" type="curve"/>
      <point x="-301" y="-670" type="line"/>
      <point x="-347" y="-572" type="line"/>
      <point x="-408" y="-608"/>
      <point x="-455" y="-630"/>
      <point x="-481" y="-630" type="curve" smooth="yes"/>
      <point x="-493" y="-630"/>
      <point x="-499" y="-624"/>
      <point x="-499" y="-615" type="curve" smooth="yes"/>
      <point x="-499" y="-576"/>
      <point x="-435" y="-556"/>
      <point x="-345" y="-494" type="curve" smooth="yes"/>
      <point x="-278" y="-447"/>
      <point x="-221" y="-398"/>
      <point x="-221" y="-298" type="curve" smooth="yes"/>
      <point x="-221" y="-173"/>
      <point x="-324" y="-80"/>
      <point x="-442" y="-80" type="curve" smooth="yes"/>
      <point x="-495" y="-80"/>
      <point x="-563" y="-98"/>
      <point x="-628" y="-153" type="curve"/>
      <point x="-690" y="-94"/>
      <point x="-751" y="-70"/>
      <point x="-821" y="-70" type="curve" smooth="yes"/>
    </contour>
    <contour>
      <point x="-371" y="34" type="move" name="_class0"/>
    </contour>
  </outline>
</glyph>
<glyph name="danda" format="1">
  <advance width="941"/>
  <unicode hex="0964"/>
  <outline>
    <contour>
      <point x="688" y="1348" type="line"/>
      <point x="663" y="1330" type="line"/>
      <point x="372" y="-61" type="line"/>
      <point x="586" y="-97" type="line"/>
      <point x="612" y="-79" type="line"/>
      <point x="902" y="1312" type="line"/>
    </contour>
  </outline>
</glyph>
<glyph name="dbldanda" format="1">
  <advance width="1336.136"/>
  <unicode hex="0965"/>
  <outline>
    <contour>
      <point x="663" y="1330" type="line"/>
      <point x="371" y="-61" type="line"/>
      <point x="582" y="-97" type="line"/>
      <point x="607" y="-79" type="line"/>
      <point x="899" y="1312" type="line"/>
      <point x="689" y="1348" type="line"/>
    </contour>
    <contour>
      <point x="1063" y="1330" type="line"/>
      <point x="771" y="-61" type="line"/>
      <point x="982" y="-97" type="line"/>
      <point x="1007" y="-79" type="line"/>
      <point x="1299" y="1312" type="line"/>
      <point x="1089" y="1348" type="line"/>
    </contour>
  </outline>
</glyph>
<glyph name="zerodeva" format="1">
  <advance width="1118"/>
  <unicode hex="0966"/>
  <outline>
    <contour>
      <point x="1067" y="782"/>
      <point x="875" y="1046"/>
      <point x="586" y="1046" type="curve" smooth="yes"/>
      <point x="367" y="1046"/>
      <point x="170" y="881"/>
      <point x="125" y="670" type="curve" smooth="yes"/>
      <point x="68" y="399"/>
      <point x="273" y="136"/>
      <point x="560" y="136" type="curve" smooth="yes"/>
      <point x="767" y="136"/>
      <point x="962" y="284"/>
      <point x="1009" y="506" type="curve" smooth="yes"/>
    </contour>
    <contour>
      <point x="795" y="829"/>
      <point x="853" y="765"/>
      <point x="828" y="650" type="curve" smooth="yes"/>
      <point x="792" y="478"/>
      <point x="612" y="348"/>
      <point x="456" y="348" type="curve" smooth="yes"/>
      <point x="344" y="348"/>
      <point x="296" y="426"/>
      <point x="318" y="531" type="curve" smooth="yes"/>
      <point x="351" y="686"/>
      <point x="516" y="829"/>
      <point x="687" y="829" type="curve" smooth="yes"/>
    </contour>
  </outline>
</glyph>
<glyph name="onedeva" format="1">
  <advance width="874.954"/>
  <unicode hex="0967"/>
  <outline>
    <contour>
      <point x="512" y="167"/>
      <point x="405" y="254"/>
      <point x="344" y="300" type="curve"/>
      <point x="732" y="597"/>
      <point x="862" y="728"/>
      <point x="862" y="930" type="curve" smooth="yes"/>
      <point x="862" y="1118"/>
      <point x="729" y="1287"/>
      <point x="544" y="1287" type="curve" smooth="yes"/>
      <point x="376" y="1287"/>
      <point x="206" y="1164"/>
      <point x="206" y="972" type="curve" smooth="yes"/>
      <point x="206" y="838"/>
      <point x="296" y="730"/>
      <point x="413" y="651" type="curve"/>
      <point x="324" y="573"/>
      <point x="209" y="481"/>
      <point x="64" y="372" type="curve"/>
      <point x="58" y="342" type="line"/>
      <point x="356" y="106"/>
      <point x="104" y="307"/>
      <point x="389" y="80" type="curve" smooth="yes"/>
      <point x="424" y="52"/>
      <point x="449" y="28"/>
      <point x="449" y="-4" type="curve" smooth="yes"/>
      <point x="449" y="-46"/>
      <point x="409" y="-89"/>
      <point x="321" y="-127" type="curve"/>
      <point x="337" y="-223"/>
      <point x="391" y="-287"/>
      <point x="476" y="-287" type="curve" smooth="yes"/>
      <point x="580" y="-287"/>
      <point x="671" y="-197"/>
      <point x="671" y="-88" type="curve" smooth="yes"/>
      <point x="671" y="-28"/>
      <point x="643" y="49"/>
      <point x="553" y="130" type="curve" smooth="yes"/>
    </contour>
    <contour>
      <point x="429" y="989"/>
      <point x="503" y="1082"/>
      <point x="592" y="1082" type="curve" smooth="yes"/>
      <point x="638" y="1082"/>
      <point x="664" y="1054"/>
      <point x="664" y="1002" type="curve" smooth="yes"/>
      <point x="664" y="930"/>
      <point x="620" y="855"/>
      <point x="517" y="750" type="curve"/>
      <point x="454" y="795"/>
      <point x="429" y="847"/>
      <point x="429" y="898" type="curve" smooth="yes"/>
    </contour>
  </outline>
</glyph>
<glyph name="twodeva" format="1">
  <advance width="1122"/>
  <unicode hex="0968"/>
  <outline>
    <contour>
      <point x="808" y="78"/>
      <point x="759" y="55"/>
      <point x="700" y="55" type="curve" smooth="yes"/>
      <point x="623" y="55"/>
      <point x="579" y="101"/>
      <point x="547" y="267" type="curve"/>
      <point x="858" y="389"/>
      <point x="1032" y="577"/>
      <point x="1076" y="785" type="curve" smooth="yes"/>
      <point x="1133" y="1056"/>
      <point x="960" y="1287"/>
      <point x="673" y="1287" type="curve" smooth="yes"/>
      <point x="468" y="1287"/>
      <point x="300" y="1160"/>
      <point x="271" y="1025" type="curve" smooth="yes"/>
      <point x="247" y="908"/>
      <point x="328" y="829"/>
      <point x="463" y="821" type="curve"/>
      <point x="482" y="956"/>
      <point x="618" y="1082"/>
      <point x="773" y="1082" type="curve" smooth="yes"/>
      <point x="861" y="1082"/>
      <point x="909" y="1037"/>
      <point x="886" y="928" type="curve" smooth="yes"/>
      <point x="856" y="785"/>
      <point x="723" y="618"/>
      <point x="472" y="510" type="curve"/>
      <point x="441" y="581"/>
      <point x="375" y="625"/>
      <point x="294" y="625" type="curve" smooth="yes"/>
      <point x="215" y="625"/>
      <point x="145" y="575"/>
      <point x="129" y="497" type="curve" smooth="yes"/>
      <point x="104" y="379"/>
      <point x="201" y="252"/>
      <point x="396" y="252" type="curve"/>
      <point x="459" y="-83"/>
      <point x="622" y="-188"/>
      <point x="767" y="-188" type="curve" smooth="yes"/>
      <point x="862" y="-188"/>
      <point x="918" y="-136"/>
      <point x="932" y="-70" type="curve" smooth="yes"/>
      <point x="945" y="-4"/>
      <point x="918" y="59"/>
      <point x="859" y="111" type="curve"/>
    </contour>
  </outline>
</glyph>
<glyph name="threedeva" format="1">
  <advance width="1025"/>
  <unicode hex="0969"/>
  <outline>
    <contour>
      <point x="666" y="-48"/>
      <point x="630" y="-63"/>
      <point x="578" y="-63" type="curve" smooth="yes"/>
      <point x="521" y="-63"/>
      <point x="492" y="-47"/>
      <point x="474" y="23" type="curve"/>
      <point x="742" y="45"/>
      <point x="883" y="160"/>
      <point x="914" y="305" type="curve" smooth="yes"/>
      <point x="939" y="425"/>
      <point x="891" y="553"/>
      <point x="811" y="626" type="curve"/>
      <point x="927" y="689"/>
      <point x="977" y="763"/>
      <point x="996" y="853" type="curve" smooth="yes"/>
      <point x="1042" y="1073"/>
      <point x="876" y="1285"/>
      <point x="589" y="1285" type="curve" smooth="yes"/>
      <point x="393" y="1285"/>
      <point x="263" y="1181"/>
      <point x="240" y="1069" type="curve" smooth="yes"/>
      <point x="216" y="958"/>
      <point x="297" y="877"/>
      <point x="432" y="869" type="curve"/>
      <point x="449" y="993"/>
      <point x="572" y="1094"/>
      <point x="714" y="1094" type="curve" smooth="yes"/>
      <point x="790" y="1094"/>
      <point x="819" y="1063"/>
      <point x="806" y="998" type="curve" smooth="yes"/>
      <point x="780" y="878"/>
      <point x="639" y="760"/>
      <point x="314" y="740" type="curve"/>
      <point x="304" y="716" type="line"/>
      <point x="373" y="521" type="line"/>
      <point x="486" y="532"/>
      <point x="585" y="548"/>
      <point x="677" y="576" type="curve"/>
      <point x="719" y="543"/>
      <point x="730" y="502"/>
      <point x="721" y="457" type="curve" smooth="yes"/>
      <point x="700" y="359"/>
      <point x="596" y="271"/>
      <point x="422" y="242" type="curve"/>
      <point x="403" y="344"/>
      <point x="334" y="406"/>
      <point x="239" y="406" type="curve" smooth="yes"/>
      <point x="159" y="406"/>
      <point x="96" y="351"/>
      <point x="80" y="275" type="curve" smooth="yes"/>
      <point x="54" y="152"/>
      <point x="155" y="42"/>
      <point x="329" y="34" type="curve"/>
      <point x="372" y="-212"/>
      <point x="512" y="-296"/>
      <point x="633" y="-296" type="curve" smooth="yes"/>
      <point x="706" y="-296"/>
      <point x="759" y="-253"/>
      <point x="771" y="-194" type="curve" smooth="yes"/>
      <point x="784" y="-135"/>
      <point x="757" y="-73"/>
      <point x="705" y="-28" type="curve"/>
    </contour>
  </outline>
</glyph>
<glyph name="fourdeva" format="1">
  <advance width="1186.528"/>
  <unicode hex="096A"/>
  <outline>
    <contour>
      <point x="797" y="617" type="line" smooth="yes"/>
      <point x="1039" y="866"/>
      <point x="1194" y="1030"/>
      <point x="1259" y="1100" type="curve"/>
      <point x="1078" y="1249" type="line"/>
      <point x="769" y="922"/>
      <point x="877" y="1036"/>
      <point x="653" y="802" type="curve" smooth="yes"/>
      <point x="599" y="746" type="line"/>
      <point x="483" y="854"/>
      <point x="434" y="894"/>
      <point x="434" y="954" type="curve" smooth="yes"/>
      <point x="434" y="1020"/>
      <point x="485" y="1093"/>
      <point x="608" y="1116" type="curve"/>
      <point x="587" y="1220"/>
      <point x="534" y="1281"/>
      <point x="445" y="1281" type="curve" smooth="yes"/>
      <point x="319" y="1281"/>
      <point x="207" y="1167"/>
      <point x="207" y="1030" type="curve" smooth="yes"/>
      <point x="207" y="924"/>
      <point x="287" y="832"/>
      <point x="495" y="634" type="curve"/>
      <point x="341" y="465"/>
      <point x="290" y="408"/>
      <point x="290" y="291" type="curve" smooth="yes"/>
      <point x="290" y="132"/>
      <point x="409" y="-11"/>
      <point x="595" y="-11" type="curve" smooth="yes"/>
      <point x="761" y="-11"/>
      <point x="907" y="90"/>
      <point x="907" y="278" type="curve" smooth="yes"/>
      <point x="907" y="374"/>
      <point x="860" y="471"/>
      <point x="762" y="581" type="curve"/>
    </contour>
    <contour>
      <point x="512" y="168"/>
      <point x="487" y="198"/>
      <point x="487" y="241" type="curve" smooth="yes"/>
      <point x="487" y="306"/>
      <point x="531" y="343"/>
      <point x="654" y="471" type="curve"/>
      <point x="683" y="433"/>
      <point x="700" y="389"/>
      <point x="700" y="343" type="curve" smooth="yes"/>
      <point x="700" y="238"/>
      <point x="624" y="168"/>
      <point x="554" y="168" type="curve" smooth="yes"/>
    </contour>
  </outline>
</glyph>
<glyph name="fivedeva" format="1">
  <advance width="1131.103"/>
  <unicode hex="096B"/>
  <outline>
    <contour>
      <point x="996" y="476"/>
      <point x="1033" y="549"/>
      <point x="1033" y="631" type="curve" smooth="yes"/>
      <point x="1033" y="743"/>
      <point x="970" y="848"/>
      <point x="856" y="848" type="curve" smooth="yes"/>
      <point x="748" y="848"/>
      <point x="659" y="765"/>
      <point x="659" y="660" type="curve" smooth="yes"/>
      <point x="659" y="612"/>
      <point x="676" y="557"/>
      <point x="710" y="510" type="curve"/>
      <point x="594" y="407"/>
      <point x="492" y="356"/>
      <point x="409" y="356" type="curve" smooth="yes"/>
      <point x="336" y="356"/>
      <point x="300" y="399"/>
      <point x="300" y="468" type="curve" smooth="yes"/>
      <point x="300" y="592"/>
      <point x="438" y="826"/>
      <point x="701" y="1114" type="curve"/>
      <point x="509" y="1264" type="line"/>
      <point x="283" y="1012"/>
      <point x="102" y="758"/>
      <point x="102" y="549" type="curve" smooth="yes"/>
      <point x="102" y="319"/>
      <point x="281" y="154"/>
      <point x="476" y="154" type="curve" smooth="yes"/>
      <point x="597" y="154"/>
      <point x="729" y="213"/>
      <point x="834" y="298" type="curve"/>
      <point x="843" y="273"/>
      <point x="848" y="242"/>
      <point x="848" y="214" type="curve" smooth="yes"/>
      <point x="848" y="120"/>
      <point x="822" y="60"/>
      <point x="637" y="32" type="curve"/>
      <point x="652" y="-94"/>
      <point x="715" y="-149"/>
      <point x="807" y="-149" type="curve" smooth="yes"/>
      <point x="930" y="-149"/>
      <point x="1036" y="-57"/>
      <point x="1036" y="74" type="curve" smooth="yes"/>
      <point x="1036" y="180"/>
      <point x="979" y="306"/>
      <point x="937" y="402" type="curve"/>
    </contour>
  </outline>
</glyph>
<glyph name="sixdeva" format="1">
  <advance width="1066.063"/>
  <unicode hex="096C"/>
  <outline>
    <contour>
      <point x="872" y="183"/>
      <point x="920" y="244"/>
      <point x="920" y="320" type="curve" smooth="yes"/>
      <point x="920" y="405"/>
      <point x="867" y="499"/>
      <point x="766" y="499" type="curve" smooth="yes"/>
      <point x="668" y="499"/>
      <point x="576" y="420"/>
      <point x="576" y="330" type="curve" smooth="yes"/>
      <point x="576" y="306"/>
      <point x="582" y="280"/>
      <point x="593" y="259" type="curve"/>
      <point x="542" y="239"/>
      <point x="486" y="229"/>
      <point x="445" y="229" type="curve" smooth="yes"/>
      <point x="366" y="229"/>
      <point x="315" y="270"/>
      <point x="315" y="336" type="curve" smooth="yes"/>
      <point x="315" y="429"/>
      <point x="402" y="570"/>
      <point x="803" y="606" type="curve"/>
      <point x="823" y="632" type="line"/>
      <point x="722" y="828" type="line"/>
      <point x="620" y="820"/>
      <point x="528" y="802"/>
      <point x="448" y="774" type="curve"/>
      <point x="437" y="794"/>
      <point x="433" y="820"/>
      <point x="433" y="842" type="curve" smooth="yes"/>
      <point x="433" y="953"/>
      <point x="542" y="1063"/>
      <point x="731" y="1063" type="curve" smooth="yes"/>
      <point x="797" y="1063"/>
      <point x="865" y="1049"/>
      <point x="886" y="1042" type="curve"/>
      <point x="890" y="1211"/>
      <point x="828" y="1282"/>
      <point x="667" y="1282" type="curve" smooth="yes"/>
      <point x="412" y="1282"/>
      <point x="230" y="1138"/>
      <point x="230" y="945" type="curve" smooth="yes"/>
      <point x="230" y="860"/>
      <point x="268" y="781"/>
      <point x="332" y="722" type="curve"/>
      <point x="197" y="644"/>
      <point x="120" y="539"/>
      <point x="120" y="402" type="curve" smooth="yes"/>
      <point x="120" y="219"/>
      <point x="265" y="41"/>
      <point x="517" y="41" type="curve" smooth="yes"/>
      <point x="592" y="41"/>
      <point x="657" y="56"/>
      <point x="713" y="79" type="curve"/>
      <point x="719" y="64"/>
      <point x="722" y="48"/>
      <point x="722" y="36" type="curve" smooth="yes"/>
      <point x="722" y="-33"/>
      <point x="652" y="-88"/>
      <point x="578" y="-88" type="curve"/>
      <point x="599" y="-185"/>
      <point x="645" y="-252"/>
      <point x="737" y="-252" type="curve" smooth="yes"/>
      <point x="837" y="-252"/>
      <point x="897" y="-178"/>
      <point x="897" y="-92" type="curve" smooth="yes"/>
      <point x="897" y="-39"/>
      <point x="874" y="36"/>
      <point x="806" y="138" type="curve"/>
    </contour>
  </outline>
</glyph>
<glyph name="sevendeva" format="1">
  <advance width="1136.763"/>
  <unicode hex="096D"/>
  <outline>
    <contour>
      <point x="618" y="1193"/>
      <point x="468" y="1054"/>
      <point x="468" y="865" type="curve" smooth="yes"/>
      <point x="468" y="673"/>
      <point x="611" y="502"/>
      <point x="816" y="458" type="curve"/>
      <point x="748" y="364"/>
      <point x="656" y="317"/>
      <point x="558" y="317" type="curve" smooth="yes"/>
      <point x="329" y="317"/>
      <point x="205" y="574"/>
      <point x="327" y="1260" type="curve"/>
      <point x="190" y="1260"/>
      <point x="97" y="1180"/>
      <point x="97" y="786" type="curve" smooth="yes"/>
      <point x="97" y="377"/>
      <point x="270" y="74"/>
      <point x="571" y="74" type="curve" smooth="yes"/>
      <point x="857" y="74"/>
      <point x="1111" y="296"/>
      <point x="1111" y="714" type="curve" smooth="yes"/>
      <point x="1111" y="992"/>
      <point x="984" y="1193"/>
      <point x="792" y="1193" type="curve" smooth="yes"/>
    </contour>
    <contour>
      <point x="697" y="921"/>
      <point x="761" y="977"/>
      <point x="829" y="977" type="curve" smooth="yes"/>
      <point x="897" y="977"/>
      <point x="931" y="908"/>
      <point x="931" y="802" type="curve" smooth="yes"/>
      <point x="931" y="768"/>
      <point x="921" y="692"/>
      <point x="890" y="603" type="curve"/>
      <point x="735" y="630"/>
      <point x="654" y="715"/>
      <point x="678" y="831" type="curve"/>
    </contour>
  </outline>
</glyph>
<glyph name="eightdeva" format="1">
  <advance width="1061"/>
  <unicode hex="096E"/>
  <outline>
    <contour>
      <point x="929" y="205"/>
      <point x="682" y="39"/>
      <point x="447" y="39" type="curve" smooth="yes"/>
      <point x="223" y="39"/>
      <point x="37" y="203"/>
      <point x="88" y="443" type="curve" smooth="yes"/>
      <point x="103" y="517"/>
      <point x="147" y="614"/>
      <point x="439" y="854" type="curve" smooth="yes"/>
      <point x="626" y="1024"/>
      <point x="869" y="1205"/>
      <point x="903" y="1233" type="curve"/>
      <point x="1074" y="1095" type="line"/>
      <point x="1047" y="1076"/>
      <point x="761" y="847"/>
      <point x="564" y="688" type="curve" smooth="yes"/>
      <point x="381" y="520"/>
      <point x="319" y="446"/>
      <point x="305" y="380" type="curve" smooth="yes"/>
      <point x="290" y="306"/>
      <point x="329" y="249"/>
      <point x="435" y="249" type="curve" smooth="yes"/>
      <point x="552" y="249"/>
      <point x="705" y="329"/>
      <point x="866" y="499" type="curve"/>
      <point x="933" y="463"/>
      <point x="967" y="389"/>
      <point x="955" y="333" type="curve" smooth="yes"/>
    </contour>
  </outline>
</glyph>
